<svg width="150" height="75" viewBox="0 0 150 75" fill="none" xmlns="http://www.w3.org/2000/svg">
<g id="Assets / Illustrations / Pepper / Empty state" clip-path="url(#clip0_808_21838)">
<g id="Group 12">
<path id="Vector" fill-rule="evenodd" clip-rule="evenodd" d="M94.7282 2.38561C90.3808 3.98911 95.6113 11.5235 100.757 16.438C105.458 20.9303 112.346 24.3 115.185 19.3184C118.967 12.6797 114.532 7.45967 111.31 5.0077C104.533 -0.149312 96.9922 1.54974 94.7282 2.38561ZM35.36 57.6794C29.7756 44.6487 28.8358 10.025 60.0478 0.400936C91.2597 -9.22213 75.5219 17.7065 104.088 30.5155C118.628 37.0356 126.495 62.2546 101.735 73.9873C76.9732 85.72 42.0775 73.3615 35.36 57.6794Z" fill="#F6F7F9"/>
<path id="Vector_2" fill-rule="evenodd" clip-rule="evenodd" d="M37.2647 12L38.6314 15.7466C38.6442 15.7817 38.6639 15.8125 38.6905 15.839C38.7161 15.8647 38.7478 15.8852 38.782 15.8972L42.5295 17.2639L38.782 18.6314C38.7478 18.6442 38.7161 18.6639 38.6905 18.6896C38.6639 18.7161 38.6442 18.7478 38.6314 18.782L37.2647 22.5286L35.8981 18.782C35.8852 18.7478 35.8655 18.7161 35.839 18.6896C35.8133 18.6639 35.7817 18.6442 35.7474 18.6314L32 17.2639L35.7474 15.8972C35.7817 15.8852 35.8133 15.8647 35.839 15.839C35.8655 15.8125 35.8852 15.7817 35.8981 15.7466L37.2647 12Z" fill="#FF7900"/>
<path id="Vector_3" fill-rule="evenodd" clip-rule="evenodd" d="M107.236 55.046L108.334 58.0566C108.345 58.0839 108.361 58.1091 108.382 58.1301C108.403 58.1511 108.428 58.1669 108.455 58.1774L111.466 59.2758L108.455 60.3731C108.428 60.3836 108.403 60.4004 108.382 60.4204C108.361 60.4414 108.345 60.4666 108.334 60.495L107.236 63.5045L106.138 60.495C106.127 60.4666 106.111 60.4414 106.09 60.4204C106.069 60.4004 106.044 60.3836 106.017 60.3731L103.006 59.2758L106.017 58.1774C106.044 58.1669 106.069 58.1511 106.09 58.1301C106.111 58.1091 106.127 58.0839 106.138 58.0566L107.236 55.046Z" fill="#FF7900"/>
<path id="Vector_4" fill-rule="evenodd" clip-rule="evenodd" d="M47.549 9.4115L48.2809 11.4161C48.2872 11.435 48.2977 11.4518 48.3124 11.4655C48.326 11.4802 48.3428 11.4907 48.3607 11.497L50.3664 12.2289L48.3607 12.9598C48.3428 12.9671 48.326 12.9776 48.3124 12.9913C48.2977 13.006 48.2872 13.0228 48.2809 13.0406L47.549 15.0463L46.8171 13.0406C46.8108 13.0228 46.8003 13.006 46.7856 12.9913C46.7719 12.9776 46.7551 12.9671 46.7372 12.9598L44.7316 12.2289L46.7372 11.497C46.7551 11.4907 46.7719 11.4802 46.7856 11.4655C46.8003 11.4518 46.8108 11.435 46.8171 11.4161L47.549 9.4115Z" fill="#FF7900"/>
<path id="Vector_5" fill-rule="evenodd" clip-rule="evenodd" d="M99.7512 66.2888C100.442 66.2888 101.002 66.8485 101.002 67.5395C101.002 68.2304 100.442 68.7901 99.7512 68.7901C99.0603 68.7901 98.5006 68.2304 98.5006 67.5395C98.5006 66.8485 99.0603 66.2888 99.7512 66.2888Z" fill="#FF7900"/>
<path id="Vector_6" d="M74.9991 67.0228C91.5818 67.0228 105.025 53.5799 105.025 36.9971C105.025 20.4144 91.5818 6.97144 74.9991 6.97144C58.4164 6.97144 44.9734 20.4144 44.9734 36.9971C44.9734 53.5799 58.4164 67.0228 74.9991 67.0228Z" fill="white" stroke="#FF7900" stroke-width="1.07956" stroke-miterlimit="1.5" stroke-linecap="round" stroke-linejoin="round"/>
<path id="Vector_7" fill-rule="evenodd" clip-rule="evenodd" d="M47.5191 24.9244C47.3212 29.0738 47.9213 33.327 49.4185 37.473C55.505 54.3274 74.1303 63.0697 90.9848 56.9832C95.1307 55.486 98.7866 53.2299 101.852 50.4271C98.5263 57.0776 92.7421 62.5131 85.2032 65.2356C69.6165 70.8643 52.3928 62.7799 46.7643 47.1937C44.0417 39.6544 44.5276 31.7324 47.5191 24.9244Z" fill="#DCDCDC"/>
<path id="Vector_8" fill-rule="evenodd" clip-rule="evenodd" d="M72.7702 55.2919C72.701 55.6183 72.5905 55.9323 72.4367 56.2317C70.9843 59.0554 66.2073 59.5003 61.7761 57.2218C57.3449 54.9433 54.9265 50.8006 56.3792 47.9748C57.8318 45.149 62.6085 44.7062 67.0397 46.9847C68.7366 47.8551 70.1381 49.0011 71.1407 50.2435C71.934 49.7515 73.0324 49.5805 74.1489 49.8626C76.0514 50.3389 77.2901 51.9445 76.9138 53.4441C76.5372 54.9437 74.6871 55.7738 72.7847 55.2954L72.7702 55.2919Z" fill="#ECECEC"/>
<path id="Vector_9" fill-rule="evenodd" clip-rule="evenodd" d="M74.9992 6.22192C58.0136 6.22192 44.2238 20.0118 44.2238 36.9973C44.2238 53.9828 58.0136 67.7732 74.9992 67.7732C91.9847 67.7732 105.775 53.9828 105.775 36.9973C105.775 20.0118 91.9847 6.22192 74.9992 6.22192ZM74.9992 7.72181C91.157 7.72181 104.275 20.8399 104.275 36.9973C104.275 53.1552 91.157 66.2733 74.9992 66.2733C58.8418 66.2733 45.7237 53.1552 45.7237 36.9973C45.7237 20.8399 58.8418 7.72181 74.9992 7.72181Z" fill="#8E949C"/>
<path id="Vector_10" d="M53.2444 26.0896C54.7534 27.8184 57.8141 27.616 60.0806 25.6376C62.3471 23.6592 62.9611 20.654 61.4521 18.9252C59.9431 17.1965 56.8824 17.3988 54.616 19.3772C52.3495 21.3556 51.7354 24.3609 53.2444 26.0896Z" fill="#ECECEC"/>
<path id="Vector_11" fill-rule="evenodd" clip-rule="evenodd" d="M61.8287 18.5963C60.1664 16.6919 56.784 16.821 54.2872 19.0005C51.7903 21.18 51.2053 24.5139 52.8677 26.4183C54.5301 28.3228 57.9125 28.1937 60.4094 26.0142C62.9062 23.8348 63.4912 20.5008 61.8287 18.5963ZM61.0753 19.254C62.4293 20.805 61.7852 23.4858 59.7518 25.2608C57.7182 27.0359 54.975 27.3118 53.6211 25.7607C52.2672 24.2097 52.9112 21.5289 54.9448 19.7538C56.9782 17.9788 59.7215 17.7029 61.0753 19.254Z" fill="#C9C9C9"/>
<path id="Vector_12" d="M82.6721 47.5945C85.1872 50.4759 89.6079 50.7328 92.546 48.1682C95.484 45.6036 95.8269 41.1887 93.3117 38.3072C90.7965 35.4258 86.3758 35.169 83.4378 37.7336C80.4997 40.2982 80.1569 44.7131 82.6721 47.5945Z" fill="#ECECEC"/>
<path id="Vector_13" fill-rule="evenodd" clip-rule="evenodd" d="M93.6883 37.9783C90.9951 34.893 86.255 34.6107 83.109 37.3568C79.9629 40.1029 79.6022 44.8378 82.2953 47.9232C84.9885 51.0086 89.7287 51.2909 92.8748 48.5447C96.0208 45.7986 96.3815 41.0637 93.6883 37.9783ZM92.935 38.6359C95.2688 41.3096 94.9433 45.4117 92.2172 47.7913C89.4909 50.171 85.3825 49.9392 83.0487 47.2655C80.715 44.5919 81.0404 40.4899 83.7666 38.1102C86.4928 35.7305 90.6012 35.9623 92.935 38.6359Z" fill="#C9C9C9"/>
<path id="Vector_14" d="M98.4348 33.8604C98.5259 35.0881 99.2957 36.0317 100.154 35.968C101.013 35.9043 101.635 34.8575 101.544 33.6298C101.453 32.4021 100.683 31.4585 99.8246 31.5222C98.966 31.5858 98.3438 32.6327 98.4348 33.8604Z" fill="#ECECEC"/>
<path id="Vector_15" fill-rule="evenodd" clip-rule="evenodd" d="M102.043 33.593C101.977 32.7136 101.606 31.9617 101.11 31.5125C100.725 31.1648 100.264 30.9884 99.7876 31.0237C99.3115 31.059 98.8814 31.3015 98.5522 31.7021C98.1269 32.2197 97.871 33.0181 97.9362 33.8975C98.0014 34.7769 98.3723 35.5289 98.8693 35.9781C99.254 36.3258 99.7151 36.5021 100.191 36.4668C100.667 36.4315 101.097 36.1891 101.427 35.7884C101.852 35.2708 102.108 34.4724 102.043 33.593ZM101.045 33.6669C101.083 34.1681 100.981 34.6341 100.775 34.9798C100.614 35.2508 100.392 35.4492 100.117 35.4696C99.8426 35.4899 99.5936 35.3265 99.3943 35.0822C99.1401 34.7706 98.9706 34.3247 98.9335 33.8236C98.8963 33.3224 98.9981 32.8565 99.2036 32.5107C99.3647 32.2397 99.5869 32.0413 99.8616 32.021C100.136 32.0006 100.385 32.1641 100.585 32.4083C100.839 32.72 101.008 33.1658 101.045 33.6669Z" fill="#C9C9C9"/>
<path id="Vector_16" d="M63.2465 13.3983C62.2079 14.0591 61.7406 15.1837 62.2028 15.9101C62.665 16.6365 63.8816 16.6895 64.9202 16.0287C65.9589 15.3678 66.4262 14.2432 65.964 13.5168C65.5018 12.7905 64.2851 12.7374 63.2465 13.3983Z" fill="#ECECEC"/>
<path id="Vector_17" fill-rule="evenodd" clip-rule="evenodd" d="M65.1886 16.4504C65.9326 15.977 66.4197 15.2945 66.5804 14.6443C66.7048 14.1408 66.6421 13.6511 66.3858 13.2483C66.1295 12.8455 65.7124 12.5812 65.2037 12.4807C64.5466 12.3508 63.722 12.5029 62.9781 12.9763C62.2341 13.4497 61.747 14.1322 61.5863 14.7825C61.4619 15.2859 61.5246 15.7756 61.7809 16.1784C62.0372 16.5812 62.4543 16.8455 62.963 16.946C63.6201 17.0759 64.4446 16.9238 65.1886 16.4504ZM64.6518 15.6067C64.2278 15.8765 63.7691 16.0072 63.3673 15.9896C63.0523 15.9759 62.7724 15.8739 62.6246 15.6416C62.4767 15.4092 62.503 15.1125 62.6239 14.8214C62.7783 14.45 63.0909 14.0898 63.5149 13.82C63.9389 13.5502 64.3976 13.4196 64.7994 13.4371C65.1143 13.4508 65.3943 13.5528 65.5421 13.7852C65.69 14.0175 65.6637 14.3142 65.5428 14.6053C65.3884 14.9768 65.0758 15.337 64.6518 15.6067Z" fill="#C9C9C9"/>
<path id="Vector_18" d="M98.3638 28.6568C99.9738 27.656 99.996 24.7808 98.4134 22.2349C96.8308 19.6889 94.2427 18.4363 92.6327 19.4371C91.0228 20.4379 91.0006 23.313 92.5832 25.859C94.1658 28.405 96.7539 29.6576 98.3638 28.6568Z" fill="#ECECEC"/>
<path id="Vector_19" fill-rule="evenodd" clip-rule="evenodd" d="M92.3688 19.0125C91.6079 19.4855 91.1302 20.3034 90.9709 21.3195C90.7535 22.706 91.1379 24.4809 92.1586 26.1229C93.1793 27.765 94.6008 28.8952 95.9403 29.314C96.9219 29.6208 97.8669 29.5544 98.6278 29.0814C99.3887 28.6084 99.8665 27.7905 100.026 26.7744C100.243 25.3879 99.8588 23.613 98.838 21.9709C97.8173 20.3289 96.3958 19.1986 95.0563 18.7799C94.0747 18.4731 93.1298 18.5395 92.3689 19.0125L92.3688 19.0125ZM92.8968 19.8618C93.423 19.5346 94.0791 19.5222 94.7579 19.7343C95.9091 20.0942 97.1116 21.0878 97.9887 22.4988C98.8659 23.91 99.2246 25.428 99.0378 26.6195C98.9277 27.3222 98.6261 27.905 98.0998 28.2321C97.5737 28.5592 96.9176 28.5717 96.2387 28.3595C95.0876 27.9997 93.885 27.0061 93.0079 25.595C92.1307 24.1839 91.772 22.6658 91.9588 21.4743C92.0689 20.7717 92.3705 20.1889 92.8967 19.8618L92.8968 19.8618Z" fill="#C9C9C9"/>
<path id="Vector_20" d="M61.776 57.2207C66.2103 59.5005 70.9832 59.0568 72.4368 56.2296C73.8903 53.4025 71.474 49.2625 67.0398 46.9827C62.6056 44.7029 57.8326 45.1466 56.3791 47.9738C54.9255 50.8009 57.3418 54.9409 61.776 57.2207Z" fill="#ECECEC"/>
<path id="Vector_21" fill-rule="evenodd" clip-rule="evenodd" d="M67.2684 46.5381C64.4882 45.1086 61.5753 44.7196 59.3638 45.2628C57.801 45.6466 56.5785 46.4925 55.9345 47.7452C55.2904 48.9979 55.3138 50.4843 55.9109 51.9787C56.7559 54.0933 58.7672 56.236 61.5475 57.6654C64.3278 59.0949 67.2407 59.484 69.4522 58.9408C71.0151 58.5569 72.2375 57.7111 72.8816 56.4583C73.5256 55.2057 73.5023 53.7192 72.9051 52.2249C72.0601 50.1102 70.0488 47.9675 67.2686 46.5381L67.2684 46.5381ZM66.8113 47.4275C69.3486 48.732 71.2054 50.6661 71.9766 52.596C72.4569 53.798 72.5102 54.9935 71.9922 56.001C71.4741 57.0086 70.4708 57.6609 69.2138 57.9697C67.1955 58.4654 64.5419 58.0806 62.0047 56.7761C59.4676 55.4717 57.6106 53.5375 56.8394 51.6076C56.3591 50.4056 56.3058 49.21 56.8239 48.2024C57.3419 47.1949 58.3452 46.5426 59.6022 46.2339C61.6205 45.7382 64.2739 46.1229 66.8112 47.4274L66.8113 47.4275Z" fill="#C9C9C9"/>
<path id="Vector_22" d="M72.7847 55.2985C74.6884 55.7764 76.537 54.9471 76.9138 53.4463C77.2906 51.9455 76.0528 50.3414 74.1491 49.8635C72.2454 49.3856 70.3967 50.2148 70.02 51.7157C69.6432 53.2165 70.881 54.8206 72.7847 55.2985Z" fill="#ECECEC"/>
<path id="Vector_23" fill-rule="evenodd" clip-rule="evenodd" d="M74.2708 49.3785C72.0729 48.8268 69.97 49.8611 69.535 51.5939C69.1 53.3267 70.465 55.2317 72.6629 55.7834C74.8608 56.3352 76.9637 55.3008 77.3987 53.568C77.8337 51.8353 76.4687 49.9303 74.2708 49.3785ZM74.0273 50.3484C75.6349 50.752 76.747 52.0571 76.4288 53.3245C76.1106 54.5919 74.514 55.2171 72.9064 54.8135C71.2988 54.4099 70.1867 53.1048 70.5049 51.8374C70.8231 50.57 72.4197 49.9448 74.0273 50.3484Z" fill="#C9C9C9"/>
</g>
</g>
<defs>
<clipPath id="clip0_808_21838">
<rect width="150" height="75" fill="white"/>
</clipPath>
</defs>
</svg>
