<svg width="105" height="31" viewBox="0 0 105 31" fill="none" xmlns="http://www.w3.org/2000/svg">
<path fill-rule="evenodd" clip-rule="evenodd" d="M29.9519 23.5301C29.9519 24.4905 30.7534 25.2908 31.7152 25.2908C32.7304 25.2908 33.4785 24.4905 33.4785 23.5301V20.3821H36.2036C39.8371 20.3821 42.7225 18.4612 42.7225 14.7797V14.7263C42.7225 11.4716 40.3714 9.17725 36.5242 9.17725H31.7152C30.6999 9.17725 29.9519 9.97759 29.9519 10.938V23.5301ZM33.5319 17.234V12.3253H36.257C38.0203 12.3253 39.1424 13.179 39.1424 14.7263V14.7797C39.1424 16.1669 38.1272 17.1807 36.3104 17.1807H33.5319V17.234ZM46.5697 18.0877C46.8368 16.4871 47.7986 15.4733 49.2413 15.4733C50.7375 15.4733 51.6458 16.5404 51.8596 18.0877H46.5697ZM53.89 23.9569C54.1572 23.7435 54.3709 23.37 54.3709 22.9432C54.3709 22.1428 53.7832 21.5559 52.9817 21.5559C52.6076 21.5559 52.3939 21.6626 52.1267 21.8227C51.4321 22.3562 50.5772 22.623 49.6154 22.623C48.0658 22.623 46.9437 21.8227 46.5697 20.222H53.516C54.4244 20.222 55.1724 19.5817 55.1724 18.568C55.1724 16.0602 53.3557 12.6988 49.1879 12.6988C45.6079 12.6988 43.0431 15.58 43.0431 19.0482V19.1015C43.0431 22.8365 45.7682 25.3976 49.5085 25.3976C51.3787 25.4509 52.8214 24.864 53.89 23.9569ZM56.2411 27.2117C56.2411 28.1721 57.0426 28.9724 58.0044 28.9724C58.9662 28.9724 59.7677 28.1721 59.7677 27.2117V23.5834C60.6226 24.5439 61.7447 25.3976 63.6149 25.3976C66.5537 25.3976 69.2788 23.1566 69.2788 19.1015V19.0482C69.2788 14.9397 66.5537 12.7521 63.6149 12.7521C61.7982 12.7521 60.6226 13.6058 59.7677 14.7263V14.5662C59.7677 13.6058 58.9662 12.8055 58.0044 12.8055C57.0426 12.8055 56.2411 13.6058 56.2411 14.5662V27.2117ZM62.7065 22.463C61.0501 22.463 59.7143 21.1291 59.7143 19.1015V19.0482C59.7143 17.0206 61.1035 15.6867 62.7065 15.6867C64.3095 15.6867 65.7522 17.0206 65.7522 19.0482V19.1015C65.6988 21.1291 64.3095 22.463 62.7065 22.463ZM70.1338 27.2117C70.1338 28.1721 70.9353 28.9724 71.8971 28.9724C72.8589 28.9724 73.6604 28.1721 73.6604 27.2117V23.5834C74.5153 24.5439 75.6374 25.3976 77.5076 25.3976C80.4464 25.3976 83.1715 23.1566 83.1715 19.1015V19.0482C83.1715 14.9397 80.4464 12.7521 77.5076 12.7521C75.6909 12.7521 74.5153 13.6058 73.6604 14.7263V14.5662C73.6604 13.6058 72.8589 12.8055 71.8971 12.8055C70.9353 12.8055 70.1338 13.6058 70.1338 14.5662V27.2117ZM76.5992 22.463C74.9428 22.463 73.6069 21.1291 73.6069 19.1015V19.0482C73.6069 17.0206 74.9962 15.6867 76.5992 15.6867C78.2022 15.6867 79.6449 17.0206 79.6449 19.0482V19.1015C79.6449 21.1291 78.2556 22.463 76.5992 22.463ZM87.3927 18.0877C87.6599 16.4871 88.6217 15.4733 90.0644 15.4733C91.5606 15.4733 92.4689 16.5404 92.6827 18.0877H87.3927ZM94.7131 23.9569C94.9803 23.7435 95.194 23.37 95.194 22.9432C95.194 22.1428 94.6063 21.5559 93.8048 21.5559C93.4307 21.5559 93.217 21.6626 92.9498 21.8227C92.2552 22.3562 91.4003 22.623 90.4385 22.623C88.8889 22.623 87.7668 21.8227 87.3927 20.222H94.3391C95.2475 20.222 95.9955 19.5817 95.9955 18.568C95.9955 16.0602 94.1788 12.6988 90.011 12.6988C86.431 12.6988 83.8662 15.58 83.8662 19.0482V19.1015C83.8662 22.8365 86.5913 25.3976 90.3316 25.3976C92.2552 25.4509 93.6445 24.864 94.7131 23.9569ZM97.1176 23.5834C97.1176 24.5439 97.9191 25.3442 98.8809 25.3442C99.8427 25.3442 100.644 24.5439 100.644 23.5834V20.3287C100.644 17.8743 101.659 16.5404 103.423 16.1136C104.117 15.9535 104.759 15.4199 104.759 14.5129C104.759 13.5525 104.117 12.8055 103.049 12.8055C102.034 12.8055 101.179 13.926 100.644 15.0998V14.5662C100.644 13.6058 99.8427 12.8055 98.8809 12.8055C97.9191 12.8055 97.1176 13.6058 97.1176 14.5662V23.5834Z" fill="black"/>
<path fill-rule="evenodd" clip-rule="evenodd" d="M12.0856 1.22719C12.0856 0.800344 12.1925 0.373494 12.2993 0C10.3757 1.12048 6.36824 4.05508 6.36824 8.43029C6.36824 15.6867 11.9787 16.1136 11.9787 20.3287C11.9787 22.0895 10.6963 23.1033 8.98648 23.1033C6.15451 23.1033 2.78821 18.8348 4.87211 13.3924C4.87211 13.3924 0.00967407 15.6334 0.00967407 20.4355C0.00967407 26.5714 5.35301 31 11.9253 31C18.4976 31 23.841 26.0379 23.841 19.9019C23.841 10.5112 14.971 6.66954 12.8871 3.46816C12.3528 2.82788 12.0856 2.08089 12.0856 1.22719Z" fill="url(#paint0_linear_4169_18109)"/>
<path fill-rule="evenodd" clip-rule="evenodd" d="M0.597443 23.9036C2.78821 28.7057 9.36052 30.1463 12.5665 27.0517C15.1848 24.4906 13.5818 20.7023 11.0169 17.6076C11.6047 18.4079 11.9787 19.2616 11.9787 20.3821C11.9787 22.1429 10.6963 23.1567 8.98648 23.1567C6.15451 23.1567 2.78821 18.8882 4.87211 13.3925C4.87211 13.3925 1.2804 15.0594 0.249714 18.59C0.221119 18.688 -0.478161 21.0389 0.597443 23.9036Z" fill="url(#paint1_linear_4169_18109)"/>
<defs>
<linearGradient id="paint0_linear_4169_18109" x1="6.42656" y1="5.54172" x2="26.6909" y2="36.5213" gradientUnits="userSpaceOnUse">
<stop stop-color="#FFA02F"/>
<stop offset="1" stop-color="#E00034"/>
</linearGradient>
<linearGradient id="paint1_linear_4169_18109" x1="8.72606" y1="28.026" x2="0.652841" y2="7.4439" gradientUnits="userSpaceOnUse">
<stop stop-color="#FFA02F"/>
<stop offset="1" stop-color="#E00034"/>
</linearGradient>
</defs>
</svg>
