<svg width="150" height="74" viewBox="0 0 150 74" fill="none" xmlns="http://www.w3.org/2000/svg">
<g clip-path="url(#clip0_4499_16921)">
<path fill-rule="evenodd" clip-rule="evenodd" d="M84.676 14.9766C81.4412 16.1697 85.3331 21.776 89.1618 25.4327C92.6599 28.7754 97.7848 31.2828 99.8976 27.576C102.712 22.6363 99.4116 18.7521 97.0144 16.9277C91.9715 13.0904 86.3606 14.3546 84.676 14.9766ZM40.5011 56.1198C36.3459 46.4239 35.6465 20.661 58.8709 13.4998C82.0952 6.33948 70.3849 26.3766 91.6402 35.9076C102.46 40.7591 108.313 59.5242 89.89 68.2543C71.4648 76.9844 45.4995 67.7886 40.5011 56.1198Z" fill="#F6F7F9"/>
<path fill-rule="evenodd" clip-rule="evenodd" d="M42.0383 40.1682L42.7679 42.1685C42.7748 42.1872 42.7853 42.2037 42.7995 42.2178C42.8132 42.2315 42.8301 42.2425 42.8484 42.2489L44.8491 42.9785L42.8484 43.7086C42.8301 43.7155 42.8132 43.726 42.7995 43.7397C42.7853 43.7539 42.7748 43.7708 42.7679 43.7891L42.0383 45.7893L41.3087 43.7891C41.3018 43.7708 41.2913 43.7539 41.2771 43.7397C41.2634 43.726 41.2465 43.7155 41.2282 43.7086L39.2275 42.9785L41.2282 42.2489C41.2465 42.2425 41.2634 42.2315 41.2771 42.2178C41.2913 42.2037 41.3018 42.1872 41.3087 42.1685L42.0383 40.1682Z" fill="#FF7900"/>
<path fill-rule="evenodd" clip-rule="evenodd" d="M85.3908 60.7694L86.0533 62.5854C86.0596 62.6019 86.0691 62.6171 86.0818 62.6297C86.0945 62.6424 86.1097 62.6519 86.1261 62.6583L87.9421 63.3208L86.1261 63.9827C86.1097 63.9891 86.0945 63.9992 86.0818 64.0112C86.0691 64.0239 86.0596 64.0391 86.0533 64.0562L85.3908 65.8716L84.7282 64.0562C84.7219 64.0391 84.7124 64.0239 84.6997 64.0112C84.687 63.9992 84.6718 63.9891 84.6554 63.9827L82.8394 63.3208L84.6554 62.6583C84.6718 62.6519 84.687 62.6424 84.6997 62.6297C84.7124 62.6171 84.7219 62.6019 84.7282 62.5854L85.3908 60.7694Z" fill="#FF7900"/>
<path fill-rule="evenodd" clip-rule="evenodd" d="M45.1585 34.9085L45.5229 35.9065C45.526 35.9159 45.5312 35.9243 45.5386 35.931C45.5454 35.9384 45.5537 35.9436 45.5626 35.9467L46.5611 36.3111L45.5626 36.675C45.5537 36.6786 45.5454 36.6839 45.5386 36.6907C45.5312 36.698 45.526 36.7063 45.5229 36.7152L45.1585 37.7138L44.7941 36.7152C44.791 36.7063 44.7858 36.698 44.7784 36.6907C44.7716 36.6839 44.7633 36.6786 44.7544 36.675L43.7559 36.3111L44.7544 35.9467C44.7633 35.9436 44.7716 35.9384 44.7784 35.931C44.7858 35.9243 44.791 35.9159 44.7941 35.9065L45.1585 34.9085Z" fill="#FF7900"/>
<path fill-rule="evenodd" clip-rule="evenodd" d="M90.8487 58.7761C91.3628 58.7761 91.7793 59.1926 91.7793 59.7067C91.7793 60.2209 91.3628 60.6373 90.8487 60.6373C90.3346 60.6373 89.9181 60.2209 89.9181 59.7067C89.9181 59.1926 90.3346 58.7761 90.8487 58.7761Z" fill="#FF7900"/>
<path fill-rule="evenodd" clip-rule="evenodd" d="M71.5513 56.3085L61.6768 51.089C61.6768 51.089 59.6113 54.9965 57.8144 58.3959C57.1225 59.705 56.9791 61.2349 57.415 62.6506C57.8518 64.0651 58.8322 65.2492 60.1414 65.9412C60.1422 65.9416 60.1429 65.942 60.1438 65.9425C61.4529 66.6344 62.9835 66.7777 64.3983 66.3418C65.8136 65.9046 66.997 64.9245 67.689 63.6154C69.4858 60.216 71.5513 56.3085 71.5513 56.3085Z" fill="#D3D3D3"/>
<path fill-rule="evenodd" clip-rule="evenodd" d="M70.4451 55.7232L61.6768 51.0885L57.5224 58.9479C56.9078 60.1105 56.7804 61.4693 57.1679 62.7256C57.5554 63.982 58.4257 65.0339 59.5882 65.6483C59.5891 65.6488 59.5899 65.6492 59.5906 65.6496C60.7531 66.2641 62.1125 66.3908 63.3688 66.0034C64.6251 65.6159 65.6761 64.7453 66.2907 63.5826C68.1474 60.07 70.4451 55.7232 70.4451 55.7232Z" fill="#D3D3D3"/>
<path fill-rule="evenodd" clip-rule="evenodd" d="M44.8442 61.8874L53.3542 52.2184L70.9345 61.8272L78.1097 71.4043C78.1116 71.4265 78.1138 71.4487 78.1163 71.4693C65.4071 72.8207 51.9858 68.3625 44.8442 61.8874Z" fill="#ECECEC" stroke="#ECECEC" stroke-width="0.244725" stroke-miterlimit="2" stroke-linejoin="round"/>
<path fill-rule="evenodd" clip-rule="evenodd" d="M49.1895 56.9507L53.3544 52.2184L70.9347 61.8272L74.0891 66.0383C70.3181 69.7171 62.4115 68.9835 55.7002 64.1228C52.8315 62.0458 50.6111 59.5252 49.1895 56.9507Z" fill="#DCDCDC"/>
<path fill-rule="evenodd" clip-rule="evenodd" d="M64.9855 62.9782L55.9604 58.2077C55.9604 58.2077 55.3662 59.3319 54.6543 60.6787C54.0219 61.8752 53.8907 63.2738 54.2896 64.5675C54.6884 65.8611 55.5848 66.9437 56.7815 67.5763C56.7817 67.5763 56.7818 67.5764 56.7818 67.5764C57.9786 68.209 59.3779 68.3399 60.6715 67.9409C61.9651 67.5419 63.0469 66.6457 63.6794 65.4492C64.3913 64.1024 64.9855 62.9782 64.9855 62.9782Z" fill="#DCDCDC"/>
<path fill-rule="evenodd" clip-rule="evenodd" d="M75.045 54.9536L58.6108 46.2668L56.1396 50.9421C60.6184 55.5137 66.1537 58.3133 72.5738 59.6289L75.045 54.9536Z" fill="#BABABA"/>
<path fill-rule="evenodd" clip-rule="evenodd" d="M69.5459 54.9692L59.6377 49.7319C59.6377 49.7319 57.1266 54.4825 55.0739 58.366C54.3795 59.6796 54.2351 61.2158 54.6732 62.6354C55.1114 64.0549 56.0947 65.2438 57.4084 65.9382C57.4091 65.9386 57.4097 65.9389 57.4102 65.9392C58.7239 66.6336 60.2602 66.7765 61.6799 66.339C63.0997 65.9014 64.2877 64.9169 64.982 63.6033C67.0348 59.7198 69.5459 54.9692 69.5459 54.9692Z" fill="#DCDCDC"/>
<path fill-rule="evenodd" clip-rule="evenodd" d="M68.4045 54.365L59.6362 49.7302C59.6362 49.7302 56.7458 55.1984 54.5862 59.2842C53.3061 61.7059 54.2311 64.7055 56.6518 65.985C56.6526 65.9855 56.6534 65.9859 56.6541 65.9863C59.0748 67.2658 62.0744 66.3407 63.3545 63.9189C65.5141 59.8332 68.4045 54.365 68.4045 54.365Z" fill="#DCDCDC"/>
<path fill-rule="evenodd" clip-rule="evenodd" d="M101.172 47.3275C91.3682 57.3837 75.578 59.7553 63.0541 52.1696C50.5505 44.5962 45.3358 29.4755 49.6674 16.1445C49.6674 16.1445 53.8441 13.8868 78.1352 26.8667C93.0173 34.8172 99.2166 44.7205 101.172 47.3275Z" fill="white"/>
<path fill-rule="evenodd" clip-rule="evenodd" d="M49.4671 16.851C48.9256 24.8265 58.0366 36.9749 69.6065 43.3993C84.578 51.7106 96.4223 50.4004 100.938 47.5819C91.0943 57.0766 75.2994 59.5862 63.0549 52.17C50.7515 44.7174 45.5044 30.0214 49.4671 16.851Z" fill="#DCDCDC" stroke="#8E949C" stroke-width="0.978901" stroke-miterlimit="1.5" stroke-linecap="round" stroke-linejoin="round"/>
<path fill-rule="evenodd" clip-rule="evenodd" d="M81.3302 48.285C72.6265 45.7992 61.212 38.5352 58.3511 34.351C60.7581 34.3605 67.592 35.7294 72.1547 38.4845C76.2059 40.9307 80.527 45.8737 81.3302 48.285Z" fill="#ECECEC"/>
<path fill-rule="evenodd" clip-rule="evenodd" d="M82.427 19.3427C84.5859 20.5892 85.7331 22.6499 85.4001 23.2267C85.0672 23.8034 82.9295 23.4581 80.7706 22.2116C78.6116 20.9652 77.2436 19.2865 77.5766 18.7098C77.9096 18.133 80.268 18.0962 82.427 19.3427Z" fill="#DCDCDC"/>
<path fill-rule="evenodd" clip-rule="evenodd" d="M86.8861 16.3502C85.9266 15.0523 84.6111 14.2114 82.8086 13.9961L79.4723 18.7313C80.8701 20.0579 82.5181 20.9507 84.3404 21.5419L86.8861 16.3502Z" fill="#DCDCDC"/>
<path fill-rule="evenodd" clip-rule="evenodd" d="M86.8859 16.3497C85.9264 15.0518 84.6109 14.2109 82.8085 13.9956C83.548 15.8534 84.8727 16.698 86.8859 16.3497Z" fill="#DCDCDC"/>
<path fill-rule="evenodd" clip-rule="evenodd" d="M56.983 53.5597L57.3489 52.8653C56.7964 52.3726 56.2663 51.8649 55.7437 51.3348C55.572 51.1556 55.5346 50.8943 55.6466 50.6778L56.983 48.1542C48.5014 39.8069 45.388 27.2337 49.0614 15.9372C49.1286 15.7282 49.3227 15.5714 49.5467 15.5565C51.9434 15.3623 60.8208 16.8556 71.617 22.3433L77.3435 19.9616C77.2987 19.8869 77.2615 19.8197 77.2242 19.7525C76.918 19.2 76.9254 18.7221 77.0971 18.431C77.2464 18.1547 77.6571 17.8859 78.2918 17.8038C78.6128 17.759 79.0086 17.7515 79.4491 17.7963L82.3534 13.6749C82.4728 13.5032 82.6744 13.4137 82.876 13.4435C84.8471 13.675 86.288 14.5933 87.3408 16.0194C87.4602 16.1836 87.4827 16.4076 87.3931 16.5943L85.1981 21.0666C85.4893 21.4548 85.6984 21.8356 85.8328 22.1566C86.0717 22.7464 86.0417 23.2318 85.8849 23.508C85.7206 23.7992 85.3101 24.0456 84.6755 24.0605C84.5859 24.0605 84.4812 24.0605 84.3842 24.0531L84.8472 30.5337C92.5598 36.0588 97.1889 40.673 99.5557 43.6669C100.885 45.3468 101.512 46.5638 101.616 47.1686C101.654 47.3403 101.594 47.527 101.467 47.6539C94.4264 54.8738 84.4215 58.2336 74.6556 56.8822L73.0729 59.8911C72.9534 60.1076 72.707 60.2271 72.4606 60.1748C71.7662 60.033 71.0793 59.8762 70.3999 59.697L69.9072 60.6228L71.2063 61.332C71.2735 61.3694 71.3332 61.4217 71.3855 61.4889L78.8966 71.3817C78.4635 71.4339 78.0305 71.4787 77.5975 71.5235L70.5641 62.2578L67.279 60.466L65.4797 63.8631C64.7182 65.3116 63.4115 66.3942 61.8436 66.872C60.5594 67.2677 59.0064 67.3723 57.6998 66.9691C57.2518 66.8646 56.8188 66.7003 56.3932 66.4838C53.6979 65.0577 52.6676 61.7203 54.0937 59.025L56.4604 54.5527L53.4889 52.925L45.4029 62.3773C45.1192 62.1309 44.843 61.8846 44.5742 61.6307L52.9289 51.8574C53.1006 51.6558 53.3918 51.596 53.6232 51.723L56.983 53.5597ZM59.8053 50.618C60.7461 51.3422 61.7316 52.0216 62.7694 52.6488C64.285 53.5671 65.853 54.3436 67.4508 54.9782L62.8591 63.6615C61.7242 65.8043 59.0661 66.6257 56.9158 65.4908C54.773 64.3559 53.9517 61.6905 55.0866 59.5477L59.8053 50.618ZM68.5034 55.3815L68.6678 55.4338L64.4867 63.3405C64.2776 63.7362 64.0163 64.102 63.7176 64.4306C63.7624 64.3484 63.8072 64.2663 63.852 64.1842L68.5034 55.3815ZM58.648 59.7567C57.5355 59.7567 56.6247 60.6601 56.6247 61.7726C56.6247 62.8926 57.5355 63.7959 58.648 63.7959C59.7679 63.7959 60.6713 62.8926 60.6713 61.7726C60.6713 60.6601 59.7679 59.7567 58.648 59.7567ZM58.648 60.5033C59.3498 60.5033 59.9247 61.0708 59.9247 61.7726C59.9247 62.4744 59.3498 63.0493 58.648 63.0493C57.9462 63.0493 57.3713 62.4744 57.3713 61.7726C57.3713 61.0708 57.9462 60.5033 58.648 60.5033ZM69.168 59.3461C69.2054 59.361 69.2501 59.3759 69.2949 59.3834L68.9216 60.0852L68.8097 60.0254L69.168 59.3461ZM69.7429 55.7921C70.9823 56.1729 72.2292 56.479 73.491 56.703L72.2739 58.9951C71.0121 58.7188 69.7802 58.3829 68.5856 57.9872L69.7429 55.7921ZM59.0736 57.808L62.971 58.2411C63.1875 58.2635 63.3892 58.1066 63.4116 57.8901C63.434 57.6736 63.2772 57.472 63.0607 57.4496L59.1557 57.0166C58.9391 56.9942 58.7451 57.151 58.7227 57.3675C58.6929 57.584 58.8496 57.7856 59.0736 57.808ZM59.8427 56.4118L63.7475 56.8448C63.964 56.8672 64.1582 56.7104 64.1881 56.4939C64.2105 56.2774 64.0535 56.0833 63.837 56.0534L59.9322 55.6279C59.7157 55.6055 59.5217 55.7623 59.4918 55.9788C59.4694 56.1953 59.6262 56.3894 59.8427 56.4118ZM98.1743 49.1546C97.7189 49.2965 97.2261 49.4384 96.6811 49.5578C94.4487 50.0506 91.4846 50.3193 87.9232 49.9759C87.3931 50.4985 83.1597 54.4482 74.7154 55.7622C83.0627 56.9419 91.604 54.5527 98.1743 49.1546ZM60.6192 55.0231L64.524 55.4486C64.7406 55.4785 64.9346 55.3217 64.957 55.1052C64.9794 54.8812 64.8226 54.6871 64.6061 54.6647L60.7012 54.2316C60.4847 54.2092 60.2907 54.3661 60.2683 54.5826C60.2459 54.7991 60.4027 55.0007 60.6192 55.0231ZM57.1921 33.9309C56.4231 41.203 59.0961 47.6016 61.2016 50.2671C61.8885 50.7673 62.6052 51.2377 63.3443 51.6932C66.1815 53.4104 69.1903 54.605 72.244 55.3068C80.6958 54.59 85.4594 51.1257 86.9378 49.8639C81.7935 49.2143 75.4994 47.2955 68.4513 43.0249C63.7177 40.1578 60.0218 37.0219 57.1921 33.9309ZM57.8268 48.953C58.1777 49.2741 58.5436 49.5951 58.9169 49.9012L57.8864 51.8425C57.5281 51.5214 57.1772 51.1854 56.8263 50.842L57.8268 48.953ZM86.1687 49.0052C90.4543 49.6473 93.9709 49.3935 96.5168 48.8261C97.9578 48.505 99.0779 48.0944 99.832 47.6986C100.041 47.4971 100.243 47.303 100.444 47.1014C100.235 46.5265 99.6602 45.6006 98.6747 44.3612C97.5174 42.8904 95.8002 41.0313 93.4334 38.8586C92.5225 40.113 90.3871 42.6216 85.8849 45.0407L86.1687 49.0052ZM85.1682 45.414C83.6973 46.1606 81.9951 46.8849 80.0315 47.5568C81.9279 48.1616 83.7272 48.5872 85.4146 48.8784L85.1682 45.414ZM49.2332 19.6853C47.1202 30.3322 50.9055 41.6137 59.3722 48.8261C57.4683 45.3841 55.6766 39.5829 56.5277 33.1843C52.8618 28.9882 50.7488 24.9042 49.7483 21.7012C49.5243 20.9844 49.3526 20.305 49.2332 19.6853ZM71.139 23.3512L62.5379 26.9201C62.1422 30.2351 62.1199 34.1698 63.0009 38.2762C63.0084 38.2912 63.0084 38.3136 63.0084 38.3285C64.748 39.7173 66.6818 41.0835 68.8396 42.3827C72.3935 44.5404 75.7533 46.086 78.8667 47.1686C78.8891 47.1536 78.9189 47.1388 78.9487 47.1313C81.3753 46.3548 83.4061 45.4887 85.1084 44.6077L84.1603 31.4223C82.5924 30.2949 80.89 29.1376 79.0533 27.943L76.6866 32.5497C76.5895 32.7363 76.3654 32.811 76.1788 32.7139C75.9996 32.6243 75.9249 32.3928 76.022 32.2136L78.4261 27.5324L78.359 27.495C75.8952 25.9047 73.4685 24.5309 71.139 23.3512ZM84.9516 31.9897L85.8328 44.2194C90.0512 41.89 92.0447 39.5157 92.8809 38.3584C90.7455 36.4396 88.1248 34.2968 84.9516 31.9897ZM61.7541 27.2486L54.9747 30.0708C56.789 32.5272 59.1259 35.0957 62.105 37.5894C61.4106 33.8637 61.4181 30.3098 61.7541 27.2486ZM79.5685 26.9425C81.1663 27.9803 82.6595 28.9882 84.0557 29.9738L83.6226 23.9411C82.9954 23.8067 82.2564 23.5678 81.4874 23.2094L79.5685 26.9425ZM61.8585 26.3975C62.2094 23.7246 62.7918 21.4772 63.3294 19.8943C56.9532 17.4827 52.0256 16.6465 50.0022 16.654C49.9201 16.9377 49.8379 17.2214 49.7558 17.5051C49.7483 18.5355 49.9648 19.8943 50.4575 21.4772C51.1743 23.7768 52.4809 26.5244 54.5266 29.4437L61.8585 26.3975ZM72.4905 22.7912C74.581 23.8813 76.7462 25.1207 78.9412 26.5318L80.8153 22.8808C80.7108 22.8211 80.5988 22.7614 80.4943 22.6942C79.3519 22.0371 78.4261 21.2607 77.8213 20.5738L72.4905 22.7912ZM70.2581 22.9107C68.0779 21.8356 65.9873 20.9247 64.0311 20.1632C63.5309 21.6266 63.0009 23.6573 62.6575 26.0689L70.2581 22.9107ZM78.934 18.8864C78.8966 18.8864 78.8517 18.8864 78.8144 18.8864C78.5605 18.8864 78.3441 18.9162 78.1724 18.9685C78.15 18.976 78.1275 18.9835 78.1051 18.9909C78.1126 19.0208 78.1275 19.0506 78.135 19.073C78.1873 19.2074 78.2768 19.3493 78.3887 19.5061C78.8815 20.1856 79.8373 21.0292 81.0543 21.7236C82.2638 22.4254 83.4734 22.8286 84.3096 22.9182C84.4963 22.9406 84.6679 22.9481 84.8098 22.9257C84.8322 22.9257 84.8621 22.9182 84.892 22.9107C84.892 22.8883 84.8845 22.8659 84.8845 22.8435C84.8397 22.6718 84.7575 22.4627 84.6306 22.2387C84.6008 22.1865 84.5635 22.1267 84.5336 22.067C84.4142 22.1118 84.2946 22.1118 84.1676 22.0745C82.2637 21.4548 80.5466 20.5216 79.0907 19.1328C79.0161 19.0656 78.9638 18.976 78.934 18.8864ZM82.8463 14.9218C82.1668 15.8775 80.2181 18.6475 80.2181 18.6475C81.353 19.633 82.6446 20.3423 84.0557 20.85L86.0417 16.8034C85.3324 16.8034 84.7127 16.6391 84.1826 16.318C83.645 16.0045 83.2046 15.5415 82.8463 14.9218ZM86.1612 16.0493C85.5415 16.0717 85.0113 15.9447 84.5634 15.6759C84.1154 15.4146 83.7495 15.0114 83.4509 14.4887C84.5634 14.7426 85.4519 15.2877 86.1612 16.0493Z" fill="#8E949C"/>
<path fill-rule="evenodd" clip-rule="evenodd" d="M71.3534 2.9071L68.0972 11.749L70.2687 12.4012L69.9174 17.0393L73.5599 9.78411L71.2802 8.64362L71.3534 2.9071Z" fill="#FF7900"/>
<path fill-rule="evenodd" clip-rule="evenodd" d="M105.16 23.2065L95.7367 26.2107L96.5967 28.4299L92.5287 31.1295L100.887 29.4683L100.361 26.8447L105.16 23.2065Z" fill="#FF7900"/>
</g>
<defs>
<clipPath id="clip0_4499_16921">
<rect width="150" height="74" fill="white"/>
</clipPath>
</defs>
</svg>
