<svg width="150" height="74" viewBox="0 0 150 74" fill="none" xmlns="http://www.w3.org/2000/svg">
<g clip-path="url(#clip0_4447_19038)">
<path fill-rule="evenodd" clip-rule="evenodd" d="M91.6655 12.5141C87.9889 13.8702 92.4124 20.2421 96.764 24.3983C100.74 28.1975 106.565 31.0473 108.966 26.8343C112.165 21.2199 108.414 16.8053 105.689 14.7317C99.9575 10.3703 93.5802 11.8072 91.6655 12.5141ZM41.4575 59.2764C36.7348 48.2564 35.9399 18.9749 62.3361 10.8357C88.7322 2.69741 75.4227 25.4711 99.5809 36.3038C111.878 41.8178 118.531 63.1458 97.5916 73.0682C76.65 82.9906 47.1385 72.5389 41.4575 59.2764Z" fill="#F6F7F9"/>
<path fill-rule="evenodd" clip-rule="evenodd" d="M46.6769 15.9833L47.9384 19.4412C47.9501 19.473 47.9684 19.502 47.9926 19.5261C48.0165 19.5501 48.0455 19.5687 48.0773 19.5801L51.5354 20.8416L48.0773 22.1031C48.0455 22.1148 48.0165 22.1334 47.9926 22.1573C47.9684 22.1812 47.9501 22.2104 47.9384 22.2423L46.6769 25.7001L45.4154 22.2423C45.4037 22.2104 45.3853 22.1812 45.3612 22.1573C45.3373 22.1334 45.3083 22.1148 45.2764 22.1031L41.8184 20.8416L45.2764 19.5801C45.3083 19.5687 45.3373 19.5501 45.3612 19.5261C45.3853 19.502 45.4037 19.473 45.4154 19.4412L46.6769 15.9833Z" fill="#FF7900"/>
<path fill-rule="evenodd" clip-rule="evenodd" d="M91.0019 64.8022L91.8278 67.0661C91.8355 67.087 91.8475 67.106 91.8633 67.1218C91.879 67.1375 91.8979 67.1496 91.9188 67.1571L94.1829 67.9831L91.9188 68.809C91.8979 68.8167 91.879 68.8289 91.8633 68.8445C91.8475 68.8602 91.8355 68.8793 91.8278 68.9002L91.0019 71.1641L90.1759 68.9002C90.1682 68.8793 90.1562 68.8602 90.1404 68.8445C90.1248 68.8289 90.1058 68.8167 90.0849 68.809L87.8208 67.9831L90.0849 67.1571C90.1058 67.1496 90.1248 67.1375 90.1404 67.1218C90.1562 67.106 90.1682 67.087 90.1759 67.0661L91.0019 64.8022Z" fill="#FF7900"/>
<path fill-rule="evenodd" clip-rule="evenodd" d="M52.2727 24.4492L52.7607 26.4016C52.7687 26.434 52.7854 26.4635 52.8091 26.4872C52.8326 26.5107 52.8621 26.5274 52.8945 26.5356L54.8471 27.0235L52.8945 27.5115C52.8621 27.5196 52.8326 27.5364 52.8091 27.5599C52.7854 27.5835 52.7687 27.6131 52.7607 27.6455L52.2727 29.5979L51.7847 27.6455C51.7766 27.6131 51.7599 27.5835 51.7362 27.5599C51.7127 27.5364 51.6832 27.5196 51.6508 27.5115L49.6982 27.0235L51.6508 26.5356C51.6832 26.5274 51.7127 26.5107 51.7362 26.4872C51.7599 26.4635 51.7766 26.434 51.7847 26.4016L52.2727 24.4492Z" fill="#FF7900"/>
<path d="M86.0954 72.5704C86.6149 72.5704 87.036 72.1493 87.036 71.6298C87.036 71.1103 86.6149 70.6892 86.0954 70.6892C85.5759 70.6892 85.1548 71.1103 85.1548 71.6298C85.1548 72.1493 85.5759 72.5704 86.0954 72.5704Z" fill="#FF7900"/>
<path fill-rule="evenodd" clip-rule="evenodd" d="M67.1618 58.0999C79.727 58.0999 88.1197 57.3146 88.1197 57.3146C84.6534 64.3591 76.5699 69.3038 67.1618 69.3038C57.4502 69.3038 49.1491 64.0349 45.8813 56.6259C45.8813 56.6259 54.5966 58.0999 67.1618 58.0999Z" fill="#C9C9C9"/>
<path fill-rule="evenodd" clip-rule="evenodd" d="M60.425 68.2003C62.5222 66.4304 66.0762 65.2669 70.1022 65.2675C73.0555 65.2669 75.7547 65.8926 77.8109 66.9249C74.7441 68.3907 71.2179 69.2257 67.4681 69.2254C65.0012 69.2258 62.6306 68.8638 60.425 68.2003Z" fill="#D3D3D3"/>
<path fill-rule="evenodd" clip-rule="evenodd" d="M67.0021 24.7978C75.5751 24.7978 82.5345 33.9601 82.5345 45.2456C82.5345 46.1731 75.5751 48.0659 67.0021 48.0659C58.4292 48.0659 51.4697 46.9031 51.4697 45.2456C51.4697 33.9601 58.4292 24.7978 67.0021 24.7978Z" fill="#DCDCDC"/>
<path fill-rule="evenodd" clip-rule="evenodd" d="M61.7288 40.6225C60.6288 39.0583 60.1695 37.2175 60.7744 33.4739C61.6682 36.2692 63.7967 33.6896 62.8645 32.9779C61.9322 32.2658 61.4592 29.7154 63.3237 28.1123C64.0084 30.804 65.2762 30.0736 68.6642 30.7415C72.0521 31.4098 75.2531 34.1823 75.2531 37.7745C75.2531 42.1523 72.0632 43.4021 68.1335 43.4021C65.3175 43.4021 62.8838 42.2675 61.7288 40.6225Z" fill="#C9C9C9"/>
<path d="M58.5855 31.2814C59.0595 32.0445 60.4191 32.0572 61.6222 31.3099C62.8253 30.5625 63.4163 29.3381 62.9423 28.575C62.4683 27.812 61.1087 27.7992 59.9056 28.5466C58.7025 29.2939 58.1115 30.5183 58.5855 31.2814Z" fill="white"/>
<path d="M56.8309 33.2766C57.118 33.6773 57.6656 33.7767 58.0538 33.4984C58.442 33.2202 58.5239 32.6698 58.2368 32.2691C57.9496 31.8684 57.4021 31.7691 57.0138 32.0473C56.6256 32.3255 56.5437 32.8759 56.8309 33.2766Z" fill="white"/>
<path fill-rule="evenodd" clip-rule="evenodd" d="M34.7712 61.5754C34.5215 61.5343 34.3041 61.3815 34.1836 61.1603C34.0602 60.9393 34.0455 60.6746 34.1425 60.4417C35.4205 57.4756 37.2214 54.728 39.4454 52.2834C38.7109 51.5093 37.806 47.9074 38.373 47.3671C38.9753 46.7963 41.8515 48.1939 42.9591 48.9592C45.518 46.8727 48.4383 45.1146 51.6318 43.7641C53.5972 43.2144 61.4884 42.4614 67 42.4614C72.5114 42.4614 77.4236 42.6254 82.3681 43.7641C90.4003 47.1621 96.7109 53.1386 99.8545 60.4426C99.9514 60.6749 99.9367 60.9391 99.8163 61.1591C99.6929 61.3794 99.4755 61.5319 99.2287 61.5728C89.7775 63.1122 78.7604 63.9945 67 63.9945C55.2395 63.9945 44.2224 63.1122 34.7712 61.5754Z" fill="white"/>
<path fill-rule="evenodd" clip-rule="evenodd" d="M77.0574 46.1442C76.8736 45.8111 76.5293 45.5972 76.1507 45.5799C74.3018 45.495 68.7848 45.2411 66.7986 45.1497C66.634 45.1421 66.476 45.2156 66.3768 45.3463C66.2776 45.477 66.249 45.6483 66.2976 45.8046C66.9193 47.7075 68.6503 53.0277 69.2877 54.9817C69.4308 55.418 69.8358 55.7133 70.2959 55.7133C72.4811 55.7133 78.7271 55.7133 81.2567 55.7133C81.4828 55.7133 81.6917 55.594 81.8075 55.3992C81.9233 55.2047 81.9257 54.9638 81.8169 54.7661C80.6669 52.6858 77.9563 47.7745 77.0574 46.1442Z" fill="#DCDCDC"/>
<path fill-rule="evenodd" clip-rule="evenodd" d="M61.2304 41.1807C61.1984 41.032 61.2668 40.8789 61.4003 40.8049C61.5337 40.7309 61.6993 40.7538 61.8083 40.861C63.0677 42.1079 65.3788 44.3924 66.0138 45.022C66.1231 45.1301 66.2052 45.2632 66.2525 45.4098C66.6316 46.604 68.4337 52.2777 69.1915 54.6583C69.2508 54.8469 69.1963 55.0531 69.0495 55.1859C68.9028 55.319 68.6912 55.354 68.5082 55.2758C67.3847 54.7923 65.6064 54.0272 64.6467 53.6139C64.2273 53.4332 63.9176 53.0624 63.8161 52.6161C63.3265 50.4409 61.835 43.8542 61.2304 41.1807Z" fill="#ECECEC"/>
<path fill-rule="evenodd" clip-rule="evenodd" d="M77.194 46.3892C76.941 45.9347 77.0446 45.3662 77.4402 45.0286C78.3241 44.2718 79.8462 42.9703 80.5713 42.3498C80.6766 42.2596 80.815 42.217 80.9533 42.2326C81.0889 42.2482 81.2158 42.3205 81.2969 42.4318C82.3856 43.8966 85.9549 48.7045 87.4213 50.6782C87.5879 50.905 87.6602 51.1897 87.6172 51.4691C87.5742 51.7485 87.4225 51.9994 87.1955 52.1659C86.0154 53.0265 83.9381 54.5465 82.9259 55.286C82.7769 55.3941 82.5887 55.4335 82.4108 55.3938C82.2302 55.3542 82.0778 55.2396 81.9897 55.0789C81.0114 53.3091 78.2594 48.3238 77.194 46.3892Z" fill="#ECECEC"/>
<path fill-rule="evenodd" clip-rule="evenodd" d="M35.6293 57.4488C37.6789 57.6504 40.3167 58.0704 42.3159 58.1124C42.4503 58.1124 42.5762 58.0535 42.6602 57.9527L45.0122 54.9288L60.8043 55.4664L63.2906 59.2211C63.3578 59.3387 63.4837 59.4059 63.6181 59.4143C71.7409 59.6999 80.7206 59.154 88.6922 58.8348C88.8266 58.8264 88.9525 58.7592 89.0281 58.6416L91.4727 54.9204H96.227C96.4622 54.9204 96.647 54.7356 96.647 54.5004C96.647 54.2736 96.4622 54.0804 96.227 54.0804H91.2459C91.1115 54.0804 90.9769 54.1559 90.9013 54.2735L88.4402 58.0032C80.6114 58.3224 71.8334 58.8515 63.8702 58.5827L61.3838 54.828C61.3082 54.7104 61.1821 54.6432 61.0477 54.6348L44.8274 54.0804C44.693 54.0804 44.5585 54.1391 44.4745 54.2399L42.1227 57.264C40.3503 57.2136 38.1325 56.8859 36.2845 56.6759C36.0913 56.6507 35.4025 57.4236 35.6293 57.4488ZM56.327 56.6507L57.839 59.2548C57.9566 59.4564 58.2086 59.5235 58.4102 59.4059C58.6118 59.2883 58.6789 59.0364 58.5613 58.8348L57.0493 56.2307C56.9317 56.0291 56.6797 55.962 56.4781 56.0796C56.2765 56.1888 56.2094 56.4491 56.327 56.6507ZM57.8977 56.6507L59.4097 59.2548C59.5273 59.4564 59.7795 59.5235 59.9811 59.4059C60.1827 59.2883 60.2498 59.0364 60.1322 58.8348L58.6202 56.2307C58.5026 56.0291 58.2506 55.962 58.049 56.0796C57.8474 56.1888 57.7801 56.4491 57.8977 56.6507ZM59.4686 56.6507L60.9806 59.2548C61.0982 59.4564 61.3502 59.5235 61.5518 59.4059C61.7534 59.2883 61.8205 59.0364 61.7029 58.8348L60.1911 56.2307C60.0819 56.0291 59.8213 55.962 59.6197 56.0796C59.4181 56.1888 59.351 56.4491 59.4686 56.6507ZM54.7561 56.6507L56.2681 59.2548C56.3857 59.4564 56.6377 59.5235 56.8393 59.4059C57.0409 59.2883 57.1082 59.0364 56.9906 58.8348L55.4786 56.2307C55.361 56.0291 55.109 55.962 54.9074 56.0796C54.7058 56.1888 54.6385 56.4491 54.7561 56.6507ZM95.0511 55.6175L93.539 58.2216C93.4214 58.4232 93.4886 58.6751 93.6902 58.7927C93.8918 58.9103 94.1521 58.8432 94.2613 58.6416L95.7734 56.0375C95.891 55.8359 95.8238 55.5756 95.6222 55.4664C95.4206 55.3488 95.1687 55.4159 95.0511 55.6175ZM91.9011 55.6175L90.389 58.2216C90.2714 58.4232 90.3386 58.6751 90.5402 58.7927C90.7418 58.9103 90.9937 58.8432 91.1113 58.6416L92.6234 56.0375C92.741 55.8359 92.6738 55.5756 92.4722 55.4664C92.2706 55.3488 92.0187 55.4159 91.9011 55.6175ZM93.4718 55.6175L91.9597 58.2216C91.8421 58.4232 91.9177 58.6751 92.1193 58.7927C92.3125 58.9103 92.573 58.8432 92.6906 58.6416L94.2027 56.0375C94.3203 55.8359 94.2529 55.5756 94.0513 55.4664C93.8497 55.3488 93.5894 55.4159 93.4718 55.6175ZM96.6218 55.5083L95.1181 58.1124C95.0005 58.314 95.0677 58.5743 95.2693 58.6919C95.4709 58.8095 95.723 58.734 95.8406 58.5324L97.3527 55.9367C97.4703 55.7351 97.4029 55.4748 97.2013 55.3572C96.9997 55.2396 96.7394 55.3067 96.6218 55.5083Z" fill="#BABABA"/>
<path fill-rule="evenodd" clip-rule="evenodd" d="M50.7074 64.0003C45.0122 63.5887 39.6277 62.9587 34.6801 62.1523C34.2517 62.0851 33.8821 61.8247 33.6721 61.4467C33.4621 61.0687 33.4369 60.6152 33.6049 60.212C34.8397 57.3476 36.5449 54.6847 38.6449 52.2907C38.0401 51.0307 37.5612 49.3927 37.5444 48.3595C37.5276 47.6035 37.8048 47.1079 38.1828 46.9231C38.5608 46.7383 39.2749 46.7215 40.1737 46.9567C40.9969 47.1751 41.988 47.6035 42.9876 48.1915C45.39 46.2679 47.9942 44.7139 50.9426 43.4203C51.5558 34.1551 56.7804 26.6287 63.5592 24.6967L63.8533 25.8223C57.6121 27.5947 52.8577 34.5331 52.1521 43.0423C53.8741 42.7063 57.3433 42.3283 60.9385 42.0931L60.7369 41.2195C60.6613 40.8919 60.8209 40.5475 61.1149 40.3879C61.4089 40.2199 61.7785 40.2703 62.0221 40.5139L63.4837 41.9587C64.7017 41.8999 65.9029 41.8747 67.0033 41.8747C68.0617 41.8747 69.0948 41.8831 70.1112 41.8999L70.4221 43.0759C69.3049 43.0591 68.1625 43.0507 67.0033 43.0507C66.2473 43.0507 65.4492 43.0676 64.626 43.0928L66.2305 44.672C66.2809 44.7224 66.3229 44.7727 66.3649 44.8315C66.4993 44.7559 66.6589 44.7223 66.8185 44.7307L71.2621 44.9323L71.4217 45.7807L66.7765 45.5707C66.7513 45.5707 66.726 45.5791 66.7092 45.6043C66.7008 45.6127 66.701 45.6211 66.701 45.6295C67.2638 47.3683 68.9017 52.3496 69.5905 54.5336C69.5989 54.5672 69.6158 54.6092 69.6158 54.6428L69.6912 54.8528C69.7752 55.1132 70.0188 55.2979 70.296 55.2979H81.258C81.3336 55.2979 81.4092 55.2559 81.4428 55.1887C81.4848 55.1215 81.4848 55.0375 81.4512 54.9703L76.6885 46.3436C76.5793 46.142 76.361 46.0075 76.1342 45.9991L74.2021 45.9151C74.1601 45.6547 74.0845 45.3523 74.0089 45.0583L76.1676 45.1591C76.3692 45.1675 76.5625 45.218 76.7389 45.302C76.8313 45.0752 76.9742 44.8735 77.1674 44.7139L78.4189 43.6387C76.7893 43.4119 75.1512 43.2775 73.4712 43.1851L73.0512 41.9923C75.2856 42.0931 77.4529 42.2863 79.6033 42.6307L80.3005 42.0343C80.4937 41.8664 80.7456 41.7907 80.9976 41.8159C81.2496 41.8411 81.4848 41.9755 81.636 42.1855L81.7958 42.3955C80.7542 32.8111 74.5633 25.3855 67.0033 25.3855C66.9277 25.3855 66.8521 25.3855 66.7849 25.3855L66.4153 24.2263C66.6085 24.2179 66.8017 24.2095 67.0033 24.2095C75.3781 24.2095 82.3502 32.6347 83.0642 43.4203C91.019 46.9147 97.2601 52.9124 100.393 60.212H100.402C100.561 60.6152 100.544 61.0687 100.334 61.4467C100.124 61.8247 99.7549 62.0851 99.3265 62.1523C94.4713 62.9419 89.2045 63.5635 83.6437 63.9751C79.4185 67.6291 73.5972 69.8887 67.1628 69.8887C60.7452 69.8887 54.9326 67.6375 50.7074 64.0003ZM81.5858 64.1179C77.705 66.9907 72.6648 68.7128 67.1628 68.7128C61.6776 68.7128 56.6461 66.9991 52.7653 64.1431C57.3433 64.4287 62.1061 64.5799 67.0033 64.5799C72.0181 64.5799 76.907 64.4203 81.5858 64.1179ZM41.249 51.2659C38.4349 53.9959 36.1921 57.1795 34.6885 60.6739C34.6549 60.7411 34.6633 60.8167 34.6969 60.8755C34.7305 60.9427 34.7977 60.9847 34.8649 60.9931C44.2897 62.5303 55.2769 63.4039 67.0033 63.4039C78.7297 63.4039 89.7085 62.5303 99.1333 60.9931C99.2089 60.9847 99.2676 60.9343 99.3012 60.8755C99.3348 60.8083 99.3432 60.7411 99.318 60.6739C96.4452 53.9959 90.8676 48.4603 83.7528 45.0331L87.7596 50.4259C87.9948 50.7451 88.0873 51.1399 88.0285 51.5347C87.9697 51.9211 87.7597 52.2739 87.4405 52.5091L83.1733 55.6255C82.9297 55.8019 82.6189 55.8692 82.3165 55.802C82.2409 55.7852 82.1652 55.7599 82.0896 55.7263C81.8964 55.9783 81.5857 56.1379 81.258 56.1379H70.296C69.8508 56.1379 69.4477 55.9363 69.1705 55.6171C68.9185 55.7599 68.6162 55.7767 68.3474 55.6591C67.2218 55.1803 65.4409 54.4159 64.4833 54.0043C63.9373 53.7691 63.5424 53.2903 63.4081 52.7107L61.2158 43.2523C57.125 43.5043 53.1684 43.9579 51.8244 44.3275C48.918 45.5539 46.373 47.0407 44.021 48.8803C44.777 49.4347 45.4994 50.0899 46.0958 50.8375C46.247 51.0391 46.2636 51.3079 46.1292 51.5179C45.9948 51.7363 45.7346 51.8371 45.491 51.7783C44.0798 51.4255 42.4081 51.2491 41.249 51.2659ZM77.5621 46.1839C77.4025 45.9067 77.4697 45.5539 77.7133 45.3523L80.8465 42.6728C80.8633 42.656 80.8801 42.6475 80.9053 42.6475C80.9305 42.6559 80.9474 42.6644 80.9642 42.6812C82.0478 44.1512 85.6176 48.9559 87.0792 50.9299C87.1884 51.0643 87.2305 51.2407 87.2053 51.4087C87.1717 51.5767 87.0877 51.7279 86.9449 51.8287L82.6776 54.9451C82.6272 54.9871 82.56 54.9955 82.5012 54.9871C82.4424 54.9703 82.3837 54.9283 82.3585 54.8779L77.5621 46.1839ZM65.861 45.7639C65.8694 45.8227 65.8776 45.8816 65.9028 45.932L68.7926 54.8191C68.7926 54.8443 68.7842 54.8611 68.7674 54.8779C68.7422 54.8947 68.7085 54.9031 68.6749 54.8947L64.811 53.2315C64.517 53.1055 64.2984 52.8367 64.2312 52.5259L61.6189 41.2951L65.6342 45.2683C65.7014 45.3271 65.7433 45.4027 65.7685 45.4867L65.861 45.7639ZM40.7785 50.1403C40.8457 50.1151 40.9129 50.0983 40.9885 50.0983C41.7697 50.0647 42.8281 50.1319 43.9117 50.2831C42.5845 49.1659 41.0304 48.4099 39.8712 48.0991C39.5604 48.0151 39.2833 47.9647 39.0481 47.9479C38.9305 47.9479 38.8382 47.9395 38.7626 47.9563C38.7458 48.0067 38.7289 48.0824 38.7205 48.1412C38.7121 48.3176 38.7206 48.5276 38.7542 48.7628C38.855 49.5272 39.1489 50.4931 39.5101 51.3499C39.8629 50.9803 40.2325 50.6191 40.6021 50.2579C40.6525 50.2075 40.7113 50.1655 40.7785 50.1403Z" fill="#8E949C"/>
<path d="M85.5912 5.87917C84.5233 6.4014 83.3305 7.11795 82.5914 7.96983C79.5925 5.51569 67.8501 2.967 65.4125 15.2412C63.458 25.0811 74.7745 37.5904 75.5925 55.5084C74.8768 55.5535 73.2746 55.4859 73.2746 55.4859C72.7298 40.4878 62.0943 28.5233 62.0266 15.7417C61.9503 1.46016 77.3995 -2.35854 85.5912 5.87917Z" fill="#ECECEC"/>
<path d="M85.5912 5.87917C84.5233 6.4014 83.864 6.60613 83.1258 7.45887C78.1828 3.06155 67.3617 2.24004 64.9241 14.5142C62.9696 24.3533 74.1611 36.4999 75.4901 53.8151C74.8334 55.282 73.9781 54.0137 73.9902 53.5765C73.4455 38.5793 62.0943 28.5233 62.0266 15.7417C61.9503 1.46016 77.3995 -2.35854 85.5912 5.87917Z" fill="white"/>
<path fill-rule="evenodd" clip-rule="evenodd" d="M92.0285 8.66193C93.5779 11.3455 92.6004 14.8107 89.8455 16.4012C87.091 17.9925 83.6009 17.1056 82.0516 14.422C80.5027 11.7392 81.4801 8.27402 84.2351 6.68349C86.9907 5.09252 90.4796 5.97913 92.0285 8.66193Z" fill="#ECECEC"/>
<path fill-rule="evenodd" clip-rule="evenodd" d="M91.6392 7.98754C92.9734 10.2985 91.8219 13.4605 89.0662 15.0514C86.3109 16.6412 82.9964 16.0586 81.6622 13.7476C80.3281 11.4367 81.4803 8.27427 84.2352 6.68374C86.9909 5.09277 90.305 5.67662 91.6392 7.98754Z" fill="white"/>
<path fill-rule="evenodd" clip-rule="evenodd" d="M81.5762 13.3019C81.5762 13.3019 73.505 23.5652 84.9099 26.1174C80.5222 21.609 84.2984 17.2065 85.3645 15.8177C84.2498 15.6286 82.4827 15.1072 81.5762 13.3019Z" fill="white"/>
<path fill-rule="evenodd" clip-rule="evenodd" d="M91.2988 7.4419C91.2988 7.4419 104.084 4.79518 101.283 16.1402C99.2043 10.2031 93.5795 11.6189 91.861 11.9546C92.1889 10.8728 92.5098 9.05891 91.2988 7.4419Z" fill="white"/>
<path fill-rule="evenodd" clip-rule="evenodd" d="M80.9918 13.0962C80.6222 13.5918 79.4799 15.2298 78.7827 17.2038C78.2031 18.867 77.9427 20.7486 78.6063 22.4454C79.3203 24.243 81.0842 25.8643 84.7718 26.6959C85.0322 26.7463 85.2926 26.6287 85.4186 26.4019C85.5446 26.1751 85.5027 25.8979 85.3263 25.7131C82.1847 22.4874 83.6043 19.3207 84.8727 17.4559C86.5779 18.0775 88.5602 17.9598 90.2739 16.9602C92.0799 15.9186 93.1971 14.1462 93.4491 12.2646C95.6751 11.9454 99.2114 12.0294 100.723 16.3386C100.807 16.5822 101.043 16.7419 101.303 16.7251C101.564 16.7167 101.782 16.5318 101.849 16.2798C102.756 12.609 102.084 10.3074 100.791 8.86264C99.5811 7.51863 97.7752 6.90537 96.028 6.69536C93.9784 6.43496 92.0295 6.72059 91.3911 6.82979C89.9379 5.57819 87.9554 5.06577 86.0318 5.44377C81.689 0.874147 72.1298 -0.881494 66.3085 4.36013C63.7969 6.61134 61.9658 10.173 61.571 15.3894C61.235 19.791 62.7974 24.6294 64.8806 29.8794C67.9298 37.5655 72.0878 46.1587 72.6842 55.6004L73.8517 55.5248C73.7845 54.4328 73.667 53.3492 73.5158 52.2824C73.7426 52.3244 73.9863 52.3412 74.2299 52.316C74.4147 52.2908 74.6078 52.2488 74.7842 52.19C74.9186 53.3408 75.0195 54.5084 75.0699 55.718L76.2458 55.6676C75.9014 47.1416 73.1378 40.0771 70.5338 33.6931C67.9886 27.4603 65.5777 21.8827 65.8801 16.179C66.3589 7.2918 75.8678 3.75533 81.8738 8.24935C80.9414 9.67736 80.6054 11.433 80.9918 13.0962ZM73.7426 46.5536C73.3478 46.7636 72.8773 46.8728 72.3901 46.8308C72.7765 48.3092 73.1127 49.8128 73.3731 51.3416C73.5915 51.476 73.877 51.5012 74.1374 51.476C74.3222 51.4592 74.5071 51.4088 74.6667 51.3416C74.4399 49.6868 74.1206 48.0992 73.7426 46.5536ZM71.9283 40.5644C71.5335 40.8584 71.063 41.0012 70.5506 40.9844C71.1302 42.5972 71.6763 44.252 72.1467 45.932C72.6507 46.0832 73.1714 45.9656 73.5242 45.6968C73.0538 43.9244 72.5163 42.2192 71.9283 40.5644ZM69.9374 35.3563C69.5678 35.6503 69.0975 35.8268 68.5767 35.8436C69.1395 37.2296 69.6939 38.6491 70.2231 40.0855C70.7523 40.2199 71.2646 40.0771 71.6258 39.6991C71.0798 38.2123 70.5086 36.7675 69.9374 35.3563ZM67.9383 30.4339C67.5183 30.7447 67.0141 30.8623 66.5353 30.8455C67.0813 32.1979 67.6526 33.5755 68.2322 34.9867C68.7866 35.0539 69.2739 34.8775 69.5931 34.5079L69.4417 34.1383C68.9293 32.8783 68.4171 31.6435 67.9383 30.4339ZM65.8383 24.4699C65.4267 24.7639 64.889 24.9822 64.3178 24.957C64.805 26.4186 65.3678 27.9139 65.9726 29.4511C66.0398 29.6191 66.1154 29.7955 66.1826 29.9635C66.6362 30.0727 67.2158 30.0223 67.6106 29.5855C66.9386 27.8467 66.3255 26.1499 65.8383 24.4699ZM81.5463 14.3562C82.3359 15.3894 83.4028 15.9102 84.3352 16.1874C83.0416 17.9347 80.9498 21.3619 83.2934 25.0411C81.2774 24.3019 80.1855 23.235 79.6983 22.0086C79.1355 20.5806 79.4043 18.993 79.8915 17.5986C80.3703 16.2462 81.0759 15.0618 81.5463 14.3562ZM64.7799 19.2114C64.2171 19.5138 63.5535 19.6062 62.9151 19.3878C63.1419 20.8914 63.5281 22.4539 64.0237 24.0583C64.6537 24.2599 65.2335 23.949 65.6031 23.5962C65.2083 22.1262 64.9227 20.673 64.7799 19.2114ZM63.1921 12.3654C62.9821 13.323 62.8225 14.3563 62.7385 15.4735C62.6713 16.4143 62.6882 17.3802 62.789 18.363C63.4274 18.825 64.1834 18.6906 64.7126 18.2454C64.6706 17.5398 64.6706 16.8342 64.7042 16.1202C64.763 15.0198 64.9477 13.9951 65.2333 13.0542C64.7041 13.1131 64.2422 13.0459 63.8642 12.8611C63.6122 12.7435 63.3853 12.5754 63.1921 12.3654ZM92.3739 12.4494H92.3655C91.9539 13.8606 90.9964 15.1458 89.5852 15.9606C88.6024 16.5234 87.5354 16.7922 86.4938 16.7838C87.5858 16.893 88.7284 16.6746 89.7616 16.0782C91.1728 15.2634 92.0883 13.911 92.3739 12.4494ZM91.4248 12.3486C90.9292 13.3734 90.0974 14.289 88.9886 14.9358C88.0142 15.4987 86.9559 15.7674 85.9479 15.759C85.9563 15.8682 85.9395 15.969 85.8891 16.0698C86.9979 16.2126 88.1823 15.9943 89.2491 15.3811C90.4167 14.7007 91.2484 13.659 91.6432 12.5082C91.5592 12.4746 91.4836 12.4242 91.4248 12.3486ZM88.2832 6.48536C88.4932 7.33377 88.5266 8.16536 88.3838 8.88776L88.3334 9.15662L88.0563 9.21538C87.4767 9.34138 86.8971 9.55139 86.3511 9.8622C85.7631 10.2066 85.2591 10.635 84.8475 11.1222L84.6627 11.3322L84.3938 11.2482C83.6378 10.9962 82.8819 10.509 82.2099 9.82856C82.0503 10.2402 81.941 10.677 81.8906 11.1222C81.8906 11.769 82.0419 12.4158 82.3863 13.0038C83.5287 14.9946 86.309 15.5071 88.5686 14.2051C90.8366 12.8946 91.7776 10.2318 90.6268 8.24935C90.1144 7.35055 89.266 6.75416 88.2832 6.48536ZM92.2479 7.88821C93.0879 7.78741 94.4572 7.67818 95.8852 7.86298C97.3552 8.03938 98.8923 8.50979 99.9171 9.65219C100.799 10.6266 101.27 12.0882 101.034 14.2135C98.7831 10.4754 94.7763 10.8282 92.6427 11.2062C92.8107 10.2486 92.8192 9.05581 92.2564 7.88821H92.2479ZM66.4347 5.87218C65.1662 7.22458 64.1414 8.99701 63.4862 11.2482C63.6458 11.6514 63.8893 11.9454 64.2169 12.0966C64.5781 12.273 65.0234 12.2814 65.5526 12.147C66.149 10.6266 67.031 9.33299 68.1063 8.28298C67.5182 7.99738 67.0562 7.50179 66.7622 6.93059C66.5858 6.60299 66.4767 6.24178 66.4347 5.87218ZM87.0986 6.35104C87.191 6.35104 87.2835 6.35094 87.3675 6.35934C87.6027 7.09015 87.6783 7.81255 87.6027 8.45935C87.0315 8.60215 86.4687 8.829 85.9311 9.1398C85.3431 9.47581 84.839 9.88737 84.4022 10.3578C83.7722 10.089 83.1507 9.63539 82.6047 9.01378C83.0667 8.24098 83.7302 7.56904 84.5702 7.08184C85.3682 6.61983 86.2418 6.37624 87.0986 6.35104ZM73.1799 2.445C71.0715 2.7558 69.0387 3.57897 67.3251 5.03217C67.1823 5.51938 67.2663 6.07383 67.5099 6.55263C67.7703 7.06503 68.2237 7.49339 68.8117 7.66139C70.1305 6.57778 71.6846 5.82176 73.3226 5.43536C72.7262 4.51135 72.7179 3.3522 73.1799 2.445ZM84.7634 5.83854C83.8142 4.94814 82.6383 4.19222 81.3363 3.61262C80.3787 3.78902 79.8831 4.67093 79.8915 5.83014C80.8407 6.19134 81.7563 6.68697 82.6047 7.33378C83.0247 6.89697 83.5119 6.51058 84.0579 6.19138C84.2931 6.05698 84.5282 5.93934 84.7634 5.83854ZM80.2274 3.16739C78.371 2.51219 76.3214 2.20139 74.297 2.32739C73.5326 3.04979 73.4487 4.38539 74.2383 5.25899C75.8343 5.00699 77.4807 5.09938 79.0599 5.56138C79.1019 4.66258 79.4043 3.92335 79.9083 3.43615C80.0007 3.33535 80.1098 3.25139 80.2274 3.16739Z" fill="#8E949C"/>
<path fill-rule="evenodd" clip-rule="evenodd" d="M113.308 23.3729C112.718 21.1582 110.529 19.5724 108.423 19.8336L84.7586 22.7657C82.6523 23.0259 81.4205 25.0359 82.0104 27.2506L84.9598 38.3337C85.5497 40.5484 87.7384 42.1351 89.8447 41.8739L113.509 38.9418C115.615 38.6807 116.847 36.6707 116.258 34.456L113.308 23.3729Z" fill="#FE9300"/>
<path fill-rule="evenodd" clip-rule="evenodd" d="M91.4807 21.9324L87.4026 22.4373L87.76 23.7776L91.8372 23.2718L91.4807 21.9324ZM97.2148 21.222L93.1376 21.7268L93.4941 23.0671L97.5713 22.5614L97.2148 21.222ZM102.95 20.5115L98.8717 21.0164L99.2282 22.3566L103.306 21.8509L102.95 20.5115ZM104.606 20.3059L104.962 21.6462L108.779 21.1734C108.838 21.1656 108.897 21.1612 108.955 21.1578L108.686 19.8105C108.598 19.8149 108.51 19.8227 108.423 19.8331L104.606 20.3059ZM85.7465 22.6429L84.7585 22.7652C83.6724 22.8997 82.8187 23.4991 82.3277 24.3527L83.4954 25.163C83.8233 24.5948 84.3915 24.1949 85.115 24.1046L86.1039 23.9823L85.7465 22.6429ZM110.392 20.102L110.089 21.3503C110.997 21.7095 111.764 22.5215 112.032 23.5312L112.212 24.2035L113.486 24.0456L113.307 23.3733C112.904 21.8587 111.753 20.6381 110.392 20.102ZM81.8688 25.9359C81.8454 26.3566 81.8897 26.7991 82.0094 27.251L82.8014 30.2248L84.0757 30.0669L83.2837 27.0931C83.2039 26.793 83.1744 26.498 83.19 26.2178L81.8688 25.9359ZM113.95 25.791L112.676 25.9489L113.818 30.2361L115.092 30.0782L113.95 25.791ZM83.2646 31.9659L84.4063 36.2539L85.6806 36.096L84.539 31.808L83.2646 31.9659ZM115.555 31.8201L114.281 31.978L114.983 34.6134C115.084 34.9934 115.105 35.3647 115.056 35.7082L116.366 36.1012C116.44 35.5842 116.409 35.0272 116.257 34.4556L115.555 31.8201ZM84.8695 37.9958L84.9597 38.3333C85.3301 39.7273 86.3347 40.8715 87.5526 41.464L87.963 40.2617C87.1519 39.867 86.4813 39.1053 86.2341 38.1754L86.2089 38.2161C86.2011 38.099 86.1794 37.9732 86.1438 37.8379L84.8695 37.9958ZM115.77 37.6176L114.658 36.7197C114.321 37.1942 113.799 37.5221 113.152 37.602L111.842 37.7642L112.199 39.1045L113.509 38.9422C114.48 38.8216 115.264 38.3298 115.77 37.6176ZM110.542 39.3092L110.186 37.9698L106.108 38.4747L106.465 39.8149L110.542 39.3092ZM100.731 40.5254L104.808 40.0197L104.451 38.6802L100.374 39.1851L100.731 40.5254ZM99.0738 40.7301L98.7173 39.3907L94.6392 39.8956L94.9957 41.2359L99.0738 40.7301ZM89.2521 41.8995C89.4499 41.9065 89.6476 41.8986 89.8446 41.8735L93.3397 41.4406L92.9832 40.1012L89.488 40.5341C89.3562 40.5506 89.2234 40.5558 89.0916 40.5506L89.2521 41.8995Z" fill="#FF7900"/>
<path fill-rule="evenodd" clip-rule="evenodd" d="M96.0303 28.146L96.0381 28.1746C96.1952 28.7654 96.0581 29.3492 95.489 29.4194C94.9451 29.4871 94.4602 28.9788 94.2962 28.3611C94.2962 28.3628 94.2884 28.3325 94.2884 28.3325C94.1279 27.7287 94.2676 27.1579 94.8375 27.0868C95.3814 27.02 95.8655 27.5283 96.0303 28.146ZM92.5612 28.5754L92.569 28.604C92.9559 30.0562 94.3084 31.0937 95.8534 30.902C97.4122 30.7094 98.1505 29.3813 97.7645 27.9308L97.7575 27.9022C97.3706 26.4518 96.0182 25.4134 94.4732 25.6042C92.9134 25.7977 92.1717 27.111 92.5612 28.5754ZM103.739 32.4748L103.747 32.5034C103.904 33.0941 103.767 33.678 103.198 33.7491C102.654 33.8159 102.17 33.3084 102.005 32.6899L101.997 32.6613C101.836 32.0575 101.977 31.4867 102.546 31.4164C103.09 31.3488 103.575 31.8571 103.739 32.4748ZM96.0711 35.3444C96.183 35.766 96.6254 36.0618 97.0592 36.0081C97.3255 35.9751 97.5554 35.8137 97.6499 35.5865L101.919 26.0249C101.997 25.8671 102.02 25.6988 101.964 25.4923C101.852 25.0716 101.411 24.774 100.976 24.8287C100.71 24.8616 100.48 25.023 100.385 25.2494L96.1145 34.8161C96.0538 34.9697 96.0165 35.138 96.0711 35.3444ZM105.473 32.2605C105.473 32.2605 105.474 32.2622 105.473 32.2605L105.466 32.2319C105.08 30.7814 103.727 29.7422 102.182 29.9339C100.622 30.1273 99.8803 31.4407 100.271 32.905L100.278 32.9337C100.664 34.385 102.017 35.4234 103.562 35.2316C105.122 35.0382 105.859 33.7109 105.473 32.2605Z" fill="#FF7900"/>
</g>
<defs>
<clipPath id="clip0_4447_19038">
<rect width="150" height="74" fill="white"/>
</clipPath>
</defs>
</svg>
