<svg width="64" height="64" viewBox="0 0 64 64" fill="none" xmlns="http://www.w3.org/2000/svg">
<g clip-path="url(#clip0_88_68351)">
<path d="M52.4878 27.0459C53.0065 29.0936 50.8036 31.2788 50.8036 31.2788C50.8036 31.2788 46.7869 33.9387 47.5641 22.536C48.3413 11.1334 30.3291 -0.0620117 30.3291 -0.0620117C30.3291 -0.0620117 30.4323 1.02488 30.3291 8.54139C30.1994 18.0006 24.757 14.761 24.757 14.761C19.3146 20.5925 19.8174 33.7535 19.8174 33.7535C13.079 39.7137 12.8355 27.33 12.8355 27.33C12.8355 27.33 0.00718139 40.2881 13.7425 54.153C13.7425 54.153 15.7566 56.1618 12.5391 55.524C10.2445 55.0697 9.72571 54.153 9.72571 54.153C9.72571 54.153 10.1668 59.8954 26.3556 63.4798C26.6696 63.5434 31.7009 64.5297 37.3824 63.3934C49.8499 60.5879 52.0237 55.3881 52.0237 55.3881C52.0237 55.3881 51.76 55.8575 49.6911 56.0683C47.468 56.2951 49.3753 54.1521 49.3753 54.1521C64.0202 44.9532 51.969 24.9983 52.4878 27.0459Z" fill="#8478FF"/>
<path d="M47.1663 45.9625C50.082 41.3953 47.8465 37.9934 47.8465 37.9934C43.2757 40.3436 41.9083 38.7027 41.5025 37.3723C41.3419 36.8456 41.3145 36.2863 41.4072 35.7438C44.3644 18.4125 32.8841 9.0522 33.1725 11.3663C33.2599 12.0659 33.1399 12.9843 32.9282 13.9273C32.4279 16.1602 31.4707 18.2635 30.1659 20.1426C28.3689 22.731 25.1214 28.2828 23.357 36.633C20.8312 48.5862 13.5423 39.9369 13.5423 39.9369C13.5423 39.9369 9.28291 54.5077 26.6794 63.5398C27.7037 63.7172 30.9449 64.1821 34.8523 63.7754C46.2762 58.3983 50.3732 47.906 50.3732 47.906C50.3732 47.906 44.2506 50.5298 47.1663 45.9625Z" fill="#AE92FF"/>
<path d="M43.1812 42.8586C43.1829 42.8542 43.1838 42.8524 43.1838 42.8524L43.1812 42.8586Z" fill="#FFDD56"/>
<path d="M43.1796 42.8588C43.1205 43.0106 41.8969 45.9819 37.3517 46.7397C32.6874 47.5169 34.7279 31.2788 34.7279 31.2788C23.2609 36.7115 25.3985 49.4605 25.3985 49.4605C25.3985 49.4605 23.567 51.2276 21.2194 49.4605C20.4219 48.8606 22.1731 59.7048 29.6711 63.8751C31.0623 63.9615 32.7994 63.9783 34.6988 63.7904C39.8572 60.205 42.5991 48.9744 42.5991 48.9744L40.233 50.4353L43.1796 42.8588Z" fill="#B5C0F6"/>
<path d="M10.2386 25.7492C10.2386 25.7492 9.56632 19.8718 12.842 17.2754C13.3537 16.8696 13.6986 16.5406 13.9509 15.938C14.1565 15.4484 14.475 14.6703 14.3197 14.088C13.9315 12.6297 18.6929 20.6958 10.2386 25.7492Z" fill="#8478FF"/>
<path d="M34.7353 63.7879C36.8182 61.6 39.5954 52.8581 39.5954 52.8581C39.5954 52.8581 38.9937 54.649 36.745 54.4134C33.6519 54.0888 31.951 45.8612 31.951 45.8612C31.951 45.8612 29.3811 52.8581 28.8411 53.8947C27.704 56.0782 25.6016 53.8947 25.6016 53.8947C25.0458 57.4518 29.4816 62.5475 30.7547 63.9255C31.9342 63.9582 33.2875 63.9326 34.7353 63.7879Z" fill="#E1E6FB"/>
</g>
<defs>
<clipPath id="clip0_88_68351">
<rect width="64" height="64" fill="white"/>
</clipPath>
</defs>
</svg>
