<svg xmlns="http://www.w3.org/2000/svg">
    <defs>
        <style>.icon{display:none;} .icon:target{display:inline;}</style>
    </defs>
    <g id="AddCircleOutline" class="icon">
        <svg viewBox="0 0 24 24">
            <path d="M12 7c-.55 0-1 .45-1 1v3H8c-.55 0-1 .45-1 1s.45 1 1 1h3v3c0 .55.45 1 1 1s1-.45 1-1v-3h3c.55 0 1-.45 1-1s-.45-1-1-1h-3V8c0-.55-.45-1-1-1zm0-5C6.48 2 2 6.48 2 12s4.48 10 10 10 10-4.48 10-10S17.52 2 12 2zm0 18c-4.41 0-8-3.59-8-8s3.59-8 8-8 8 3.59 8 8-3.59 8-8 8z"/>
        </svg>
    </g>
    <g id="Add" class="icon">
        <svg viewBox="0 0 24 24">
            <path d="M18 13h-5v5c0 .55-.45 1-1 1s-1-.45-1-1v-5H6c-.55 0-1-.45-1-1s.45-1 1-1h5V6c0-.55.45-1 1-1s1 .45 1 1v5h5c.55 0 1 .45 1 1s-.45 1-1 1z"/>
        </svg>
    </g>
    <g id="ArrowBackIos" class="icon">
        <svg viewBox="0 0 24 24">
            <path d="M11.67 3.87 9.9 2.1 0 12l9.9 9.9 1.77-1.77L3.54 12z"/>
        </svg>
    </g>
    <g id="ArrowBack" class="icon">
        <svg viewBox="0 0 24 24">
            <path d="M19 11H7.83l4.88-4.88c.39-.39.39-1.03 0-1.42a.9959.9959 0 0 0-1.41 0l-6.59 6.59c-.39.39-.39 1.02 0 1.41l6.59 6.59c.39.39 1.02.39 1.41 0 .39-.39.39-1.02 0-1.41L7.83 13H19c.55 0 1-.45 1-1s-.45-1-1-1z"/>
        </svg>
    </g>
    <g id="ArrowDownward" class="icon">
        <svg viewBox="0 0 24 24">
            <path d="M11 5v11.17l-4.88-4.88c-.39-.39-1.03-.39-1.42 0-.39.39-.39 1.02 0 1.41l6.59 6.59c.39.39 1.02.39 1.41 0l6.59-6.59c.39-.39.39-1.02 0-1.41a.9959.9959 0 0 0-1.41 0L13 16.17V5c0-.55-.45-1-1-1s-1 .45-1 1z"/>
        </svg>
    </g>
    <g id="ArrowDropDown" class="icon">
        <svg viewBox="0 0 24 24">
            <path d="m8.71 11.71 2.59 2.59c.39.39 1.02.39 1.41 0l2.59-2.59c.63-.63.18-1.71-.71-1.71H9.41c-.89 0-1.33 1.08-.7 1.71z"/>
        </svg>
    </g>
    <g id="ArrowDropUp" class="icon">
        <svg viewBox="0 0 24 24">
            <path d="M8.71 12.29 11.3 9.7c.39-.39 1.02-.39 1.41 0l2.59 2.59c.63.63.18 1.71-.71 1.71H9.41c-.89 0-1.33-1.08-.7-1.71z"/>
        </svg>
    </g>
    <g id="ArrowForwardIos" class="icon">
        <svg viewBox="0 0 24 24">
            <path d="M7.38 21.01c.49.49 1.28.49 1.77 0l8.31-8.31c.39-.39.39-1.02 0-1.41L9.15 2.98c-.49-.49-1.28-.49-1.77 0s-.49 1.28 0 1.77L14.62 12l-7.25 7.25c-.48.48-.48 1.28.01 1.76z"/>
        </svg>
    </g>
    <g id="ArrowForward" class="icon">
        <svg viewBox="0 0 24 24">
            <path d="M5 13h11.17l-4.88 4.88c-.39.39-.39 1.03 0 1.42.39.39 1.02.39 1.41 0l6.59-6.59c.39-.39.39-1.02 0-1.41l-6.58-6.6a.9959.9959 0 0 0-1.41 0c-.39.39-.39 1.02 0 1.41L16.17 11H5c-.55 0-1 .45-1 1s.45 1 1 1z"/>
        </svg>
    </g>
    <g id="ArrowLeft" class="icon">
        <svg viewBox="0 0 24 24">
            <path d="M12.29 8.71 9.7 11.3c-.39.39-.39 1.02 0 1.41l2.59 2.59c.63.63 1.71.18 1.71-.71V9.41c0-.89-1.08-1.33-1.71-.7z"/>
        </svg>
    </g>
    <g id="ArrowRight" class="icon">
        <svg viewBox="0 0 24 24">
            <path d="m11.71 15.29 2.59-2.59c.39-.39.39-1.02 0-1.41L11.71 8.7c-.63-.62-1.71-.18-1.71.71v5.17c0 .9 1.08 1.34 1.71.71z"/>
        </svg>
    </g>
    <g id="ArrowUpward" class="icon">
        <svg viewBox="0 0 24 24">
            <path d="M13 19V7.83l4.88 4.88c.39.39 1.03.39 1.42 0 .39-.39.39-1.02 0-1.41l-6.59-6.59a.9959.9959 0 0 0-1.41 0l-6.6 6.58c-.39.39-.39 1.02 0 1.41.39.39 1.02.39 1.41 0L11 7.83V19c0 .55.45 1 1 1s1-.45 1-1z"/>
        </svg>
    </g>
    <g id="Campaign" class="icon">
        <svg viewBox="0 0 24 24">
            <path d="M12 8H4C3.46957 8 2.96086 8.21071 2.58579 8.58579C2.21071 8.96086 2 9.46957 2 10V14C2 14.5304 2.21071 15.0391 2.58579 15.4142C2.96086 15.7893 3.46957 16 4 16H5V20C5 20.2652 5.10536 20.5196 5.29289 20.7071C5.48043 20.8946 5.73478 21 6 21H8C8.26522 21 8.51957 20.8946 8.70711 20.7071C8.89464 20.5196 9 20.2652 9 20V16H12L17 20V4L12 8ZM21.5 12C21.5 13.71 20.54 15.26 19 16V8C20.53 8.75 21.5 10.3 21.5 12Z"/>
        </svg>
    </g>
    <g id="Calendar" class="icon">
        <svg viewBox="0 0 24 24">
            <path d="M18.8824 3.81818H18V2H16.2353V3.81818C12.7895 3.81818 10.8576 3.81818 7.41176 3.81818V2H5.64706V3.81818H4.76471C4.27005 3.81818 3.82122 4.0307 3.5 4.37149C3.19094 4.69938 3 5.14601 3 5.63636V20.1818C3 21.1818 3.79412 22 4.76471 22H18.8824C19.8529 22 20.6471 21.1818 20.6471 20.1818V5.63636C20.6471 4.63636 19.8529 3.81818 18.8824 3.81818ZM18.8824 20.1818H4.76471V8.36364H18.8824V20.1818Z"/>
        </svg>
    </g>
    <g id="Check" class="icon">
        <svg viewBox="0 0 24 24">
            <path d="M9 16.17 5.53 12.7a.9959.9959 0 0 0-1.41 0c-.39.39-.39 1.02 0 1.41l4.18 4.18c.39.39 1.02.39 1.41 0L20.29 7.71c.39-.39.39-1.02 0-1.41a.9959.9959 0 0 0-1.41 0L9 16.17z"/>
        </svg>
    </g>
    <g id="ChevronLeft" class="icon">
        <svg viewBox="0 0 24 24">
            <path d="M14.71 6.71a.9959.9959 0 0 0-1.41 0L8.71 11.3c-.39.39-.39 1.02 0 1.41l4.59 4.59c.39.39 1.02.39 1.41 0 .39-.39.39-1.02 0-1.41L10.83 12l3.88-3.88c.39-.39.38-1.03 0-1.41z"/>
        </svg>
    </g>
    <g id="ChevronRight" class="icon">
        <svg viewBox="0 0 24 24">
            <path d="M9.29 6.71c-.39.39-.39 1.02 0 1.41L13.17 12l-3.88 3.88c-.39.39-.39 1.02 0 1.41.39.39 1.02.39 1.41 0l4.59-4.59c.39-.39.39-1.02 0-1.41L10.7 6.7c-.38-.38-1.02-.38-1.41.01z"/>
        </svg>
    </g>
    <g id="Close" class="icon">
        <svg viewBox="0 0 24 24">
            <path d="M18.3 5.71a.9959.9959 0 0 0-1.41 0L12 10.59 7.11 5.7a.9959.9959 0 0 0-1.41 0c-.39.39-.39 1.02 0 1.41L10.59 12 5.7 16.89c-.39.39-.39 1.02 0 1.41.39.39 1.02.39 1.41 0L12 13.41l4.89 4.89c.39.39 1.02.39 1.41 0 .39-.39.39-1.02 0-1.41L13.41 12l4.89-4.89c.38-.38.38-1.02 0-1.4z"/>
        </svg>
    </g>
    <g id="Computer" class="icon">
        <svg viewBox="0 0 24 24">
            <path d="M20 18c1.1 0 1.99-.9 1.99-2L22 6c0-1.1-.9-2-2-2H4c-1.1 0-2 .9-2 2v10c0 1.1.9 2 2 2H1c-.55 0-1 .45-1 1s.45 1 1 1h22c.55 0 1-.45 1-1s-.45-1-1-1h-3zM5 6h14c.55 0 1 .45 1 1v8c0 .55-.45 1-1 1H5c-.55 0-1-.45-1-1V7c0-.55.45-1 1-1z"/>
        </svg>
    </g>
    <g id="CopyLink" class="icon">
        <svg viewBox="0 0 20 20">
            <path d="M18.4183 1.43344C16.4958 -0.489142 13.3656 -0.476086 11.4269 1.4626L8.41006 4.47943L11.0209 4.47943L12.7792 2.7211C13.971 1.52929 15.9113 1.53724 17.1129 2.73886C18.3145 3.94047 18.3225 5.88072 17.1307 7.07252L13.019 11.1842C11.8272 12.376 9.88696 12.368 8.68535 11.1664C8.28906 10.7701 8.0226 10.2935 7.88619 9.78986L6.48167 11.1944C6.71049 11.6501 7.01482 12.0771 7.39473 12.457C9.31731 14.3796 12.4475 14.3666 14.3862 12.4279L18.4183 8.3957C20.357 6.45702 20.3409 3.35601 18.4183 1.43344Z"/>
            <path d="M1.44797 18.4039C3.37055 20.3265 6.50072 20.3135 8.4394 18.3748L11.4563 15.3579L8.8454 15.3579L7.08707 17.1163C5.89526 18.3081 3.95502 18.3001 2.7534 17.0985C1.55179 15.8969 1.54384 13.9567 2.73564 12.7648L6.8473 8.6532C8.0391 7.46139 9.97935 7.46934 11.181 8.67096C11.5773 9.06725 11.8437 9.54388 11.9801 10.0475L13.3846 8.64299C13.1558 8.18729 12.8515 7.76023 12.4716 7.38032C10.549 5.45775 7.41884 5.4708 5.48015 7.40948L1.44799 11.4417C-0.490694 13.3804 -0.474608 16.4814 1.44797 18.4039Z"/>
        </svg>
    </g>
    <g id="CreditCard" class="icon">
        <svg viewBox="0 0 24 24">
            <path d="M20 4H4c-1.11 0-1.99.89-1.99 2L2 18c0 1.11.89 2 2 2h16c1.11 0 2-.89 2-2V6c0-1.11-.89-2-2-2zm-1 14H5c-.55 0-1-.45-1-1v-5h16v5c0 .55-.45 1-1 1zm1-10H4V6h16v2z"/>
        </svg>
    </g>
    <g id="Delete" class="icon">
        <svg viewBox="0 0 24 24">
            <path d="M6 19C6 20.1 6.9 21 8 21H16C17.1 21 18 20.1 18 19V9C18 7.9 17.1 7 16 7H8C6.9 7 6 7.9 6 9V19ZM18 4H15.5L14.79 3.29C14.61 3.11 14.35 3 14.09 3H9.91C9.65 3 9.39 3.11 9.21 3.29L8.5 4H6C5.45 4 5 4.45 5 5C5 5.55 5.45 6 6 6H18C18.55 6 19 5.55 19 5C19 4.45 18.55 4 18 4Z"/>
        </svg>
    </g>
    <g id="Dollar" class="icon">
        <svg viewBox="0 0 24 24">
            <path d="M12 2C6.48 2 2 6.48 2 12C2 17.52 6.48 22 12 22C17.52 22 22 17.52 22 12C22 6.48 17.52 2 12 2ZM13.41 18.09V18.67C13.41 19.4 12.81 20 12.08 20H12.07C11.34 20 10.74 19.4 10.74 18.67V18.07C9.41 17.79 8.23 17.06 7.73 15.83C7.5 15.28 7.93 14.67 8.53 14.67H8.77C9.14 14.67 9.44 14.92 9.58 15.27C9.87 16.02 10.63 16.54 12.09 16.54C14.05 16.54 14.49 15.56 14.49 14.95C14.49 14.12 14.05 13.34 11.82 12.81C9.34 12.21 7.64 11.19 7.64 9.14C7.64 7.42 9.03 6.3 10.75 5.93V5.33C10.75 4.6 11.35 4 12.08 4H12.09C12.82 4 13.42 4.6 13.42 5.33V5.95C14.8 6.29 15.67 7.15 16.05 8.21C16.25 8.76 15.83 9.34 15.24 9.34H14.98C14.61 9.34 14.31 9.08 14.21 8.72C13.98 7.96 13.35 7.47 12.09 7.47C10.59 7.47 9.69 8.15 9.69 9.11C9.69 9.95 10.34 10.5 12.36 11.02C14.38 11.54 16.54 12.41 16.54 14.93C16.52 16.76 15.15 17.76 13.41 18.09Z"/>
        </svg>
    </g>
    <g id="DoubleArrow" class="icon">
        <svg viewBox="0 0 24 24">
            <path d="m20.08 11.42-4.04-5.65c-.34-.48-.89-.77-1.48-.77-1.49 0-2.35 1.68-1.49 2.89L16 12l-2.93 4.11c-.87 1.21 0 2.89 1.49 2.89.59 0 1.15-.29 1.49-.77l4.04-5.65c.24-.35.24-.81-.01-1.16z"/>
            <path d="M13.08 11.42 9.05 5.77C8.7 5.29 8.15 5 7.56 5 6.07 5 5.2 6.68 6.07 7.89L9 12l-2.93 4.11C5.2 17.32 6.07 19 7.56 19c.59 0 1.15-.29 1.49-.77l4.04-5.65c.24-.35.24-.81-.01-1.16z"/>
        </svg>
    </g>
    <g id="Download" class="icon">
        <svg viewBox="0 0 24 24">
            <path d="M16.59 9H15V4C15 3.45 14.55 3 14 3H10C9.45 3 9 3.45 9 4V9H7.41C6.52 9 6.07 10.08 6.7 10.71L11.29 15.3C11.68 15.69 12.31 15.69 12.7 15.3L17.29 10.71C17.92 10.08 17.48 9 16.59 9ZM5 19C5 19.55 5.45 20 6 20H18C18.55 20 19 19.55 19 19C19 18.45 18.55 18 18 18H6C5.45 18 5 18.45 5 19Z" fill-opacity="0.54"/>
        </svg>
    </g>
    <g id="Drafts" class="icon">
        <svg viewBox="0 0 24 24">
            <path d="M21.99 8c0-.72-.37-1.35-.94-1.7l-8.04-4.71c-.62-.37-1.4-.37-2.02 0L2.95 6.3C2.38 6.65 2 7.28 2 8v10c0 1.1.9 2 2 2h16c1.1 0 2-.9 2-2l-.01-10zm-11.05 4.34-7.2-4.5 7.25-4.25c.62-.37 1.4-.37 2.02 0l7.25 4.25-7.2 4.5c-.65.4-1.47.4-2.12 0z"/>
        </svg>
    </g>
    <g id="Edit" class="icon">
        <svg viewBox="0 0 24 24">
            <path d="M3 17.46v3.04c0 .28.22.5.5.5h3.04c.13 0 .26-.05.35-.15L17.81 9.94l-3.75-3.75L3.15 17.1c-.1.1-.15.22-.15.36zM20.71 7.04c.39-.39.39-1.02 0-1.41l-2.34-2.34a.9959.9959 0 0 0-1.41 0l-1.83 1.83 3.75 3.75 1.83-1.83z"/>
        </svg>
    </g>
    <g id="ErrorOutline" class="icon">
        <svg viewBox="0 0 24 24">
            <path d="M12 7c.55 0 1 .45 1 1v4c0 .55-.45 1-1 1s-1-.45-1-1V8c0-.55.45-1 1-1zm-.01-5C6.47 2 2 6.48 2 12s4.47 10 9.99 10C17.52 22 22 17.52 22 12S17.52 2 11.99 2zM12 20c-4.42 0-8-3.58-8-8s3.58-8 8-8 8 3.58 8 8-3.58 8-8 8zm1-3h-2v-2h2v2z"/>
        </svg>
    </g>
    <g id="EuroSymbol" class="icon">
        <svg viewBox="0 0 24 24">
            <path d="M15 18.5c-2.51 0-4.68-1.42-5.76-3.5H14c.55 0 1-.45 1-1s-.45-1-1-1H8.58c-.05-.33-.08-.66-.08-1s.03-.67.08-1H14c.55 0 1-.45 1-1s-.45-1-1-1H9.24C10.32 6.92 12.5 5.5 15 5.5c1.25 0 2.42.36 3.42.97.5.31 1.15.26 1.57-.16.58-.58.45-1.53-.25-1.96C18.36 3.5 16.73 3 15 3c-3.92 0-7.24 2.51-8.48 6H4c-.55 0-1 .45-1 1s.45 1 1 1h2.06c-.04.33-.06.66-.06 1s.02.67.06 1H4c-.55 0-1 .45-1 1s.45 1 1 1h2.52c1.24 3.49 4.56 6 8.48 6 1.74 0 3.36-.49 4.74-1.35.69-.43.82-1.39.24-1.97-.42-.42-1.07-.47-1.57-.15-.99.62-2.15.97-3.41.97z"/>
        </svg>
    </g>
    <g id="Expand" class="icon">
        <svg viewBox="0 0 16 16">
            <path d="M9.48074 7.45524L14.6822 2.2538L14.6822 6.79866C14.6822 7.16187 14.9802 7.4599 15.3434 7.4599C15.7066 7.4599 16 7.16653 16 6.80332L16 0.665898C16 0.302682 15.7066 0.00931568 15.3434 0.00931556L9.206 0C8.84279 -1.2474e-07 8.54942 0.293366 8.54942 0.656582C8.54942 1.0198 8.84279 1.31317 9.206 1.31317L13.7509 1.32248L8.54942 6.52392C8.2933 6.78003 8.2933 7.19912 8.54942 7.45524C8.80553 7.71135 9.22462 7.71135 9.48074 7.45524Z"/>
            <path d="M6.51926 8.54476L1.31782 13.7462L1.31782 9.20134C1.31782 8.83813 1.0198 8.5401 0.656584 8.5401C0.293368 8.5401 1.04514e-06 8.83347 1.01339e-06 9.19669L0 15.3341C-3.17533e-08 15.6973 0.293366 15.9907 0.656582 15.9907L6.794 16C7.15721 16 7.45058 15.7066 7.45058 15.3434C7.45058 14.9802 7.15721 14.6868 6.794 14.6868L2.24914 14.6775L7.45058 9.47608C7.7067 9.21997 7.7067 8.80088 7.45058 8.54476C7.19447 8.28865 6.77537 8.28865 6.51926 8.54476Z"/>
        </svg>
    </g>
    <g id="ExpandLess" class="icon">
        <svg viewBox="0 0 24 24">
            <path d="M11.29 8.71 6.7 13.3c-.39.39-.39 1.02 0 1.41.39.39 1.02.39 1.41 0L12 10.83l3.88 3.88c.39.39 1.02.39 1.41 0 .39-.39.39-1.02 0-1.41L12.7 8.71c-.38-.39-1.02-.39-1.41 0z"/>
        </svg>
    </g>
    <g id="ExpandMore" class="icon">
        <svg viewBox="0 0 24 24">
            <path d="M15.88 9.29 12 13.17 8.12 9.29a.9959.9959 0 0 0-1.41 0c-.39.39-.39 1.02 0 1.41l4.59 4.59c.39.39 1.02.39 1.41 0l4.59-4.59c.39-.39.39-1.02 0-1.41-.39-.38-1.03-.39-1.42 0z"/>
        </svg>
    </g>
    <g id="Facebook" class="icon">
        <svg viewBox="0 0 24 24">
            <path d="M5 3h14a2 2 0 0 1 2 2v14a2 2 0 0 1-2 2H5a2 2 0 0 1-2-2V5a2 2 0 0 1 2-2m13 2h-2.5A3.5 3.5 0 0 0 12 8.5V11h-2v3h2v7h3v-7h3v-3h-3V9a1 1 0 0 1 1-1h2V5z"/>
        </svg>
    </g>
    <g id="FileCopy" class="icon">
        <svg viewBox="0 0 24 24">
            <path d="M15 1H4c-1.1 0-2 .9-2 2v13c0 .55.45 1 1 1s1-.45 1-1V4c0-.55.45-1 1-1h10c.55 0 1-.45 1-1s-.45-1-1-1zm.59 4.59 4.83 4.83c.37.37.58.88.58 1.41V21c0 1.1-.9 2-2 2H7.99C6.89 23 6 22.1 6 21l.01-14c0-1.1.89-2 1.99-2h6.17c.53 0 1.04.21 1.42.59zM15 12h4.5L14 6.5V11c0 .55.45 1 1 1z"/>
        </svg>
    </g>
    <g id="Heart" class="icon">
        <svg viewBox="0 0 24 24">
            <path d="M12 21.35L10.55 20.03C5.4 15.36 2 12.27 2 8.5C2 5.41 4.42 3 7.5 3C9.24 3 10.91 3.81 12 5.08C13.09 3.81 14.76 3 16.5 3C19.58 3 22 5.41 22 8.5C22 12.27 18.6 15.36 13.45 20.03L12 21.35Z"/>
        </svg>
    </g>
    <g id="HeartOutline" class="icon">
        <svg viewBox="0 0 24 24">
            <path d="M19.6603 4.16717C17.0203 2.36717 13.7603 3.20717 12.0003 5.26717C10.2403 3.20717 6.98027 2.35717 4.34027 4.16717C2.94027 5.12717 2.06027 6.74717 2.00027 8.45717C1.86027 12.3372 5.30027 15.4472 10.5503 20.2172L10.6503 20.3072C11.4103 20.9972 12.5803 20.9972 13.3403 20.2972L13.4503 20.1972C18.7003 15.4372 22.1303 12.3272 22.0003 8.44717C21.9403 6.74717 21.0603 5.12717 19.6603 4.16717ZM12.1003 18.7272L12.0003 18.8272L11.9003 18.7272C7.14027 14.4172 4.00027 11.5672 4.00027 8.67717C4.00027 6.67717 5.50027 5.17717 7.50027 5.17717C9.04027 5.17717 10.5403 6.16717 11.0703 7.53717H12.9403C13.4603 6.16717 14.9603 5.17717 16.5003 5.17717C18.5003 5.17717 20.0003 6.67717 20.0003 8.67717C20.0003 11.5672 16.8603 14.4172 12.1003 18.7272Z"/>
        </svg>
    </g>
    <g id="History" class="icon">
        <svg viewBox="0 0 24 24">
            <path d="M13.26 3C8.17003 2.86 4.00003 6.95 4.00003 12H2.21003C1.76003 12 1.54003 12.54 1.86003 12.85L4.65003 15.65C4.85003 15.85 5.16003 15.85 5.36003 15.65L8.15003 12.85C8.46003 12.54 8.24003 12 7.79003 12H6.00003C6.00003 8.1 9.18003 4.95 13.1 5C16.82 5.05 19.95 8.18 20 11.9C20.05 15.81 16.9 19 13 19C11.39 19 9.90003 18.45 8.72003 17.52C8.32003 17.21 7.76003 17.24 7.40003 17.6C6.98003 18.02 7.01003 18.73 7.48003 19.09C9.00003 20.29 10.91 21 13 21C18.05 21 22.14 16.83 22 11.74C21.87 7.05 17.95 3.13 13.26 3ZM12.75 8C12.34 8 12 8.34 12 8.75V12.43C12 12.78 12.19 13.11 12.49 13.29L15.61 15.14C15.97 15.35 16.43 15.23 16.64 14.88C16.85 14.52 16.73 14.06 16.38 13.85L13.5 12.14V8.74C13.5 8.34 13.16 8 12.75 8Z"/>
        </svg>
    </g>
    <g id="House" class="icon">
        <svg viewBox="0 0 24 24">
            <path d="M19 9.29997V4.99997C19 4.44997 18.55 3.99997 18 3.99997H17C16.45 3.99997 16 4.44997 16 4.99997V6.59997L12.67 3.59997C12.29 3.25997 11.71 3.25997 11.33 3.59997L2.97001 11.13C2.63001 11.43 2.84001 12 3.30001 12H5.00001V19C5.00001 19.55 5.45001 20 6.00001 20H9.00001C9.55001 20 10 19.55 10 19V14H14V19C14 19.55 14.45 20 15 20H18C18.55 20 19 19.55 19 19V12H20.7C21.16 12 21.38 11.43 21.03 11.13L19 9.29997ZM10 9.99997C10 8.89997 10.9 7.99997 12 7.99997C13.1 7.99997 14 8.89997 14 9.99997H10Z"/>
        </svg>
    </g>
    <g id="Info" class="icon">
        <svg viewBox="0 0 24 24">
            <path d="M12 2C6.48 2 2 6.48 2 12s4.48 10 10 10 10-4.48 10-10S17.52 2 12 2zm0 15c-.55 0-1-.45-1-1v-4c0-.55.45-1 1-1s1 .45 1 1v4c0 .55-.45 1-1 1zm1-8h-2V7h2v2z"/>
        </svg>
    </g>
    <g id="Instagram" class="icon">
        <svg viewBox="0 0 24 24">
            <path d="M7.8 2h8.4C19.4 2 22 4.6 22 7.8v8.4a5.8 5.8 0 0 1-5.8 5.8H7.8C4.6 22 2 19.4 2 16.2V7.8A5.8 5.8 0 0 1 7.8 2m-.2 2A3.6 3.6 0 0 0 4 7.6v8.8C4 18.39 5.61 20 7.6 20h8.8a3.6 3.6 0 0 0 3.6-3.6V7.6C20 5.61 18.39 4 16.4 4H7.6m9.65 1.5a1.25 1.25 0 0 1 1.25 1.25A1.25 1.25 0 0 1 17.25 8 1.25 1.25 0 0 1 16 6.75a1.25 1.25 0 0 1 1.25-1.25M12 7a5 5 0 0 1 5 5 5 5 0 0 1-5 5 5 5 0 0 1-5-5 5 5 0 0 1 5-5m0 2a3 3 0 0 0-3 3 3 3 0 0 0 3 3 3 3 0 0 0 3-3 3 3 0 0 0-3-3z"/>
        </svg>
    </g>
    <g id="LinkedIn" class="icon">
        <svg viewBox="0 0 24 24">
            <path d="M19 3a2 2 0 0 1 2 2v14a2 2 0 0 1-2 2H5a2 2 0 0 1-2-2V5a2 2 0 0 1 2-2h14m-.5 15.5v-5.3a3.26 3.26 0 0 0-3.26-3.26c-.85 0-1.84.52-2.32 1.3v-1.11h-2.79v8.37h2.79v-4.93c0-.77.62-1.4 1.39-1.4a1.4 1.4 0 0 1 1.4 1.4v4.93h2.79M6.88 8.56a1.68 1.68 0 0 0 1.68-1.68c0-.93-.75-1.69-1.68-1.69a1.69 1.69 0 0 0-1.69 1.69c0 .93.76 1.68 1.69 1.68m1.39 9.94v-8.37H5.5v8.37h2.77z"/>
        </svg>
    </g>
    <g id="LocationOn" class="icon">
        <svg viewBox="0 0 24 24">
            <path d="M12 2c-4.2 0-8 3.22-8 8.2 0 3.18 2.45 6.92 7.34 11.23.38.33.95.33 1.33 0C17.55 17.12 20 13.38 20 10.2 20 5.22 16.2 2 12 2zm0 10c-1.1 0-2-.9-2-2s.9-2 2-2 2 .9 2 2-.9 2-2 2z"/>
        </svg>
    </g>
    <g id="Mail" class="icon">
        <svg viewBox="0 0 24 24">
            <path d="M20 4H4c-1.1 0-2 .9-2 2v12c0 1.1.9 2 2 2h16c1.1 0 2-.9 2-2V6c0-1.1-.9-2-2-2zm-.4 4.25-6.54 4.09c-.65.41-1.47.41-2.12 0L4.4 8.25c-.25-.16-.4-.43-.4-.72 0-.67.73-1.07 1.3-.72L12 11l6.7-4.19c.57-.35 1.3.05 1.3.72 0 .29-.15.56-.4.72z"/>
        </svg>
    </g>
    <g id="Menu" class="icon">
        <svg viewBox="0 0 24 24">
            <path d="M4 18h16c.55 0 1-.45 1-1s-.45-1-1-1H4c-.55 0-1 .45-1 1s.45 1 1 1zm0-5h16c.55 0 1-.45 1-1s-.45-1-1-1H4c-.55 0-1 .45-1 1s.45 1 1 1zM3 7c0 .55.45 1 1 1h16c.55 0 1-.45 1-1s-.45-1-1-1H4c-.55 0-1 .45-1 1z"/>
        </svg>
    </g>
    <g id="Messenger" class="icon">
        <svg viewBox="0 0 20 20">
            <path d="M9.99996 0C4.53277 0 0.100586 4.14437 0.100586 9.25688C0.100586 12.1653 1.53496 14.7603 3.77809 16.4572V20L7.15652 18.1259C8.05715 18.3781 9.01152 18.5134 9.99996 18.5134C15.4671 18.5134 19.8993 14.3691 19.8993 9.25656C19.8993 4.14406 15.4671 0 9.99996 0ZM11.0425 12.4131L8.48215 9.75344L3.55152 12.4803L8.95746 6.74375L11.5178 9.40344L16.4484 6.67656L11.0425 12.4131Z"/>
        </svg>
    </g>
    <g id="MoreHoriz" class="icon">
        <svg viewBox="0 0 24 24">
            <path d="M6 10c-1.1 0-2 .9-2 2s.9 2 2 2 2-.9 2-2-.9-2-2-2zm12 0c-1.1 0-2 .9-2 2s.9 2 2 2 2-.9 2-2-.9-2-2-2zm-6 0c-1.1 0-2 .9-2 2s.9 2 2 2 2-.9 2-2-.9-2-2-2z"/>
        </svg>
    </g>
    <g id="MoreVert" class="icon">
        <svg viewBox="0 0 24 24">
            <path d="M12 8c1.1 0 2-.9 2-2s-.9-2-2-2-2 .9-2 2 .9 2 2 2zm0 2c-1.1 0-2 .9-2 2s.9 2 2 2 2-.9 2-2-.9-2-2-2zm0 6c-1.1 0-2 .9-2 2s.9 2 2 2 2-.9 2-2-.9-2-2-2z"/>
        </svg>
    </g>
    <g id="NotInterested" class="icon">
        <svg viewBox="0 0 24 24">
            <path d="M12 2C6.48 2 2 6.48 2 12C2 17.52 6.48 22 12 22C17.52 22 22 17.52 22 12C22 6.48 17.52 2 12 2ZM12 20C7.58 20 4 16.42 4 12C4 10.15 4.63 8.45 5.69 7.1L16.9 18.31C15.55 19.37 13.85 20 12 20ZM18.31 16.9L7.1 5.69C8.45 4.63 10.15 4 12 4C16.42 4 20 7.58 20 12C20 13.85 19.37 15.55 18.31 16.9Z"/>
        </svg>
    </g>
    <g id="OpenInFull" class="icon">
        <svg viewBox="0 0 24 24">
            <path d="M21 8.59V4c0-.55-.45-1-1-1h-4.59c-.89 0-1.34 1.08-.71 1.71l1.59 1.59-10 10-1.59-1.59c-.62-.63-1.7-.19-1.7.7V20c0 .55.45 1 1 1h4.59c.89 0 1.34-1.08.71-1.71L7.71 17.7l10-10 1.59 1.59c.62.63 1.7.19 1.7-.7z" />
        </svg>
    </g>
    <g id="OpenInNew" class="icon">
        <svg viewBox="0 0 24 24">
            <path d="M18 19H6C5.45 19 5 18.55 5 18V6C5 5.45 5.45 5 6 5H11C11.55 5 12 4.55 12 4C12 3.45 11.55 3 11 3H5C3.89 3 3 3.9 3 5V19C3 20.1 3.9 21 5 21H19C20.1 21 21 20.1 21 19V13C21 12.45 20.55 12 20 12C19.45 12 19 12.45 19 13V18C19 18.55 18.55 19 18 19ZM14 4C14 4.55 14.45 5 15 5H17.59L8.46 14.13C8.07 14.52 8.07 15.15 8.46 15.54C8.85 15.93 9.48 15.93 9.87 15.54L19 6.41V9C19 9.55 19.45 10 20 10C20.55 10 21 9.55 21 9V4C21 3.45 20.55 3 20 3H15C14.45 3 14 3.45 14 4Z"/>
        </svg>
    </g>
    <g id="Person" class="icon">
        <svg viewBox="0 0 24 24">
            <path d="M12 12c2.21 0 4-1.79 4-4s-1.79-4-4-4-4 1.79-4 4 1.79 4 4 4zm0 2c-2.67 0-8 1.34-8 4v1c0 .55.45 1 1 1h14c.55 0 1-.45 1-1v-1c0-2.66-5.33-4-8-4z"/>
        </svg>
    </g>
    <g id="Phonelink-ring" class="icon">
        <svg viewBox="0 0 24 24">
            <path d="M14 1H4C2.9 1 2 1.9 2 3V21C2 22.1 2.9 23 4 23H14C15.1 23 16 22.1 16 21V3C16 1.9 15.1 1 14 1ZM14 20H4V4H14V20ZM20.63 8.26C20.37 7.94 19.89 7.9 19.59 8.2L19.56 8.23C19.31 8.48 19.3 8.88 19.51 9.16C20.77 10.8 20.76 13.03 19.49 14.73C19.28 15.01 19.3 15.4 19.54 15.65L19.59 15.7C19.88 15.99 20.35 15.96 20.62 15.65C22.42 13.52 22.42 10.46 20.63 8.26ZM17.42 10.37L17.36 10.43C17.16 10.63 17.1 10.93 17.21 11.19C17.42 11.68 17.42 12.22 17.21 12.71C17.1 12.97 17.16 13.27 17.36 13.47L17.44 13.55C17.76 13.87 18.31 13.8 18.53 13.4C19.02 12.51 19.02 11.46 18.52 10.54C18.3 10.12 17.75 10.04 17.42 10.37Z"/>
        </svg>
    </g>
    <g id="Placeholder" class="icon">
        <svg viewBox="0 0 20 20">
            <path d="M0 2C0 0.895431 0.895431 0 2 0H18C19.1046 0 20 0.895431 20 2V18C20 19.1046 19.1046 20 18 20H2C0.895431 20 0 19.1046 0 18V2Z"/>
        </svg>
    </g>
    <g id="Present" class="icon">
        <svg viewBox="0 0 24 24">
            <path d="M20 6H17.82C17.93 5.69 18 5.35 18 5C18 3.34 16.66 2 15 2C13.95 2 13.04 2.54 12.5 3.35L12 4.02L11.5 3.34C10.96 2.54 10.05 2 9 2C7.34 2 6 3.34 6 5C6 5.35 6.07 5.69 6.18 6H4C2.89 6 2.01 6.89 2.01 8L2 19C2 20.11 2.89 21 4 21H20C21.11 21 22 20.11 22 19V8C22 6.89 21.11 6 20 6ZM15 4C15.55 4 16 4.45 16 5C16 5.55 15.55 6 15 6C14.45 6 14 5.55 14 5C14 4.45 14.45 4 15 4ZM9 4C9.55 4 10 4.45 10 5C10 5.55 9.55 6 9 6C8.45 6 8 5.55 8 5C8 4.45 8.45 4 9 4ZM20 19H4V17H20V19ZM20 14H4V8H9.08L7 10.83L8.62 12L11 8.76L12 7.4L13 8.76L15.38 12L17 10.83L14.92 8H20V14Z"/>
        </svg>
    </g>
    <g id="Print" class="icon">
        <svg viewBox="0 0 20 18">
            <path d="M17 5H3C1.34 5 0 6.34 0 8V12C0 13.1 0.9 14 2 14H4V16C4 17.1 4.9 18 6 18H14C15.1 18 16 17.1 16 16V14H18C19.1 14 20 13.1 20 12V8C20 6.34 18.66 5 17 5ZM13 16H7C6.45 16 6 15.55 6 15V11H14V15C14 15.55 13.55 16 13 16ZM17 9C16.45 9 16 8.55 16 8C16 7.45 16.45 7 17 7C17.55 7 18 7.45 18 8C18 8.55 17.55 9 17 9ZM15 0H5C4.45 0 4 0.45 4 1V3C4 3.55 4.45 4 5 4H15C15.55 4 16 3.55 16 3V1C16 0.45 15.55 0 15 0Z"/>
        </svg>
    </g>
    <g id="Redeem" class="icon">
        <svg viewBox="0 0 24 24">
            <path d="M20 6h-2.18c.11-.31.18-.65.18-1 0-1.66-1.34-3-3-3-1.05 0-1.96.54-2.5 1.35l-.5.67-.5-.68C10.96 2.54 10.05 2 9 2 7.34 2 6 3.34 6 5c0 .35.07.69.18 1H4c-1.11 0-1.99.89-1.99 2L2 19c0 1.11.89 2 2 2h16c1.11 0 2-.89 2-2V8c0-1.11-.89-2-2-2zm-5-2c.55 0 1 .45 1 1s-.45 1-1 1-1-.45-1-1 .45-1 1-1zM9 4c.55 0 1 .45 1 1s-.45 1-1 1-1-.45-1-1 .45-1 1-1zm10 15H5c-.55 0-1-.45-1-1v-1h16v1c0 .55-.45 1-1 1zm1-5H4V9c0-.55.45-1 1-1h4.08L7.6 10.02c-.33.45-.23 1.08.22 1.4.44.32 1.07.22 1.39-.22L12 7.4l2.79 3.8c.32.44.95.54 1.39.22.45-.32.55-.95.22-1.4L14.92 8H19c.55 0 1 .45 1 1v5z"/>
        </svg>
    </g>
    <g id="RemoveCircleOutline" class="icon">
        <svg viewBox="0 0 24 24">
            <path d="M7 11v2h10v-2H7zm5-9C6.48 2 2 6.48 2 12s4.48 10 10 10 10-4.48 10-10S17.52 2 12 2zm0 18c-4.41 0-8-3.59-8-8s3.59-8 8-8 8 3.59 8 8-3.59 8-8 8z"/>
        </svg>
    </g>
    <g id="Schedule" class="icon">
        <svg viewBox="0 0 24 24">
            <path d="M11.99 2C6.47 2 2 6.48 2 12s4.47 10 9.99 10C17.52 22 22 17.52 22 12S17.52 2 11.99 2zM12 20c-4.42 0-8-3.58-8-8s3.58-8 8-8 8 3.58 8 8-3.58 8-8 8zm-.22-13h-.06c-.4 0-.72.32-.72.72v4.72c0 .35.18.68.49.86l4.15 2.49c.34.2.78.1.98-.24.21-.34.1-.79-.25-.99l-3.87-2.3V7.72c0-.4-.32-.72-.72-.72z"/>
        </svg>
    </g>
    <g id="Search" class="icon">
        <svg viewBox="0 0 24 24">
            <path d="M15.5 14h-.79l-.28-.27c1.2-1.4 1.82-3.31 1.48-5.34-.47-2.78-2.79-5-5.59-5.34-4.23-.52-7.79 3.04-7.27 7.27.34 2.8 2.56 5.12 5.34 5.59 2.03.34 3.94-.28 5.34-1.48l.27.28v.79l4.25 4.25c.41.41 1.08.41 1.49 0 .41-.41.41-1.08 0-1.49L15.5 14zm-6 0C7.01 14 5 11.99 5 9.5S7.01 5 9.5 5 14 7.01 14 9.5 11.99 14 9.5 14z"/>
        </svg>
    </g>
    <g id="Share" class="icon">
        <svg viewBox="0 0 24 24">
            <path d="M18 16.08C17.24 16.08 16.56 16.38 16.04 16.85L8.91 12.7C8.96 12.47 9 12.24 9 12C9 11.76 8.96 11.53 8.91 11.3L15.96 7.19C16.5 7.69 17.21 8 18 8C19.66 8 21 6.66 21 5C21 3.34 19.66 2 18 2C16.34 2 15 3.34 15 5C15 5.24 15.04 5.47 15.09 5.7L8.04 9.81C7.5 9.31 6.79 9 6 9C4.34 9 3 10.34 3 12C3 13.66 4.34 15 6 15C6.79 15 7.5 14.69 8.04 14.19L15.16 18.35C15.11 18.56 15.08 18.78 15.08 19C15.08 20.61 16.39 21.92 18 21.92C19.61 21.92 20.92 20.61 20.92 19C20.92 17.39 19.61 16.08 18 16.08Z"/>
        </svg>
    </g>
    <g id="ShoppingCart" class="icon">
        <svg viewBox="0 0 24 24">
            <path d="M7 18c-1.1 0-1.99.9-1.99 2S5.9 22 7 22s2-.9 2-2-.9-2-2-2zM1 3c0 .55.45 1 1 1h1l3.6 7.59-1.35 2.44C4.52 15.37 5.48 17 7 17h11c.55 0 1-.45 1-1s-.45-1-1-1H7l1.1-2h7.45c.75 0 1.41-.41 1.75-1.03l3.58-6.49c.37-.66-.11-1.48-.87-1.48H5.21l-.67-1.43c-.16-.35-.52-.57-.9-.57H2c-.55 0-1 .45-1 1zm16 15c-1.1 0-1.99.9-1.99 2s.89 2 1.99 2 2-.9 2-2-.9-2-2-2z"/>
        </svg>
    </g>
    <g id="StarHalf" class="icon">
        <svg viewBox="0 0 24 24">
            <path d="m19.65 9.04-4.84-.42-1.89-4.45c-.34-.81-1.5-.81-1.84 0L9.19 8.63l-4.83.41c-.88.07-1.24 1.17-.57 1.75l3.67 3.18-1.1 4.72c-.2.86.73 1.54 1.49 1.08l4.15-2.5 4.15 2.51c.76.46 1.69-.22 1.49-1.08l-1.1-4.73 3.67-3.18c.67-.58.32-1.68-.56-1.75zM12 15.4V6.1l1.71 4.04 4.38.38-3.32 2.88 1 4.28L12 15.4z"/>
        </svg>
    </g>
    <g id="StarOutline" class="icon">
        <svg viewBox="0 0 24 24">
            <path d="m19.65 9.04-4.84-.42-1.89-4.45c-.34-.81-1.5-.81-1.84 0L9.19 8.63l-4.83.41c-.88.07-1.24 1.17-.57 1.75l3.67 3.18-1.1 4.72c-.2.86.73 1.54 1.49 1.08l4.15-2.5 4.15 2.51c.76.46 1.69-.22 1.49-1.08l-1.1-4.73 3.67-3.18c.67-.58.32-1.68-.56-1.75zM12 15.4l-3.76 2.27 1-4.28-3.32-2.88 4.38-.38L12 6.1l1.71 4.04 4.38.38-3.32 2.88 1 4.28L12 15.4z"/>
        </svg>
    </g>
    <g id="Star" class="icon">
        <svg viewBox="0 0 24 24">
            <path d="m12 17.27 4.15 2.51c.76.46 1.69-.22 1.49-1.08l-1.1-4.72 3.67-3.18c.67-.58.31-1.68-.57-1.75l-4.83-.41-1.89-4.46c-.34-.81-1.5-.81-1.84 0L9.19 8.63l-4.83.41c-.88.07-1.24 1.17-.57 1.75l3.67 3.18-1.1 4.72c-.2.86.73 1.54 1.49 1.08l4.15-2.5z"/>
        </svg>
    </g>
    <g id="ThumbDown" class="icon">
        <svg viewBox="0 0 24 24">
            <path d="m10.88 21.94 5.53-5.54c.37-.37.58-.88.58-1.41V5c0-1.1-.9-2-2-2H6c-.8 0-1.52.48-1.83 1.21L.91 11.82C.06 13.8 1.51 16 3.66 16h5.65l-.95 4.58c-.1.5.05 1.01.41 1.37.59.58 1.53.58 2.11-.01zM21 3c-1.1 0-2 .9-2 2v8c0 1.1.9 2 2 2s2-.9 2-2V5c0-1.1-.9-2-2-2z"/>
        </svg>
    </g>
    <g id="ThumbUp" class="icon">
        <svg viewBox="0 0 24 24">
            <path d="M13.12 2.06 7.58 7.6c-.37.37-.58.88-.58 1.41V19c0 1.1.9 2 2 2h9c.8 0 1.52-.48 1.84-1.21l3.26-7.61C23.94 10.2 22.49 8 20.34 8h-5.65l.95-4.58c.1-.5-.05-1.01-.41-1.37-.59-.58-1.53-.58-2.11.01zM3 21c1.1 0 2-.9 2-2v-8c0-1.1-.9-2-2-2s-2 .9-2 2v8c0 1.1.9 2 2 2z"/>
        </svg>
    </g>
    <g id="Twitter" class="icon">
        <svg viewBox="0 0 24 24">
            <path d="M22.46 6c-.77.35-1.6.58-2.46.69.88-.53 1.56-1.37 1.88-2.38-.83.5-1.75.85-2.72 1.05C18.37 4.5 17.26 4 16 4c-2.35 0-4.27 1.92-4.27 4.29 0 .34.04.67.11.98C8.28 9.09 5.11 7.38 3 4.79c-.37.63-.58 1.37-.58 2.15 0 1.49.75 2.81 1.91 3.56-.71 0-1.37-.2-1.95-.5v.03c0 2.08 1.48 3.82 3.44 4.21a4.22 4.22 0 0 1-1.93.07 4.28 4.28 0 0 0 4 2.98 8.521 8.521 0 0 1-5.33 1.84c-.34 0-.68-.02-1.02-.06C3.44 20.29 5.7 21 8.12 21 16 21 20.33 14.46 20.33 8.79c0-.19 0-.37-.01-.56.84-.6 1.56-1.36 2.14-2.23z"/>
        </svg>
    </g>
    <g id="Videocam" class="icon">
        <svg viewBox="0 0 24 24">
            <path d="M17 10.5V7c0-.55-.45-1-1-1H4c-.55 0-1 .45-1 1v10c0 .55.45 1 1 1h12c.55 0 1-.45 1-1v-3.5l2.29 2.29c.63.63 1.71.18 1.71-.71V8.91c0-.89-1.08-1.34-1.71-.71L17 10.5z"/>
        </svg>
    </g>
    <g id="Warning" class="icon">
        <svg viewBox="0 0 24 24">
            <path d="M4.47 21h15.06c1.54 0 2.5-1.67 1.73-3L13.73 4.99c-.77-1.33-2.69-1.33-3.46 0L2.74 18c-.77 1.33.19 3 1.73 3zM12 14c-.55 0-1-.45-1-1v-2c0-.55.45-1 1-1s1 .45 1 1v2c0 .55-.45 1-1 1zm1 4h-2v-2h2v2z"/>
        </svg>
    </g>
    <g id="WhatsApp" class="icon">
        <svg viewBox="0 0 20 20">
            <path fill-rule="evenodd" clip-rule="evenodd" d="M13.8268 0.761205C12.6136 0.258658 11.3132 0 10 0C7.34784 0 4.8043 1.05357 2.92894 2.92893C1.05357 4.8043 6.42913e-06 7.34784 6.42913e-06 10C-0.00214461 11.8944 0.535511 13.7502 1.55001 15.35L6.42913e-06 20L4.65001 18.45C6.20001 19.43 8.03001 20 10 20C12.6522 20 15.1957 18.9464 17.0711 17.0711C18.9464 15.1957 20 12.6522 20 10C20 8.68678 19.7413 7.38642 19.2388 6.17317C18.7363 4.95991 17.9997 3.85752 17.0711 2.92893C16.1425 2.00035 15.0401 1.26375 13.8268 0.761205ZM14.8487 12.0105C14.8175 11.9946 14.7846 11.9777 14.75 11.9597L13.08 11.0797L13.0707 11.0765C12.8457 10.9981 12.6874 10.943 12.5 11.1897L11.69 12.1297C11.54 12.2897 11.39 12.3097 11.15 12.1697C11.1111 12.1486 11.0575 12.1234 10.9912 12.0921C10.6479 11.9302 9.96257 11.6071 9.19998 10.8697C8.49998 10.1797 7.99998 9.34968 7.87998 9.08968C7.74338 8.84576 7.87333 8.71608 7.99119 8.59846C7.99413 8.59552 7.99706 8.5926 7.99998 8.58968L8.38998 8.16968L8.65998 7.75968C8.74998 7.59968 8.70998 7.44968 8.64998 7.31968L7.95998 5.44968C7.78751 4.98673 7.59856 4.99346 7.45297 4.99864C7.43817 4.99917 7.42382 4.99968 7.40998 4.99968H6.93998C6.76998 4.96968 6.49998 4.99968 6.25998 5.25968L6.25295 5.26617C5.98864 5.51005 5.35953 6.09053 5.30998 7.29968C5.26998 8.52968 6.10998 9.73968 6.22998 9.90968C6.23967 9.92341 6.25836 9.95338 6.28585 9.99745C6.59871 10.4991 8.05107 12.8277 10.34 13.8297C12.3929 14.7284 12.7601 14.655 13.0835 14.5903C13.1524 14.5766 13.2192 14.5632 13.3 14.5597C13.76 14.5397 14.8 13.9997 15 13.4397C15.25 12.8697 15.27 12.3697 15.21 12.2597C15.1669 12.1735 15.0422 12.1097 14.8487 12.0105Z"/>
        </svg>
    </g>
    <g id="YouTube" class="icon">
        <svg viewBox="0 0 24 18">
            <path d="M13.8628 17.387H10.7508C10.7095 17.3834 10.6682 17.3763 10.6286 17.3745C10.203 17.3655 9.77565 17.3637 9.35005 17.3493C8.41266 17.3206 7.47347 17.2901 6.53607 17.2524C6.00811 17.2308 5.48195 17.1931 4.95579 17.159C4.37216 17.1213 3.78853 17.0674 3.21029 16.9812C2.993 16.9489 2.77392 16.9201 2.56561 16.8573C1.59768 16.5646 0.935043 15.9361 0.577684 14.9897C0.446592 14.6431 0.394515 14.2768 0.331662 13.9122C0.22212 13.2693 0.155676 12.6211 0.105395 11.971C0.0515213 11.2832 0.0209931 10.5936 0.00842262 9.90224C-0.00594359 9.02052 -0.00594359 8.14059 0.0407466 7.25886C0.0658875 6.78298 0.0892326 6.3053 0.126944 5.82942C0.171838 5.2422 0.23469 4.65858 0.331662 4.07675C0.380148 3.78763 0.419655 3.49671 0.500465 3.21657C0.775219 2.25224 1.39835 1.5896 2.33395 1.21787C2.59973 1.11192 2.88167 1.076 3.16001 1.0329C3.88371 0.921566 4.61279 0.855122 5.34188 0.804841C5.8878 0.767129 6.43371 0.73301 6.98142 0.71146C7.8434 0.679136 8.70537 0.650404 9.56734 0.634242C10.9483 0.607305 12.3292 0.601918 13.7102 0.628855C14.7571 0.648608 15.8023 0.677341 16.8492 0.707869C17.3035 0.720439 17.7579 0.743784 18.2122 0.768925C18.9233 0.810228 19.6345 0.853327 20.342 0.935932C20.7083 0.979031 21.0729 1.02393 21.4267 1.13886C22.4233 1.4603 23.0949 2.11217 23.4289 3.10343C23.5529 3.46798 23.6157 3.85048 23.6714 4.22939C23.7396 4.68551 23.8025 5.14164 23.8474 5.60136C23.8976 6.12034 23.9282 6.64111 23.9605 7.16189C23.9767 7.41869 23.9749 7.67728 23.982 7.93407C23.9838 7.99333 23.9928 8.05259 24 8.11186V9.69573C23.9946 9.75499 23.9856 9.81425 23.982 9.87531C23.9677 10.2794 23.9623 10.6834 23.9389 11.0857C23.9138 11.5364 23.8833 11.9871 23.8366 12.4361C23.7809 12.9569 23.7091 13.4776 23.6319 13.9966C23.5924 14.266 23.5511 14.5407 23.472 14.7993C23.1255 15.9235 22.3766 16.631 21.2327 16.9076C20.6994 17.0351 20.1534 17.0854 19.6093 17.1338C19.0957 17.1787 18.5821 17.22 18.0668 17.247C17.2658 17.2883 16.4649 17.3188 15.664 17.3439C15.1037 17.3619 14.5434 17.3655 13.985 17.3763C13.9436 17.3763 13.9023 17.3835 13.8628 17.3888V17.387ZM9.67688 12.5941C11.7726 11.3927 13.8521 10.2003 15.937 9.00436C15.9244 8.98999 15.9208 8.98101 15.9136 8.97562C13.8557 7.794 11.7977 6.61418 9.73974 5.43435C9.72537 5.42717 9.711 5.42178 9.69664 5.4164C9.69484 5.4164 9.68946 5.4164 9.68766 5.4164C9.68407 5.4164 9.68227 5.41999 9.67868 5.42537V12.5941H9.67688Z"/>
        </svg>
    </g>
    <g id="Visibility" class="icon">
        <svg viewBox="0 0 24 24">
            <g clip-path="url(#clip0_1504_2552)">
                <path d="M12 4C7 4 2.73 7.11 1 11.5C2.73 15.89 7 19 12 19C17 19 21.27 15.89 23 11.5C21.27 7.11 17 4 12 4ZM12 16.5C9.24 16.5 7 14.26 7 11.5C7 8.74 9.24 6.5 12 6.5C14.76 6.5 17 8.74 17 11.5C17 14.26 14.76 16.5 12 16.5ZM12 8.5C10.34 8.5 9 9.84 9 11.5C9 13.16 10.34 14.5 12 14.5C13.66 14.5 15 13.16 15 11.5C15 9.84 13.66 8.5 12 8.5Z"/>
            </g>
        </svg>
    </g>
    <g id="VisibilityOff" class="icon">
        <svg viewBox="0 0 24 24">
            <g clip-path="url(#clip0_1504_2555)">
                <path d="M12 6.49993C14.76 6.49993 17 8.73993 17 11.4999C17 12.0099 16.9 12.4999 16.76 12.9599L19.82 16.0199C21.21 14.7899 22.31 13.2499 23 11.4899C21.27 7.10993 17 3.99993 12 3.99993C10.73 3.99993 9.51 4.19993 8.36 4.56993L10.53 6.73993C11 6.59993 11.49 6.49993 12 6.49993ZM2.71 3.15993C2.32 3.54993 2.32 4.17993 2.71 4.56993L4.68 6.53993C3.06 7.82993 1.77 9.52993 1 11.4999C2.73 15.8899 7 18.9999 12 18.9999C13.52 18.9999 14.97 18.6999 16.31 18.1799L19.03 20.8999C19.42 21.2899 20.05 21.2899 20.44 20.8999C20.83 20.5099 20.83 19.8799 20.44 19.4899L4.13 3.15993C3.74 2.76993 3.1 2.76993 2.71 3.15993ZM12 16.4999C9.24 16.4999 7 14.2599 7 11.4999C7 10.7299 7.18 9.99993 7.49 9.35993L9.06 10.9299C9.03 11.1099 9 11.2999 9 11.4999C9 13.1599 10.34 14.4999 12 14.4999C12.2 14.4999 12.38 14.4699 12.57 14.4299L14.14 15.9999C13.49 16.3199 12.77 16.4999 12 16.4999ZM14.97 11.1699C14.82 9.76993 13.72 8.67993 12.33 8.52993L14.97 11.1699Z" />
            </g>
        </svg>
    </g>
    <g id="OfferCode" class="icon">
        <svg viewBox="0 0 24 24">
            <path d="M21.4064 11.4124L12.578 2.58015C12.2081 2.21005 11.6982 2 11.1683 2H3.99962C2.89983 2 2 2.90023 2 4.0005V11.1723C2 11.7024 2.20996 12.2126 2.58989 12.5826L11.4182 21.4149C12.1981 22.195 13.4678 22.195 14.2477 21.4149L21.4164 14.2431C22.1962 13.4629 22.1962 12.2026 21.4064 11.4124ZM6.49916 8.0015C5.66931 8.0015 4.99944 7.33133 4.99944 6.50113C4.99944 5.67092 5.66931 5.00075 6.49916 5.00075C7.329 5.00075 7.99887 5.67092 7.99887 6.50113C7.99887 7.33133 7.329 8.0015 6.49916 8.0015Z"/>
        </svg>
    </g>
    <g id="OfferDeal" class="icon">
        <svg viewBox="0 0 24 24">
            <path d="M7.5 4C5.57 4 4 5.57 4 7.5C4 9.43 5.57 11 7.5 11C9.43 11 11 9.43 11 7.5C11 5.57 9.43 4 7.5 4ZM7.5 9C6.67 9 6 8.33 6 7.5C6 6.67 6.67 6 7.5 6C8.33 6 9 6.67 9 7.5C9 8.33 8.33 9 7.5 9ZM16.5 13C14.57 13 13 14.57 13 16.5C13 18.43 14.57 20 16.5 20C18.43 20 20 18.43 20 16.5C20 14.57 18.43 13 16.5 13ZM16.5 18C15.67 18 15 17.33 15 16.5C15 15.67 15.67 15 16.5 15C17.33 15 18 15.67 18 16.5C18 17.33 17.33 18 16.5 18ZM5.41 20L4 18.59L18.59 4L20 5.41L5.41 20Z" />
        </svg>
    </g>
    <g id="OfferCashback" class="icon">
        <svg viewBox="0 0 24 24">
            <path d="M23 8V18C23 19.1 22.1 20 21 20H5C4.45 20 4 19.55 4 19C4 18.45 4.45 18 5 18H21V8C21 7.45 21.45 7 22 7C22.55 7 23 7.45 23 8ZM4 16C2.34 16 1 14.66 1 13V7C1 5.34 2.34 4 4 4H16C17.66 4 19 5.34 19 7V14C19 15.1 18.1 16 17 16H4ZM7 10C7 11.66 8.34 13 10 13C11.66 13 13 11.66 13 10C13 8.34 11.66 7 10 7C8.34 7 7 8.34 7 10Z"/>
        </svg>
    </g>
    <g id="OfferReward" class="icon">
        <svg viewBox="0 0 24 24">
            <path d="M19 5H17V4C17 3.45 16.55 3 16 3H8C7.45 3 7 3.45 7 4V5H5C3.9 5 3 5.9 3 7V8C3 10.55 4.92 12.63 7.39 12.94C8.02 14.44 9.37 15.57 11 15.9V19H8C7.45 19 7 19.45 7 20C7 20.55 7.45 21 8 21H16C16.55 21 17 20.55 17 20C17 19.45 16.55 19 16 19H13V15.9C14.63 15.57 15.98 14.44 16.61 12.94C19.08 12.63 21 10.55 21 8V7C21 5.9 20.1 5 19 5ZM5 8V7H7V10.82C5.84 10.4 5 9.3 5 8ZM19 8C19 9.3 18.16 10.4 17 10.82V7H19V8Z"/>
        </svg>
    </g>
    <g id="OfferTime" class="icon">
        <svg viewBox="0 0 24 24">
            <path d="M8.66667 4C7.75 4 7 4.72 7 5.6L7.00833 8.144C7.00833 8.568 7.18333 8.968 7.49167 9.272L10.3333 12L7.49167 14.744C7.18333 15.04 7.00833 15.448 7.00833 15.872L7 18.4C7 19.28 7.75 20 8.66667 20H15.3333C16.25 20 17 19.28 17 18.4V15.872C17 15.448 16.825 15.04 16.5167 14.744L13.6667 12L16.5083 9.28C16.825 8.976 17 8.568 17 8.144V5.6C17 4.72 16.25 4 15.3333 4H8.66667ZM15.3333 15.928V17.6C15.3333 18.04 14.9583 18.4 14.5 18.4H9.5C9.04167 18.4 8.66667 18.04 8.66667 17.6V15.928C8.66667 15.712 8.75833 15.512 8.90833 15.36L12 12.4L15.0917 15.368C15.2417 15.512 15.3333 15.72 15.3333 15.928Z" />
        </svg>
    </g>
    <g id="OfferVerified" class="icon">
        <svg viewBox="0 0 24 24">
            <path fill-rule="evenodd" clip-rule="evenodd" d="M12.856 5.18235C12.327 5.42072 11.7197 5.42062 11.1913 5.18079C10.2399 4.74892 9.11662 5.11456 8.60039 6.02421L8.56307 6.08996C8.27377 6.59973 7.78437 6.96464 7.21388 7.09596C6.19495 7.33049 5.50567 8.28299 5.60007 9.32599L5.6146 9.48656C5.6654 10.0478 5.48848 10.6059 5.12374 11.035L5.03102 11.1441C4.36649 11.9258 4.36497 13.0746 5.02742 13.8581L5.13196 13.9818C5.49567 14.4119 5.67112 14.9707 5.61868 15.5319L5.60555 15.6725C5.50801 16.7165 6.2069 17.6749 7.2265 17.9123C7.79546 18.0449 8.28851 18.4117 8.57569 18.9213L8.59957 18.9636C9.11618 19.8802 10.2486 20.2496 11.2067 19.8173C11.736 19.5787 12.3438 19.5787 12.8723 19.8189C13.8235 20.2512 14.9466 19.8858 15.4628 18.9763L15.5002 18.9106C15.7895 18.4007 16.2789 18.0359 16.8493 17.9045C17.8683 17.67 18.5576 16.7175 18.4632 15.6745L18.4486 15.5125C18.3978 14.9512 18.5748 14.3932 18.9394 13.9642L19.0322 13.855C19.6967 13.0733 19.6982 11.9245 19.0358 11.141L18.9313 11.0174C18.5676 10.5872 18.3921 10.0284 18.4446 9.46709L18.4576 9.32803C18.5552 8.28395 17.8566 7.32566 16.8369 7.08816C16.2678 6.95559 15.7746 6.58867 15.4874 6.07896L15.4636 6.03691C14.9469 5.12011 13.8145 4.75047 12.856 5.18235ZM10.2393 11.876C9.35641 11.0274 8.13745 12.3677 8.93135 13.2672C9.47151 13.7494 10.2275 14.4919 10.7428 15.0084C10.9239 15.1772 11.1603 15.2651 11.4018 15.2538C11.6434 15.2425 11.8714 15.1329 12.0376 14.9479L15.0773 11.1293C15.909 10.2064 14.5789 8.85911 13.7366 9.77656L11.317 12.9077C11.072 12.6766 10.7426 12.3599 10.4618 12.0899C10.3828 12.0139 10.3076 11.9416 10.2393 11.876Z" />
        </svg>
    </g>
    <g id="OfferDelivery" class="icon">
        <svg viewBox="0 0 24 24">
            <path d="M19.5 8H17V6C17 4.9 16.1 4 15 4H3C1.9 4 1 4.9 1 6V15C1 16.1 1.9 17 3 17C3 18.66 4.34 20 6 20C7.66 20 9 18.66 9 17H15C15 18.66 16.34 20 18 20C19.66 20 21 18.66 21 17H22C22.55 17 23 16.55 23 16V12.67C23 12.24 22.86 11.82 22.6 11.47L20.3 8.4C20.11 8.15 19.81 8 19.5 8ZM6 18C5.45 18 5 17.55 5 17C5 16.45 5.45 16 6 16C6.55 16 7 16.45 7 17C7 17.55 6.55 18 6 18ZM19.5 9.5L21.46 12H17V9.5H19.5ZM18 18C17.45 18 17 17.55 17 17C17 16.45 17.45 16 18 16C18.55 16 19 16.45 19 17C19 17.55 18.55 18 18 18Z" />
        </svg>
    </g>
    <g id="Settings" class="icon">
        <svg viewBox="0 0 24 24">
            <path d="M19.43 12.98C19.47 12.66 19.5 12.34 19.5 12C19.5 11.66 19.47 11.34 19.43 11.02L21.54 9.37C21.73 9.22 21.78 8.95 21.66 8.73L19.66 5.27C19.54 5.05 19.27 4.97 19.05 5.05L16.56 6.05C16.04 5.65 15.48 5.32 14.87 5.07L14.49 2.42C14.46 2.18 14.25 2 14 2H9.99999C9.74999 2 9.53999 2.18 9.50999 2.42L9.12999 5.07C8.51999 5.32 7.95999 5.66 7.43999 6.05L4.94999 5.05C4.71999 4.96 4.45999 5.05 4.33999 5.27L2.33999 8.73C2.20999 8.95 2.26999 9.22 2.45999 9.37L4.56999 11.02C4.52999 11.34 4.49999 11.67 4.49999 12C4.49999 12.33 4.52999 12.66 4.56999 12.98L2.45999 14.63C2.26999 14.78 2.21999 15.05 2.33999 15.27L4.33999 18.73C4.45999 18.95 4.72999 19.03 4.94999 18.95L7.43999 17.95C7.95999 18.35 8.51999 18.68 9.12999 18.93L9.50999 21.58C9.53999 21.82 9.74999 22 9.99999 22H14C14.25 22 14.46 21.82 14.49 21.58L14.87 18.93C15.48 18.68 16.04 18.34 16.56 17.95L19.05 18.95C19.28 19.04 19.54 18.95 19.66 18.73L21.66 15.27C21.78 15.05 21.73 14.78 21.54 14.63L19.43 12.98ZM12 15.5C10.07 15.5 8.49999 13.93 8.49999 12C8.49999 10.07 10.07 8.5 12 8.5C13.93 8.5 15.5 10.07 15.5 12C15.5 13.93 13.93 15.5 12 15.5Z" />
        </svg>
    </g>
    <g id="Logout" class="icon">
        <svg viewBox="0 0 24 24">
            <path d="M10.79 16.29C11.18 16.68 11.81 16.68 12.2 16.29L15.79 12.7C16.18 12.31 16.18 11.68 15.79 11.29L12.2 7.7C11.81 7.31 11.18 7.31 10.79 7.7C10.4 8.09 10.4 8.72 10.79 9.11L12.67 11H4C3.45 11 3 11.45 3 12C3 12.55 3.45 13 4 13H12.67L10.79 14.88C10.4 15.27 10.41 15.91 10.79 16.29ZM19 3H5C3.89 3 3 3.9 3 5V8C3 8.55 3.45 9 4 9C4.55 9 5 8.55 5 8V6C5 5.45 5.45 5 6 5H18C18.55 5 19 5.45 19 6V18C19 18.55 18.55 19 18 19H6C5.45 19 5 18.55 5 18V16C5 15.45 4.55 15 4 15C3.45 15 3 15.45 3 16V19C3 20.1 3.9 21 5 21H19C20.1 21 21 20.1 21 19V5C21 3.9 20.1 3 19 3Z" />
        </svg>
    </g>
</svg>
