<svg width="325" height="284" viewBox="0 0 325 284" fill="none" xmlns="http://www.w3.org/2000/svg">
<g clip-path="url(#clip0_1331_30432)">
<path fill-rule="evenodd" clip-rule="evenodd" d="M79.679 39.6099C165.594 3.06306 169.143 74.1096 222.614 92.2028C276.083 110.296 327.996 88.0649 311.076 177.87C294.155 267.677 164.78 285.753 104.334 242.971C-1.46769 168.088 42.841 55.2799 79.679 39.6099ZM206.242 39.6099C214.744 51.6323 243.864 75.465 276.592 71.4049C309.321 67.3459 269.556 26.1568 252.79 20.0707C219.745 8.07662 180.104 2.64821 206.242 39.6099Z" fill="#F6F7F9"/>
<path fill-rule="evenodd" clip-rule="evenodd" d="M116.409 10.5309L118.619 16.589C118.64 16.6449 118.672 16.6956 118.714 16.7379C118.756 16.7798 118.807 16.8124 118.863 16.8324L124.921 19.0426L118.863 21.2528C118.807 21.2733 118.756 21.3059 118.714 21.3477C118.672 21.3896 118.64 21.4408 118.619 21.4967L116.409 27.5548L114.199 21.4967C114.179 21.4408 114.146 21.3896 114.104 21.3477C114.062 21.3059 114.011 21.2733 113.956 21.2528L107.897 19.0426L113.956 16.8324C114.011 16.8124 114.062 16.7798 114.104 16.7379C114.146 16.6956 114.179 16.6449 114.199 16.589L116.409 10.5309Z" fill="#FF6B1D"/>
<path fill-rule="evenodd" clip-rule="evenodd" d="M104.367 33.8842L105.82 37.8679C105.834 37.9047 105.855 37.938 105.883 37.9659C105.91 37.9934 105.944 38.0148 105.98 38.028L109.964 39.4814L105.98 40.9347C105.944 40.9482 105.91 40.9696 105.883 40.9972C105.855 41.0247 105.834 41.0584 105.82 41.0951L104.367 45.0788L102.914 41.0951C102.9 41.0584 102.879 41.0247 102.851 40.9972C102.824 40.9696 102.79 40.9482 102.753 40.9347L98.7695 39.4814L102.753 38.028C102.79 38.0148 102.824 37.9934 102.851 37.9659C102.879 37.938 102.9 37.9047 102.914 37.8679L104.367 33.8842Z" fill="#FF6B1D"/>
<path fill-rule="evenodd" clip-rule="evenodd" d="M250.719 170.016L253.484 177.594C253.509 177.664 253.549 177.727 253.602 177.78C253.655 177.832 253.718 177.873 253.788 177.898L261.367 180.663L253.788 183.428C253.718 183.453 253.655 183.494 253.602 183.546C253.549 183.599 253.509 183.663 253.484 183.733L250.719 191.311L247.954 183.733C247.929 183.663 247.888 183.599 247.836 183.546C247.783 183.494 247.72 183.453 247.65 183.428L240.071 180.663L247.65 177.898C247.72 177.873 247.783 177.832 247.836 177.78C247.888 177.727 247.929 177.664 247.954 177.594L250.719 170.016Z" fill="#FF6B1D"/>
<path d="M267.012 169.769C268.59 169.769 269.869 168.49 269.869 166.911C269.869 165.333 268.59 164.054 267.012 164.054C265.434 164.054 264.154 165.333 264.154 166.911C264.154 168.49 265.434 169.769 267.012 169.769Z" fill="#FF6B1D"/>
<path d="M201.649 79.6039C201.721 79.981 201.794 80.3593 201.866 80.7389" stroke="#ECECEC" stroke-width="1.88467" stroke-miterlimit="1.5" stroke-linecap="round" stroke-linejoin="round"/>
<path d="M202.652 80.0562C205.793 98.2677 207.557 118.745 207.557 140.385C207.557 216.116 185.954 277.601 159.344 277.601C159.344 277.601 145.136 279.002 135.557 259.298" stroke="#ECECEC" stroke-width="1.88467" stroke-miterlimit="1.5" stroke-linecap="round" stroke-linejoin="round"/>
<path d="M52.3971 231.814C41.7956 231.038 28.9858 228.2 23.9121 218.843C10.2103 193.574 59.7735 140.152 134.523 99.6189C158.242 86.757 181.665 76.7295 203.03 69.8379" stroke="#ECECEC" stroke-width="1.90397" stroke-miterlimit="1.5" stroke-linecap="round" stroke-linejoin="round"/>
<path d="M206.628 68.7021C207.13 68.5482 207.631 68.3943 208.13 68.2425" stroke="#ECECEC" stroke-width="1.90397" stroke-miterlimit="1.5" stroke-linecap="round" stroke-linejoin="round"/>
<path d="M103.272 60.8145C104.067 60.9664 104.865 61.1223 105.666 61.2836" stroke="#ECECEC" stroke-width="1.85446" stroke-miterlimit="1.5" stroke-linecap="round" stroke-linejoin="round"/>
<path d="M111.375 62.5005C134.706 67.7264 160.505 76.7565 186.572 89.4318C234.92 112.942 275.717 148.857 290.846 170.604C305.975 192.352 313.578 223.571 285.122 226.218" stroke="#ECECEC" stroke-width="1.85446" stroke-miterlimit="1.5" stroke-linecap="round" stroke-linejoin="round"/>
<path d="M159.43 220.455C201.317 220.455 235.273 186.499 235.273 144.613C235.273 102.726 201.317 68.7702 159.43 68.7702C117.544 68.7702 83.5878 102.726 83.5878 144.613C83.5878 186.499 117.544 220.455 159.43 220.455Z" fill="white"/>
<path fill-rule="evenodd" clip-rule="evenodd" d="M84.6823 124.987C86.0459 135.456 90.4989 148.79 96.1008 158.493C118.874 197.937 169.387 211.472 208.832 188.699C218.534 183.097 226.671 175.816 233.087 167.431C227.742 185.559 215.704 201.748 198.061 211.934C161.583 232.994 114.048 220.204 92.9888 183.728C82.8019 166.083 80.2454 143.359 84.6823 124.987Z" fill="#ECECEC"/>
<path fill-rule="evenodd" clip-rule="evenodd" d="M115.24 81.9997C115.767 83.3619 116.335 84.4346 116.755 84.5302C117.835 84.7736 125.571 83.8768 127.593 82.8425C129.62 81.8077 133.258 78.3606 135.128 78.1172C137.002 77.8737 144.421 77.8264 144.421 79.2871C144.421 80.7478 142.345 81.2294 141.422 82.3247C140.495 83.4204 138.654 83.5279 137.991 84.269C137.323 85.0101 135.807 86.5206 137.554 87.4335C139.301 88.3463 144.137 90.3426 145.306 90.7504C146.481 91.1586 146.534 95.3467 143.556 99.8088C142.238 101.791 142.773 102.644 144.454 103.616C146.135 104.588 146.316 107.167 145.611 108.412C144.31 110.725 138.007 110.248 135.844 109.918C133.258 109.525 131.544 109.949 130.666 110.479C129.785 111.008 127.07 114.784 126.992 116.153C126.914 117.523 127.33 119.753 127.046 120.574C126.765 121.396 124.59 124.151 123.326 123.908C120.203 123.304 118.49 118.121 111.841 117.718C109.419 117.571 103.994 123.5 102.429 124.696C100.867 125.891 101.226 128.033 101.378 129.038C101.53 130.042 103.462 134.279 104.286 135.284C105.106 136.288 106.124 138.502 107.78 138.049C109.435 137.597 113.753 135.268 114.84 135.512C115.932 135.755 118.444 136.519 118.959 137.841C119.47 139.162 121.435 145.027 123.149 145.571C124.858 146.115 126.943 146.311 128.384 147.653C129.698 148.87 132.763 150.03 133.505 151.071C134.324 152.218 137.356 156.472 137.191 161.641C137.068 165.562 134.514 169.489 133.925 170.402C131.293 174.463 126.605 176.96 125.488 179.146C124.372 181.331 126.543 184.998 128.265 186.976C129.987 188.954 136.681 195.14 138.312 196.698C139.696 198.022 140.005 200.673 139.548 201.373C139.099 202.073 133.929 202.274 131.993 201.549C130.061 200.824 129.052 199.015 128.426 199.224C127.425 199.559 124.393 197.276 122.35 195.721C121.414 195.011 117.888 196.92 113.584 192.145C111.231 189.535 107.442 187.785 104.208 181.134C103.714 180.12 103.541 177.68 103.075 176.645C102.614 175.61 101.605 175.104 101.296 173.783C100.991 172.462 100.954 167.276 99.6685 165.754C98.3833 164.233 96.2248 162.222 95.2527 158.903C94.2764 155.585 92.9129 150.006 93.4525 147.247C93.9921 144.489 95.6687 144.961 95.9076 143.914C96.1548 142.867 96.8839 137.997 96.6491 136.659C96.2907 134.625 95.1661 132.22 93.7079 130.781C92.2538 129.342 89.4568 126.32 88.3404 126.046C87.7555 125.903 86.4414 125.83 85.2427 125.387C89.8357 107.606 100.661 92.3202 115.24 81.9997ZM193.989 76.1914C214.544 86.6113 229.781 106.029 234.502 129.245C233.621 128.585 232.883 128.09 232.644 127.967C232.01 127.632 227.392 125.451 225.736 124.966C224.084 124.481 223.85 125.097 224.669 126.461C225.489 127.825 229.229 131.1 230.164 131.374C230.984 131.614 234.07 131.614 235.066 132.344C235.136 132.777 235.202 133.212 235.264 133.647C234.799 135.151 233.167 137.535 232.677 138.14C232.059 138.901 229.106 141.441 227.8 141.031C226.494 140.621 222.297 137.034 221.654 136.852C221.011 136.669 217.308 132.458 216.793 132.063C216.282 131.667 214.404 132.715 214.688 133.719C214.972 134.723 217.65 138.43 219.075 139.372C220.496 140.313 226.325 145.192 227.108 146.86C227.891 148.529 227.442 155.001 226.951 156.158C226.465 157.314 221.798 157.634 220.896 158.333C219.998 159.033 220.122 162.435 220.146 163.847C220.175 165.26 219.879 167.711 218.832 169.429C217.786 171.147 214.445 180.474 213.947 183.214C213.448 185.954 210.61 195.281 210.124 197.113C209.634 198.946 207.895 201.577 206.099 201.605C204.303 201.634 201.63 199.196 200.604 198.313C199.574 197.431 198.133 194.399 197.77 191.879C197.412 189.36 192.407 162.751 192.201 161.296C191.995 159.84 189.845 155.69 188.947 155.325C188.049 154.96 182.092 153.351 180.918 153.337C179.74 153.323 175.711 156.004 173.771 156.544C171.827 157.083 170.204 152.664 169.281 150.947C168.358 149.23 164.869 143.568 164.128 141.766C163.382 139.963 166.006 136.781 166.958 135.46C167.905 134.139 169.285 130.112 170.496 128.834C171.703 127.555 178.644 127.288 180.737 126.466C182.829 125.644 189.387 121.001 193.161 121.554C196.93 122.107 205.016 125.933 206.017 126.645C207.018 127.358 209.535 129.615 210.128 129.798C210.717 129.981 212.369 128.785 212.266 128.024C212.163 127.263 211.644 125.338 211.644 124.443C211.644 123.548 211.813 121.447 211.479 120.339C211.15 119.231 210.219 118.144 210.371 117.133C210.528 116.121 211.199 114.932 212.414 114.977C213.625 115.021 213.877 112.261 214.75 112.292C215.623 112.322 218.066 113.879 218.606 114.244C219.145 114.61 221.242 114.457 221.86 114.366C222.478 114.275 222.758 112.911 222.424 112.18C222.091 111.45 219.154 106.449 218.614 106.044C218.07 105.64 216.295 104.424 215.026 105.337C213.757 106.251 210.903 110.062 210.231 110.762C209.564 111.462 208.526 110.764 207.871 110.734C207.22 110.703 207.014 111.691 206.396 111.874C205.778 112.056 204.411 111.634 203.768 111.33C203.125 111.025 203.603 109.789 203.216 109.454C202.833 109.119 202.141 107.706 201.399 108.253C200.654 108.801 200.641 110.093 200.95 112.206C201.259 114.318 203.368 117.236 203.088 117.936C202.804 118.635 201.663 117.51 201.045 117.57C200.431 117.631 197.136 120.928 195.871 120.654C194.607 120.38 197.35 118.177 197.193 117.233C197.041 116.29 195.822 110.669 194.672 110.335C193.519 110 187.661 112.655 186.582 113.294C185.503 113.934 182.578 118.164 181.614 119.191C180.646 120.218 177.318 118.47 176.395 117.983C175.468 117.496 175.493 115.577 175.167 114.17C174.838 112.763 174.282 110.523 175.242 108.828C176.197 107.133 179.217 104.004 180.024 103.791C180.832 103.578 182.129 104.639 182.982 105.033C183.839 105.427 184.897 105.608 185.383 105.273C185.874 104.938 184.774 102.66 185.008 101.747C185.239 100.834 188.889 98.9013 189.56 98.5969C190.228 98.2925 190.784 98.5343 192.168 98.5734C193.552 98.6125 195.982 98.1689 196.637 97.8039C197.292 97.4385 197.638 94.3536 198.549 93.4403C199.459 92.5275 206.289 89.728 207.253 89.5455C208.213 89.3626 207.24 86.9144 206.829 86.1841C206.417 85.4533 205.296 84.0931 204.217 85.6197C203.142 87.1468 200.687 90.1996 199.813 90.1996C198.94 90.1996 198.343 87.6114 196.559 87.6848C194.775 87.7581 192.65 89.1599 191.674 89.1599C190.697 89.1599 187.781 85.4566 187.41 84.4849C187.039 83.5127 186.899 82.1488 187.439 81.3579C187.826 80.7878 191.418 77.8482 193.989 76.1914ZM148.656 95.9865C149.871 95.4938 152.379 97.3038 153.034 99.0319C153.413 100.031 150.678 103.409 149.463 102.902C148.487 103.024 146.74 100.201 146.818 99.1971C146.892 98.1928 147.996 96.2517 148.656 95.9865ZM177.309 90.165C177.499 91.0202 180.148 96.3465 179.711 96.8939C179.274 97.4418 177.878 99.9571 177.956 100.779C178.03 101.601 179.538 101.844 180.308 101.418C181.079 100.992 188.292 96.7139 188.728 95.5758C189.165 94.4372 188.963 93.2364 188.654 92.506C188.345 91.7757 186.664 88.3467 186.125 87.7688C185.585 87.1904 183.797 86.7357 182.957 86.1775C181.824 85.429 180.691 84.7184 179.835 84.5055C178.512 84.178 177.001 88.7941 177.309 90.165ZM173.948 91.5957C174.644 91.3431 176.984 93.4658 177.141 94.3181C177.293 95.17 177.342 97.1835 176.597 97.4879C175.851 97.7924 172.412 95.9671 172.206 95.1453C172 94.3235 173.396 91.7959 173.948 91.5957Z" fill="#BABABA"/>
<path fill-rule="evenodd" clip-rule="evenodd" d="M94.2571 155.07C94.8567 156.249 95.4764 157.388 96.1096 158.486C105.156 174.161 118.582 185.741 133.961 192.585C135.826 194.356 137.591 195.993 138.319 196.694C139.707 198.021 140.016 200.668 139.558 201.369C139.107 202.069 133.94 202.271 132.007 201.544C130.067 200.823 129.063 199.011 128.437 199.22C127.433 199.557 124.402 197.273 122.361 195.717C121.424 195.003 117.895 196.916 113.59 192.14C111.239 189.533 107.453 187.782 104.22 181.133C103.721 180.116 103.546 177.677 103.088 176.64C102.623 175.609 101.613 175.097 101.31 173.777C101 172.457 100.966 167.27 99.6797 165.747C98.3931 164.225 96.2376 162.218 95.2608 158.897C94.9442 157.805 94.5805 156.472 94.2571 155.07ZM213.313 185.922C212.296 189.789 210.511 195.69 210.134 197.111C209.642 198.944 207.904 201.571 206.106 201.598C204.314 201.631 201.64 199.193 200.616 198.31C199.848 197.65 198.851 195.798 198.244 193.851C201.842 192.403 205.385 190.692 208.841 188.691C210.37 187.809 211.858 186.886 213.313 185.922Z" fill="#A5A5A5"/>
<path fill-rule="evenodd" clip-rule="evenodd" d="M159.432 66.0772C116.086 66.0772 80.8948 101.268 80.8948 144.614C80.8948 187.96 116.086 223.151 159.432 223.151C202.777 223.151 237.969 187.96 237.969 144.614C237.969 101.268 202.777 66.0772 159.432 66.0772ZM159.432 68.7717C201.29 68.7717 235.274 102.755 235.274 144.614C235.274 186.473 201.29 220.457 159.432 220.457C117.573 220.457 83.5892 186.473 83.5892 144.614C83.5892 102.755 117.573 68.7717 159.432 68.7717Z" fill="#8E949C"/>
<path fill-rule="evenodd" clip-rule="evenodd" d="M112.416 140.385C112.416 139.642 112.418 138.902 112.422 138.162C112.427 137.457 111.856 136.881 111.151 136.877C110.445 136.873 109.87 137.442 109.867 138.148C109.862 138.892 109.86 139.637 109.86 140.385C109.86 141.09 110.433 141.663 111.138 141.663C111.844 141.663 112.416 141.09 112.416 140.385Z" fill="#DFDFDF"/>
<path fill-rule="evenodd" clip-rule="evenodd" d="M112.575 131.731C113.521 89.0405 121.407 52.2055 133.058 29.1876C140.596 14.2961 149.604 5.20662 159.438 4.51533C162.959 4.26737 166.611 5.70129 170.113 8.20221C175.627 12.1421 180.731 18.7243 184.327 26.0718C184.655 26.7393 185.463 27.016 186.13 26.6892C186.798 26.3623 187.074 25.5546 186.747 24.8871C182.942 17.1151 177.513 10.1771 171.678 6.00936C167.614 3.10519 163.337 1.53979 159.249 1.82782C148.7 2.56921 138.741 11.9968 130.653 27.9716C118.87 51.2512 110.837 88.4945 109.881 131.672C109.864 132.415 110.455 133.033 111.198 133.049C111.942 133.065 112.559 132.475 112.575 131.731Z" fill="#DCDCDC"/>
<path fill-rule="evenodd" clip-rule="evenodd" d="M215.924 228.735C215.19 228.597 214.454 228.453 213.715 228.305C212.986 228.16 212.276 228.634 212.129 229.365C211.986 230.093 212.459 230.803 213.189 230.948C213.936 231.097 214.681 231.243 215.424 231.383C216.153 231.521 216.859 231.04 216.997 230.309C217.136 229.58 216.655 228.874 215.924 228.735Z" fill="#DCDCDC"/>
<path fill-rule="evenodd" clip-rule="evenodd" d="M209.736 227.49C185.944 222.365 159.472 213.205 132.714 200.194C86.4854 177.714 49.8256 148.814 31.1371 122.631C18.9721 105.586 14.3977 89.7815 20.2357 77.776C20.5607 77.1076 20.282 76.2999 19.6135 75.9748C18.945 75.6497 18.1376 75.9293 17.8126 76.5977C11.6306 89.3108 16.0616 106.146 28.9432 124.195C47.8249 150.652 84.8276 179.905 131.535 202.618C158.504 215.732 185.189 224.958 209.169 230.125C209.896 230.28 210.613 229.818 210.769 229.091C210.926 228.364 210.463 227.646 209.736 227.49Z" fill="#DCDCDC"/>
<path d="M294.785 93.0485C285.012 119.961 244.599 157.441 189.542 188.245" stroke="#DCDCDC" stroke-width="2.66868" stroke-miterlimit="1.5" stroke-linecap="round" stroke-linejoin="round"/>
<path d="M185.799 190.306C185.258 190.601 184.715 190.898 184.171 191.193" stroke="#DCDCDC" stroke-width="2.52823" stroke-miterlimit="1.5" stroke-linecap="round" stroke-linejoin="round"/>
<path fill-rule="evenodd" clip-rule="evenodd" d="M232.671 66.8825C232.918 67.4337 235.118 71.0671 235.423 71.482C236.61 73.0883 238.346 74.2797 240.426 74.7243L292.282 85.737C296.897 86.715 301.471 83.6388 302.488 78.8733L307.574 55.0221C308.013 52.9831 307.722 50.9561 306.887 49.2313C306.638 48.7215 304.67 45.4793 304.403 45.0881C303.212 43.3633 301.413 42.083 299.238 41.6266L247.382 30.6139C242.768 29.63 238.194 32.7062 237.179 37.4716L232.091 61.3228C231.675 63.2728 231.92 65.2051 232.671 66.8825Z" fill="#FFA884"/>
<path fill-rule="evenodd" clip-rule="evenodd" d="M305.763 52.0265C306.779 47.2605 303.856 42.5963 299.241 41.6166L247.385 30.6056C242.77 29.6242 238.197 32.6975 237.181 37.4636L232.093 61.3127C231.078 66.0787 233.999 70.7446 238.615 71.7243L290.471 82.7353C295.086 83.715 299.66 80.6417 300.677 75.8763L305.763 52.0265Z" fill="#FFF1E5"/>
<path fill-rule="evenodd" clip-rule="evenodd" d="M301.836 76.118L306.922 52.2683C308.077 46.8507 304.733 41.5655 299.487 40.4514L247.631 29.4405C242.387 28.3254 237.176 31.795 236.022 37.2109L230.934 61.06C229.78 66.4776 233.122 71.7646 238.369 72.8786L290.225 83.8895C295.47 85.0029 300.681 81.5333 301.836 76.118ZM305.763 52.0211C306.779 47.255 303.856 42.5909 299.241 41.6111L247.385 30.6002C242.77 29.6187 238.197 32.6921 237.181 37.4581L232.093 61.3072C231.078 66.0733 233.999 70.7391 238.615 71.7189L290.471 82.7298C295.086 83.7096 299.66 80.6363 300.677 75.8708L305.763 52.0211Z" fill="#FF6B1D"/>
<path fill-rule="evenodd" clip-rule="evenodd" d="M233.263 73.0784C234.833 75.2071 237.13 76.7767 239.878 77.356L291.734 88.3698C297.777 89.6497 303.805 85.6754 305.132 79.4376L310.225 55.5845C310.784 52.9304 310.407 50.2965 309.323 48.0601C309.053 47.5077 306.924 43.9847 306.635 43.5603C305.065 41.2834 302.681 39.5993 299.811 38.9863L247.955 27.9793C241.912 26.6926 235.884 30.667 234.557 36.9115L229.471 60.7579C228.925 63.2975 229.248 65.8101 230.225 67.9859C230.501 68.5921 232.926 72.6204 233.263 73.0784ZM307.322 50.2696C307.315 50.9432 307.234 51.6303 307.093 52.3174L302.007 76.1638C300.828 81.6673 295.533 85.1903 290.198 84.0586L238.342 73.0516C237.547 72.8832 236.8 72.6137 236.099 72.2701C237.231 73.4759 238.72 74.3584 240.437 74.7221L292.293 85.7359C296.908 86.7127 301.481 83.641 302.499 78.8718L307.585 55.0254C307.935 53.375 307.82 51.7448 307.322 50.2696ZM249.545 31.1385L248.945 33.9543L246.783 33.4962C245.193 33.1594 243.617 33.5434 242.364 34.4258L240.808 32.0614C239.797 32.7754 238.928 33.7118 238.282 34.8233L240.673 36.2783C240.356 36.8172 240.121 37.4167 239.979 38.0634L238.618 44.4629L235.89 43.8835L235.089 47.6289L237.817 48.2083L235.85 57.4369L233.122 56.8576L232.32 60.6096L235.048 61.1823C234.988 61.4787 234.9 61.9098 234.9 61.9098C234.469 63.9104 235.089 65.8842 236.362 67.2314L234.348 69.2523C235.19 70.1415 236.22 70.8487 237.399 71.3001L238.403 68.5989C238.672 68.7067 238.949 68.7875 239.238 68.8481L246.897 70.4783L246.298 73.2941L249.929 74.062L250.528 71.2462L259.467 73.1459L258.861 75.9616L262.492 76.7296L263.098 73.9138L272.03 75.8134L271.431 78.6291L275.062 79.3971L275.661 76.5814L284.594 78.481L283.994 81.2968L287.625 82.0647L288.225 79.2489L291.094 79.862C292.516 80.1583 293.923 79.8889 295.095 79.1951L296.456 81.6875C297.527 81.0543 298.464 80.192 299.198 79.1479L296.941 77.4908C297.386 76.8508 297.723 76.1098 297.891 75.288L299.104 69.6161L301.832 70.1955L302.633 66.4501L299.905 65.8707L301.872 56.6421L304.6 57.2214L305.395 53.4693L302.674 52.89L302.977 51.4417C303.442 49.2659 302.674 47.1305 301.165 45.7833L303.004 43.594C302.101 42.7924 301.017 42.1793 299.797 41.829L299.016 44.6044C298.895 44.564 298.767 44.5303 298.639 44.5034L290.272 42.7317L290.872 39.9159L287.248 39.1412L286.641 41.957L277.709 40.0641L278.309 37.2484L274.678 36.4737L274.078 39.2895L265.139 37.3966L265.745 34.5741L262.115 33.8062L261.515 36.6219L252.576 34.729L253.176 31.9065L249.545 31.1385ZM274.914 56.8846L274.833 56.8846C272.024 56.8711 269.801 58.7775 269.215 61.5124L269.201 61.573C268.541 64.6919 270.286 67.6895 273.667 68.4103C277.062 69.1311 279.905 67.0832 280.599 64.0048L280.619 63.9307L280.633 63.8701C281.3 60.7512 279.548 57.7468 276.166 57.0328C275.735 56.9385 275.318 56.8913 274.914 56.8846ZM258.08 63.3244C257.884 64.227 258.497 65.1229 259.454 65.325C260.033 65.453 260.673 65.2981 261.097 64.9209L279.562 49.1715C279.885 48.9156 280.101 48.5989 280.195 48.1543C280.39 47.2517 279.777 46.3558 278.821 46.1537C278.241 46.0324 277.601 46.1806 277.177 46.5579L258.699 62.314C258.423 62.5767 258.174 62.8798 258.08 63.3244ZM276.82 63.1224L276.807 63.183C276.53 64.4561 275.661 65.5069 274.415 65.2375C273.223 64.9882 272.731 63.6477 273.021 62.314L273.027 62.2534C273.31 60.9533 274.173 59.9361 275.419 60.1988C276.611 60.4547 277.103 61.7953 276.82 63.1224ZM257.655 47.5481L257.642 47.6087C256.975 50.7344 258.726 53.732 262.108 54.4461C265.523 55.1736 268.393 53.0921 269.06 49.9664L269.073 49.9058C269.733 46.7869 267.989 43.7893 264.6 43.0685C261.185 42.341 258.329 44.3956 257.655 47.5481ZM265.26 49.1648L265.247 49.2255C264.971 50.4919 264.102 51.5427 262.856 51.28C261.663 51.024 261.172 49.6835 261.454 48.3565L261.468 48.2958C261.744 46.9958 262.613 45.9718 263.859 46.2345C265.052 46.4905 265.537 47.831 265.26 49.1648Z" fill="#FF6B1D"/>
<path fill-rule="evenodd" clip-rule="evenodd" d="M16.3353 56.0409H16.3341L16.3353 56.0473C16.3347 56.0855 16.3341 56.1173 16.3341 56.1555C16.3341 56.4869 16.3666 56.8118 16.429 57.1368C16.4921 57.4553 17.2394 61.0169 17.2796 61.189C17.5019 62.1319 17.9811 62.9985 18.6749 63.693C24.982 70.0006 37.7261 82.7434 44.0331 89.0511C45.0162 90.0323 46.3504 90.5866 47.7406 90.5866C49.1315 90.5866 50.4657 90.0323 51.4488 89.0511C59.3315 81.1697 77.5263 62.973 83.5676 56.9329C84.8164 55.6841 85.3816 53.9065 85.084 52.1671L82.0958 30.0583C81.9646 29.2874 81.6645 28.5801 81.235 27.9685C81.1395 27.8283 78.6763 24.6681 78.5947 24.5726C77.8544 23.6869 76.8165 23.0689 75.6301 22.8523L53.8228 19.7621C52.1146 19.4563 50.365 20.0043 49.1378 21.234C43.229 27.1402 25.5121 44.8591 17.832 52.5366C16.8998 53.4732 16.3647 54.7284 16.3353 56.0409ZM74.2399 31.2498C74.1641 31.8487 73.8958 32.4285 73.4352 32.8873C72.7165 33.6072 71.7047 33.8621 70.7821 33.6391C70.8726 33.0529 71.1434 32.4858 71.5957 32.0334C72.3132 31.3198 73.3148 31.0586 74.2399 31.2498Z" fill="#FFA884"/>
<path fill-rule="evenodd" clip-rule="evenodd" d="M81.5912 53.6616C82.8094 52.4435 83.3523 50.703 83.0462 48.9923L79.9668 27.2298C79.5928 25.1264 77.9395 23.4636 75.8384 23.0727L53.8458 19.7919C52.123 19.4736 50.3632 20.0117 49.1355 21.2394C43.2262 27.1487 25.5079 44.867 17.8287 52.5462C16.8709 53.504 16.3392 54.8114 16.3493 56.1782C16.3594 57.545 16.9104 58.8604 17.8849 59.8349C24.1269 66.0769 36.7394 78.6894 42.9814 84.9314C43.9534 85.9034 45.2713 86.4569 46.6356 86.4646C48.0024 86.4747 49.3099 85.943 50.2677 84.9851C57.9564 77.2964 75.701 59.5518 81.5912 53.6616ZM73.6719 29.1419C74.7894 30.2594 74.8027 32.0642 73.7016 33.1653C72.5981 34.2688 70.7958 34.2531 69.6783 33.1356C68.5608 32.0181 68.5451 30.2157 69.6486 29.1122C70.7497 28.0111 72.5544 28.0244 73.6719 29.1419Z" fill="#FFF1E5"/>
<path fill-rule="evenodd" clip-rule="evenodd" d="M13.6514 56.1785C13.6514 56.6837 13.6985 57.1889 13.7995 57.6739C13.8602 58.004 14.6281 61.655 14.6685 61.8369C15.0054 63.2583 15.7328 64.5718 16.7837 65.6227C23.0888 71.9279 35.834 84.6729 42.1391 90.9781C43.6279 92.4668 45.6486 93.3021 47.7504 93.3021C49.8588 93.3021 51.8798 92.4668 53.3685 90.9781C61.2499 83.0966 79.4446 64.902 85.4871 58.8595C87.3395 57.007 88.1884 54.3664 87.7573 51.7797C87.764 51.7864 84.773 29.6577 84.7662 29.6308C84.5641 28.4586 84.1061 27.3741 83.4527 26.4445L80.5965 22.7732C79.4648 21.4663 77.902 20.5435 76.1169 20.2269C76.0833 20.2202 76.0562 20.2134 76.0225 20.2134L54.2577 17.1214C51.6979 16.6836 49.0841 17.5122 47.2451 19.3512C41.3374 25.2589 23.621 42.9753 15.9416 50.6547C14.5135 52.0828 13.6985 53.9959 13.6514 56.0101V56.1785ZM81.506 28.398L84.3891 48.7887C84.7663 50.9309 84.0793 53.1067 82.5569 54.6291C76.6693 60.5234 58.9192 78.2667 51.2331 85.9528C50.0206 87.1654 48.3702 87.839 46.6389 87.8323C44.9212 87.8188 43.2707 87.125 42.0447 85.899L17.2754 61.1296L17.2956 61.2172C17.5179 62.1536 17.9962 63.0225 18.6901 63.7163C24.9952 70.0215 37.7402 82.7666 44.0454 89.0717C45.0289 90.0552 46.3627 90.6076 47.7504 90.6076C49.1448 90.6076 50.4786 90.0552 51.4621 89.0717C59.3435 81.1903 77.5382 62.9955 83.5806 56.9531C84.8268 55.7069 85.3927 53.9285 85.0963 52.1906L82.1054 30.0821C82.0044 29.4759 81.7956 28.91 81.506 28.398ZM40.3876 82.3355L42.9945 84.9491C43.9713 85.9192 45.285 86.4716 46.6524 86.485C48.0199 86.4918 49.3199 85.9595 50.2832 84.9963C57.9693 77.3102 75.7127 59.5668 81.6069 53.6793C82.8195 52.46 83.3652 50.7153 83.0621 49.0043L79.9836 27.2461C79.8758 26.6398 79.6603 26.0672 79.3571 25.5553C79.3571 25.5553 78.4881 24.4573 78.4274 24.3899C77.7269 23.7297 76.8376 23.2717 75.8541 23.0898L53.8602 19.8093C52.1357 19.4859 50.3776 20.0315 49.1516 21.2575C43.2438 27.1652 17.7536 52.6553 17.7536 52.6553L17.7469 52.6621C16.851 53.6119 16.3526 54.8716 16.3661 56.1919C16.3728 57.5594 16.9251 58.873 17.9018 59.8497L19.9901 61.938L30.0609 55.3701C30.8086 54.8851 31.7921 54.9861 32.4253 55.6126C35.4027 58.5496 43.6817 66.714 46.6592 69.6578C47.2924 70.2843 47.4068 71.2677 46.9285 72.0222L40.3876 82.3355ZM47.2654 61.1027C47.7706 61.6012 48.5789 61.5944 49.0706 61.0892C49.5691 60.5907 49.5624 59.7824 49.0639 59.2839C48.5587 58.7922 47.7504 58.7922 47.2586 59.2974C46.7601 59.7959 46.7669 60.6109 47.2654 61.1027ZM51.8663 60.0586C52.3648 60.5503 53.1731 60.5503 53.6716 60.0451C54.1633 59.5466 54.1566 58.7382 53.6581 58.2397C53.1529 57.748 52.3446 57.748 51.8528 58.2532C51.3543 58.7517 51.3611 59.5601 51.8663 60.0586ZM44.0252 57.9029C44.5237 58.3947 45.3321 58.3879 45.8306 57.8894C46.3224 57.391 46.3223 56.5759 45.8171 56.0842C45.3186 55.5857 44.5102 55.5924 44.0117 56.0977C43.5132 56.5961 43.5199 57.4044 44.0252 57.9029ZM48.5654 56.7982C49.0639 57.2899 49.8724 57.2899 50.3709 56.7847C50.8626 56.2862 50.8559 55.4779 50.3574 54.9794C49.8522 54.4877 49.0437 54.4944 48.5519 54.9929C48.0534 55.4981 48.0602 56.3064 48.5654 56.7982ZM40.7784 54.6965C41.2836 55.1949 42.0919 55.1882 42.5837 54.6897C43.0822 54.1845 43.0754 53.3762 42.5702 52.8844C42.0717 52.3859 41.2634 52.3927 40.7649 52.8912C40.2732 53.3964 40.2799 54.2047 40.7784 54.6965ZM45.258 53.5378C45.7632 54.0363 46.5715 54.0296 47.0632 53.5311C47.5617 53.0259 47.555 52.2176 47.0565 51.7191C46.5513 51.2273 45.743 51.234 45.2512 51.7325C44.7527 52.2377 44.7595 53.0461 45.258 53.5378ZM41.9572 50.2775C42.4625 50.776 43.2708 50.7692 43.7625 50.2707C44.261 49.7655 44.2543 48.9571 43.749 48.4654C43.2506 47.9669 42.4422 47.9736 41.9438 48.4721C41.452 48.9774 41.4588 49.7857 41.9572 50.2775ZM74.4866 28.3576C72.9238 26.788 70.4045 26.788 68.8619 28.3306C67.3193 29.8732 67.3261 32.3927 68.8889 33.9555C70.4517 35.5183 72.971 35.525 74.5136 33.9824C76.0562 32.4398 76.0562 29.9204 74.4866 28.3576ZM73.1866 31.2475C72.6073 31.3418 72.055 31.6112 71.6104 32.0558C71.4555 32.2107 71.3207 32.3791 71.2062 32.561C71.0041 32.4869 70.8087 32.3656 70.647 32.1972C70.0542 31.6112 70.034 30.6614 70.6133 30.0821C71.1926 29.5028 72.1425 29.5229 72.7353 30.109C73.0452 30.4256 73.2001 30.8433 73.1866 31.2475Z" fill="#FF6B1D"/>
<path fill-rule="evenodd" clip-rule="evenodd" d="M95.6843 235.119C101.927 228.881 115.702 215.489 122.104 210.996C127.55 207.176 133.579 206.9 135.554 208.645L109.68 237.941L147.285 245.533C146.759 248.12 141.787 251.548 135.144 251.791C127.534 252.067 109.261 249.837 100.25 248.618L93.0396 256.782C93.9585 257.186 94.822 257.732 95.6021 258.419C100.177 262.461 100.175 269.945 95.6001 275.125C91.0241 280.305 83.5954 281.235 79.0215 277.193C74.4469 273.151 74.4482 265.667 79.0235 260.487C79.0767 260.427 89.7032 248.2 91.2087 246.496C91.4027 246.274 91.5428 245.499 91.662 244.495C90.5688 243.303 89.5509 242.232 89.14 242.151C86.9137 241.7 71.0807 238.372 71.0019 238.359C64.2353 236.991 59.7295 231.023 60.9474 225.034C62.1647 219.046 68.6469 215.294 75.4142 216.661C82.1808 218.029 86.6867 223.997 85.4688 229.985C85.2613 231.003 84.9002 231.959 84.4105 232.842L95.6843 235.119ZM92.6833 272.552C95.6493 269.19 95.6499 264.34 92.6853 261.72C89.72 259.106 84.9056 259.706 81.9403 263.061C78.9743 266.422 78.9736 271.272 81.9382 273.893C84.9035 276.506 89.718 275.907 92.6833 272.552ZM74.6375 220.481C79.0235 221.363 81.9437 225.23 81.1548 229.116C80.3654 232.997 76.1639 235.428 71.7786 234.539C67.3926 233.657 64.4725 229.783 65.2613 225.903C66.0508 222.023 70.2522 219.591 74.6375 220.481Z" fill="#FFF1E5"/>
<path fill-rule="evenodd" clip-rule="evenodd" d="M91.2073 246.503C89.7018 248.208 79.0758 260.433 79.0226 260.494C74.4471 265.674 74.4462 273.16 79.0205 277.2C83.5948 281.24 91.0233 280.315 95.5988 275.134C100.174 269.954 100.175 262.468 95.601 258.428C94.8206 257.738 93.9567 257.194 93.0381 256.79L135.552 208.656C133.577 206.911 127.548 207.183 122.103 211.004C113.906 216.757 93.6206 237.1 92.5379 238.326C91.9026 239.045 91.8425 245.784 91.2073 246.503ZM92.6825 272.558C95.6474 269.202 95.6481 264.35 92.6833 261.731C89.7186 259.113 84.904 259.713 81.9391 263.069C78.9729 266.428 78.9723 271.279 81.9371 273.898C84.9018 276.517 89.7164 275.917 92.6825 272.558Z" fill="#FFF1E5"/>
<path fill-rule="evenodd" clip-rule="evenodd" d="M93.3176 235.982L110.138 239.377L98.8866 252.115C95.5099 251.657 93.2246 251.317 92.7675 251.225C92.229 251.116 90.8219 249.592 89.3799 248.012C89.9974 246.321 90.1108 239.346 90.8134 238.551C91.0354 238.3 91.934 237.375 93.3176 235.982Z" fill="#FFA884"/>
<path fill-rule="evenodd" clip-rule="evenodd" d="M89.1396 242.139C86.9132 241.69 71.0811 238.363 71.0025 238.347C64.2357 236.981 59.7304 231.011 60.948 225.022C62.1654 219.034 68.6476 215.282 75.4144 216.648C82.1812 218.013 86.6864 223.984 85.469 229.972C85.2613 230.993 84.8996 231.95 84.4102 232.828L147.284 245.519C146.759 248.104 141.786 251.532 135.144 251.776C125.144 252.144 96.7228 248.181 95.1215 247.857C94.182 247.668 90.0791 242.329 89.1396 242.139ZM74.6382 220.465C79.0231 221.35 81.9431 225.22 81.154 229.101C80.3649 232.982 76.1636 235.414 71.7787 234.529C67.3921 233.644 64.4721 229.774 65.2612 225.893C66.0503 222.012 70.2516 219.58 74.6382 220.465Z" fill="#FFF1E5"/>
<path fill-rule="evenodd" clip-rule="evenodd" d="M135.493 207.8L108.915 236.564L111.799 237.365L137.328 208.757L135.493 207.8Z" fill="#FFA884"/>
<path fill-rule="evenodd" clip-rule="evenodd" d="M96.8789 250.968L92.2423 256.417C92.2423 256.417 93.3963 256.666 94.6883 257.374C96.02 255.791 100.178 250.786 100.178 250.786L96.8789 250.968Z" fill="#FFA884"/>
<path fill-rule="evenodd" clip-rule="evenodd" d="M94.3535 265.104C93.9735 261.81 90.889 258.597 86.6256 259.459C80.503 260.692 76.2727 267.987 81.527 272.669C80.9315 269.038 81.0817 261.891 87.5964 261.817C94.1117 261.736 93.6583 263.797 94.3535 265.104Z" fill="#FFA884"/>
<path fill-rule="evenodd" clip-rule="evenodd" d="M80.7869 226.032C80.9951 221.72 74.8853 218.662 70.6219 219.518C64.5 220.751 62.3679 227.332 66.855 231.461C66.2595 227.83 65.9604 221.997 72.4757 221.916C76.0331 221.875 80.0917 224.725 80.7869 226.032Z" fill="#FFA884"/>
<path fill-rule="evenodd" clip-rule="evenodd" d="M75.7967 274.753C80.469 278.754 85.4942 280.297 92.3315 276.929C99.1682 273.554 98.5276 262.978 99.0523 262.668C100.165 265.504 102.509 275.278 89.9523 280.512C81.2544 284.136 76.9136 277.218 75.7967 274.753Z" fill="#FFA884"/>
<path fill-rule="evenodd" clip-rule="evenodd" d="M94.8031 232.187L88.0466 230.827C88.0668 230.726 88.087 230.625 88.1073 230.523C89.6027 223.167 84.2608 215.697 75.9483 214.02C67.6425 212.342 59.8015 217.145 58.306 224.501C56.8106 231.851 62.159 239.321 70.4716 240.998C70.5457 241.019 84.5707 243.962 88.0803 244.683C88.2217 244.825 88.4372 245.04 88.6865 245.289C86.0997 248.24 77.053 258.647 77.0059 258.701C71.3878 265.06 71.6235 274.255 77.2415 279.213C82.8528 284.171 92.0007 283.268 97.6188 276.909C103.237 270.55 103.001 261.362 97.3898 256.397C97.309 256.33 97.2281 256.263 97.154 256.195L101.317 251.48C110.835 252.746 127.919 254.754 135.241 254.484C140.67 254.282 145.116 252.18 147.521 249.951C148.902 248.671 149.677 247.283 149.926 246.071C150.067 245.37 149.926 244.636 149.528 244.043C149.138 243.444 148.518 243.033 147.817 242.891L114.79 236.222L137.572 210.429C138.562 209.318 138.454 207.613 137.336 206.63C136.406 205.808 134.951 205.168 133.072 204.979C129.811 204.656 125.008 205.667 120.556 208.792C114.399 213.11 101.506 225.539 94.8031 232.187ZM91.3877 246.104C91.3338 246.286 91.2732 246.421 91.2058 246.495C89.7036 248.199 79.0807 260.426 79.0268 260.486C74.4461 265.667 74.4461 273.151 79.02 277.192C83.5939 281.234 91.0239 280.304 95.5979 275.124C100.179 269.944 100.179 262.46 95.6046 258.418C94.8232 257.731 93.9609 257.186 93.0381 256.781L99.1749 249.836C97.4032 249.601 94.8974 249.277 94.6616 249.23C94.4797 249.19 94.2035 249.028 93.8801 248.745C93.4018 248.327 92.2904 247.108 91.3877 246.104ZM92.6878 272.551C95.6517 269.19 95.6517 264.34 92.6878 261.726C89.7238 259.105 84.9074 259.705 81.9435 263.06C78.9728 266.421 78.9727 271.271 81.9367 273.891C84.9074 276.505 89.7171 275.906 92.6878 272.551ZM90.6669 270.766C88.7403 272.948 85.6485 273.568 83.7219 271.871C81.8021 270.173 82.0378 267.027 83.9576 264.845C85.8842 262.662 88.9762 262.042 90.9027 263.74C92.8293 265.444 92.5867 268.59 90.6669 270.766ZM124.557 251.352C128.787 251.689 132.573 251.884 135.146 251.79C141.788 251.547 146.76 248.119 147.285 245.532L111.563 238.324C111.543 238.324 111.529 238.317 111.509 238.317L95.4632 235.077C95.443 235.07 95.4295 235.07 95.4093 235.057L84.4091 232.841C84.9008 231.965 85.2644 231.008 85.4665 229.985C86.6858 223.996 82.1793 218.028 75.4161 216.66C68.6461 215.293 62.1659 219.045 60.9466 225.033C59.7273 231.022 64.2338 236.997 71.0038 238.358C71.0779 238.378 86.915 241.706 89.1379 242.15C89.5084 242.224 90.3504 243.073 91.3002 244.104C91.3407 244.117 91.381 244.151 91.4147 244.185C92.3174 245.175 93.9744 247.054 94.5807 247.58C94.7828 247.762 94.9377 247.89 95.0522 247.91C95.4092 247.984 101.263 248.732 101.263 248.732C101.31 248.738 101.351 248.752 101.391 248.772C103.129 249.001 105.143 249.264 107.312 249.533L113.867 242.271C113.995 242.13 114.19 242.063 114.372 242.096C114.951 242.204 115.585 242.319 116.258 242.44C116.359 242.46 116.44 242.534 116.474 242.629C116.507 242.723 116.487 242.831 116.42 242.905L110.135 249.87C110.822 249.951 111.522 250.038 112.23 250.119L118.562 243.1C118.683 242.959 118.872 242.898 119.054 242.925C119.68 243.033 120.32 243.14 120.974 243.248C121.075 243.262 121.155 243.336 121.189 243.43C121.223 243.531 121.203 243.639 121.135 243.713L115.066 250.436C115.712 250.503 116.359 250.577 117.006 250.638L123.136 243.848C123.257 243.713 123.446 243.646 123.621 243.673C124.268 243.774 124.914 243.875 125.561 243.976C125.662 243.989 125.749 244.063 125.783 244.158C125.817 244.259 125.797 244.366 125.722 244.441L119.869 250.928C120.468 250.988 121.068 251.042 121.66 251.103L127.588 244.528C127.71 244.393 127.892 244.326 128.073 244.353C128.74 244.447 129.401 244.542 130.027 244.629C130.135 244.643 130.222 244.717 130.256 244.811C130.29 244.912 130.27 245.02 130.202 245.094L124.557 251.352ZM101.182 238.984C99.8283 237.785 97.7536 237.92 96.5546 239.274C95.3555 240.628 95.4834 242.703 96.8374 243.902C98.1914 245.101 100.266 244.966 101.465 243.612C102.664 242.258 102.536 240.183 101.182 238.984ZM100.616 239.631C101.613 240.513 101.708 242.042 100.825 243.046C99.9361 244.043 98.4069 244.144 97.4099 243.255C96.4062 242.372 96.312 240.843 97.2012 239.846C98.0837 238.843 99.6127 238.742 100.616 239.631ZM110.714 236.768L96.8374 233.972C103.493 227.364 116.069 215.232 122.105 210.995C127.548 207.176 133.577 206.906 135.551 208.651L110.714 236.768ZM74.6415 220.48C79.0268 221.362 81.9435 225.235 81.1554 229.116C80.3672 232.996 76.1639 235.427 71.7785 234.538C67.3932 233.656 64.4696 229.789 65.2645 225.909C66.0526 222.022 70.2562 219.59 74.6415 220.48ZM74.1025 223.12C76.952 223.693 79.0268 226.057 78.5148 228.577C78.0029 231.096 75.16 232.477 72.3106 231.898C69.4679 231.325 67.3932 228.961 67.9052 226.441C68.4172 223.922 71.2598 222.541 74.1025 223.12Z" fill="#FF6B1D"/>
<path fill-rule="evenodd" clip-rule="evenodd" d="M185.216 47.2157C182.593 49.77 178.966 51.5004 174.855 51.8481C170.647 52.2041 166.693 51.0464 163.649 48.8706L185.216 47.2157Z" fill="#FFA884"/>
<path fill-rule="evenodd" clip-rule="evenodd" d="M169.716 51.5276C167.474 51.0467 165.409 50.1285 163.649 48.8706L185.216 47.2155C184.358 48.0511 183.393 48.7985 182.338 49.439C180.681 48.8027 178.751 48.5169 176.722 48.6885C173.919 48.9256 171.45 49.9924 169.716 51.5276Z" fill="#FF996E"/>
<path fill-rule="evenodd" clip-rule="evenodd" d="M195.156 31.1237C195.067 29.7033 194.393 28.3823 193.294 27.477C192.195 26.5718 190.77 26.1626 189.359 26.3473C186.298 26.7468 182.851 27.1969 181.621 27.3576C181.36 27.3916 181.172 27.6254 181.194 27.8874C181.381 30.0919 182.169 39.4088 182.359 41.6597C182.382 41.9309 182.621 42.132 182.892 42.1091C184.993 41.9314 193.215 41.2359 195.295 41.0599C195.561 41.0374 195.762 40.8052 195.745 40.5381C195.655 39.1083 195.383 34.7581 195.156 31.1237Z" fill="#FFA884"/>
<path fill-rule="evenodd" clip-rule="evenodd" d="M180.9 24.3579C180.862 23.913 180.65 23.5007 180.308 23.2135C179.967 22.9252 179.526 22.7839 179.081 22.8216C173.954 23.2552 158.658 24.549 155.722 24.7974C155.451 24.8203 155.249 25.0592 155.272 25.3301C155.538 28.4717 156.997 45.7258 157.263 48.8675C157.286 49.1383 157.525 49.3399 157.796 49.317C161.336 49.0176 182.832 47.1993 182.832 47.1993L180.9 24.3579Z" fill="#FFF1E5"/>
<path fill-rule="evenodd" clip-rule="evenodd" d="M161.688 24.2928L155.67 24.8019L153.72 21.4274L155.995 21.2349L161.688 24.2928Z" fill="#FFF1E5"/>
<path fill-rule="evenodd" clip-rule="evenodd" d="M169.588 47.8641C169.557 47.5018 169.238 47.2322 168.876 47.2629C166.789 47.4394 160.366 47.9827 158.815 48.1139C158.596 48.1325 158.392 48.2304 158.24 48.3896C157.692 48.9696 156.305 50.4332 155.466 51.3182C155.028 51.7808 154.442 52.0736 153.81 52.1469C153.493 52.1837 153.14 52.2247 152.825 52.2613C152.298 52.3232 151.915 52.7911 151.96 53.3209C151.982 53.5809 152.107 53.8223 152.306 53.9903C152.505 54.1583 152.763 54.2407 153.023 54.2187L162.877 53.3852C163.236 53.3548 163.586 53.2595 163.91 53.1043C166.232 51.981 168.101 50.5423 169.49 48.767C169.591 48.6368 169.639 48.4727 169.626 48.3088C169.615 48.1819 169.601 48.023 169.588 47.8641Z" fill="#FFF1E5"/>
<path fill-rule="evenodd" clip-rule="evenodd" d="M174.834 27.7883L175.343 33.7954L168.872 36.351L164.09 34.8492L163.579 28.7403L169.893 26.9543L174.834 27.7883Z" fill="#FFA884"/>
<path fill-rule="evenodd" clip-rule="evenodd" d="M163.499 28.4061L163.492 28.4061C163.431 28.4263 163.377 28.4599 163.337 28.5004L163.337 28.5071C163.303 28.534 163.283 28.5746 163.263 28.615L163.263 28.6217C163.249 28.6487 163.243 28.6755 163.243 28.7092C163.236 28.7294 163.236 28.7564 163.243 28.7834L163.755 34.8865C163.761 35.0279 163.862 35.1492 163.997 35.1963L168.773 36.6918C168.82 36.7052 168.861 36.712 168.908 36.712L168.928 36.7052L168.935 36.7052C168.968 36.7052 168.995 36.6918 169.022 36.685L175.482 34.1319C175.631 34.0713 175.718 33.9298 175.705 33.7749L175.2 27.773C175.2 27.7527 175.2 27.7392 175.193 27.719L175.193 27.7123C175.186 27.6921 175.179 27.6652 175.166 27.645C175.146 27.5979 175.119 27.5641 175.085 27.5304C175.038 27.49 174.984 27.4631 174.923 27.4496C174.917 27.4496 174.91 27.4496 174.903 27.4429L169.965 26.6143C169.912 26.6009 169.858 26.6076 169.811 26.6211L163.499 28.4061ZM164.435 34.59L168.477 35.8565L167.877 30.2249L163.984 29.2144L164.435 34.59ZM174.533 28.2647L168.585 30.1912L169.184 35.8565L174.984 33.566L174.533 28.2647ZM164.94 28.7295L168.194 29.5782L173.367 27.9009L169.925 27.3215L164.94 28.7295Z" fill="#F48951"/>
<path fill-rule="evenodd" clip-rule="evenodd" d="M184.189 37.8946C183.577 36.8109 183.518 34.6045 184.19 32.776C184.59 34.6437 186.535 33.5017 185.575 32.5887C184.712 31.768 184.874 30.3855 186.185 29.4669C186.456 31.2539 187.323 30.8621 189.475 31.5121C191.627 32.162 193.522 34.1628 193.292 36.4897C193.133 38.0896 192.352 39.1462 191.244 39.7187C189.499 40.619 187.212 40.612 185.676 39.5054C185.174 39.1426 184.443 38.3454 184.189 37.8946Z" fill="#F78657"/>
<path fill-rule="evenodd" clip-rule="evenodd" d="M188.726 28.3174C188.546 28.9058 189.151 29.6123 190.078 29.8964C191.006 30.1808 191.903 29.9345 192.084 29.3463C192.263 28.7583 191.658 28.0512 190.732 27.7666C189.804 27.4829 188.907 27.729 188.726 28.3174Z" fill="white"/>
<path fill-rule="evenodd" clip-rule="evenodd" d="M182.109 38.6946L185.361 38.4195C185.622 38.3975 185.874 38.5226 186.012 38.746C186.367 39.3137 187.05 40.4116 187.415 40.9974C187.563 41.2365 187.834 41.3712 188.114 41.3474C189.566 41.2246 194.078 40.843 195.768 40.7001C195.94 40.6855 196.109 40.7399 196.242 40.8518C196.373 40.9627 196.455 41.121 196.47 41.2928C196.557 42.329 196.728 44.3463 196.816 45.3825C196.846 45.7404 196.581 46.0545 196.223 46.0848L182.83 47.2176L182.109 38.6946Z" fill="#FFF1E5"/>
<path fill-rule="evenodd" clip-rule="evenodd" d="M196.415 39.9925C196.509 40.0397 196.596 40.1003 196.677 40.1677C196.953 40.3967 197.129 40.7269 197.156 41.0839C197.25 42.1482 197.425 44.2498 197.513 45.3074C197.58 46.0551 197.028 46.7086 196.28 46.776L185.832 47.6583C185.798 47.7054 185.765 47.746 185.751 47.7594C183.009 50.4337 179.217 52.2457 174.912 52.6095C172.305 52.8318 169.786 52.4949 167.509 51.7068C166.533 52.468 165.435 53.1416 164.215 53.7277C164.215 53.7344 164.215 53.7344 164.215 53.7344C163.811 53.923 163.38 54.0443 162.935 54.078L153.08 54.9132C152.636 54.9537 152.191 54.8123 151.847 54.5226C151.504 54.233 151.288 53.8221 151.255 53.3708C151.174 52.4614 151.834 51.6596 152.743 51.5519L153.727 51.4374C154.192 51.3835 154.63 51.168 154.953 50.8245L156.583 49.0999C156.57 49.0393 156.563 48.9854 156.556 48.918C156.287 45.7789 154.832 28.5274 154.562 25.3816C154.542 25.1054 154.616 24.8426 154.758 24.6271L153.107 21.7709C152.986 21.5621 152.979 21.3061 153.094 21.0973C153.202 20.8817 153.417 20.7402 153.66 20.72L155.936 20.5248C156.071 20.5113 156.206 20.5449 156.327 20.6056L161.837 23.5629L179.015 22.1145C179.648 22.0606 180.274 22.256 180.759 22.6669C181.244 23.0778 181.548 23.6571 181.601 24.2903L181.797 26.6277L189.267 25.651C190.871 25.4422 192.494 25.9071 193.74 26.9377C194.993 27.9617 195.754 29.4638 195.855 31.0805L196.415 39.9925ZM168.883 47.9616L168.917 48.3387C167.59 50.0295 165.812 51.3903 163.602 52.4613C163.353 52.5758 163.09 52.65 162.814 52.6702L152.959 53.5055C152.885 53.5122 152.811 53.4919 152.757 53.4448C152.703 53.3909 152.669 53.3235 152.663 53.2494C152.649 53.1012 152.757 52.9733 152.905 52.953L153.889 52.8386C154.683 52.7443 155.425 52.3805 155.977 51.7944C156.812 50.912 158.2 49.4434 158.752 48.8641C158.779 48.8304 158.826 48.8103 158.873 48.8103L168.883 47.9616ZM183.245 47.8739L170.184 48.972L170.042 49.1942C169.685 49.659 169.288 50.097 168.87 50.5146C170.722 51.04 172.723 51.242 174.784 51.0669C178.011 50.7974 180.921 49.6321 183.245 47.8739ZM155.182 46.9174L153.242 47.0791C153.047 47.0993 152.898 47.2677 152.919 47.4631C152.932 47.6584 153.107 47.7999 153.296 47.7864L155.236 47.6247C155.431 47.6045 155.579 47.4361 155.559 47.2407C155.546 47.0454 155.371 46.9039 155.182 46.9174ZM181.864 44.2229L169.18 45.3006C168.722 45.3343 168.277 45.1188 168.021 44.7349C167.476 43.8996 166.304 42.1076 165.758 41.2723C165.65 41.1039 165.462 41.0097 165.259 41.0299L157.364 41.6968L157.876 47.7594C158.126 47.5506 158.429 47.4293 158.752 47.4024C160.301 47.2677 166.728 46.7288 168.809 46.5536C169.483 46.493 170.076 46.9241 170.244 47.5506L182.06 46.5469L181.864 44.2229ZM155.054 45.4422L151.558 45.7318C151.363 45.752 151.214 45.9205 151.235 46.1158C151.248 46.3112 151.423 46.4526 151.612 46.4391L155.115 46.1426C155.31 46.1292 155.451 45.9541 155.438 45.7588C155.418 45.5702 155.249 45.422 155.054 45.4422ZM195.593 41.2186C195.68 41.2118 195.754 41.2724 195.761 41.36C195.815 41.973 196.004 44.2296 196.078 45.0582C196.085 45.1458 196.058 45.2267 196.004 45.2873C195.95 45.3479 195.876 45.3883 195.795 45.395C193.855 45.5634 183.474 46.4392 183.474 46.4392L182.854 39.1303L185.401 38.9147C185.468 38.9147 185.536 38.9484 185.569 39.0023L186.97 41.2523C187.226 41.6565 187.678 41.8854 188.156 41.845C188.156 41.845 194.501 41.3061 195.593 41.2186ZM159.385 42.5591L161.399 45.6374C161.507 45.7991 161.73 45.8463 161.891 45.7386C162.053 45.6375 162.1 45.4152 161.992 45.2536L159.978 42.1683C159.87 42.0066 159.655 41.9595 159.486 42.0673C159.325 42.1751 159.278 42.3907 159.385 42.5591ZM161.096 42.4109L163.11 45.496C163.218 45.6576 163.441 45.7049 163.602 45.5971C163.764 45.4893 163.811 45.2738 163.703 45.1054L161.689 42.0269C161.581 41.8652 161.366 41.8181 161.204 41.9259C161.036 42.0269 160.989 42.2492 161.096 42.4109ZM162.814 42.2693L164.828 45.3478C164.929 45.5162 165.152 45.5567 165.313 45.4557C165.475 45.3479 165.522 45.1255 165.414 44.9638L163.4 41.8787C163.292 41.717 163.077 41.6698 162.915 41.7776C162.747 41.8853 162.706 42.1009 162.814 42.2693ZM164.525 42.1211L166.539 45.2064C166.647 45.368 166.863 45.4151 167.024 45.3073C167.193 45.1996 167.233 44.984 167.125 44.8156L165.118 41.7373C165.01 41.5756 164.788 41.5283 164.626 41.6361C164.464 41.7372 164.417 41.9594 164.525 42.1211ZM181.393 38.5711L180.194 24.4116C180.173 24.1557 180.045 23.913 179.85 23.7446C179.648 23.5762 179.392 23.4955 179.136 23.5224L155.99 25.4759L157.304 40.9962L165.199 40.3226C165.657 40.2889 166.101 40.5045 166.351 40.8885L168.614 44.3508C168.722 44.5193 168.917 44.6136 169.119 44.5934L181.804 43.5223L181.393 38.625C181.393 38.6048 181.393 38.5913 181.393 38.5711ZM195.013 40.2284L188.068 40.8211C187.981 40.8278 187.893 40.7874 187.846 40.7066C187.482 40.1273 186.802 39.0292 186.445 38.4566C186.202 38.0727 185.764 37.8503 185.313 37.8907L182.767 38.1063L181.918 28.0357L189.449 27.0522C190.669 26.8905 191.895 27.2408 192.844 28.0222C193.787 28.8036 194.373 29.942 194.448 31.168L195.013 40.2284ZM153.498 27.0724L150.891 27.2946C150.696 27.3081 150.547 27.4833 150.568 27.6786C150.581 27.874 150.756 28.0154 150.952 28.0019L153.559 27.7798C153.754 27.7596 153.895 27.5911 153.882 27.3957C153.862 27.2004 153.693 27.059 153.498 27.0724ZM153.377 25.5971L148.668 25.9946C148.473 26.008 148.331 26.1832 148.345 26.3718C148.358 26.5672 148.533 26.7154 148.729 26.6952L153.437 26.2977C153.626 26.2842 153.774 26.1092 153.754 25.9206C153.74 25.7252 153.572 25.5769 153.377 25.5971ZM159.257 23.785L156.051 24.0546L154.886 22.0337L155.842 21.9528L159.257 23.785Z" fill="#F48951"/>
<path d="M272.743 237.389L236.844 230.927L233.302 250.604L269.202 257.066L272.743 237.389Z" fill="#FFF1E5"/>
<path d="M272.743 237.389L236.844 230.927L236.472 232.993L272.372 239.454L272.743 237.389Z" fill="#FFA884"/>
<path d="M276.387 226.749L237.121 219.682L235.153 230.617L274.419 237.684L276.387 226.749Z" fill="#FFF1E5"/>
<path d="M260.153 223.844L253.362 222.622L247.852 253.234L254.643 254.456L260.153 223.844Z" fill="#FFA884"/>
<path fill-rule="evenodd" clip-rule="evenodd" d="M256.865 222.639L239.197 215.749C241.075 210.909 244.581 207.069 248.86 204.868L256.865 222.639Z" fill="#FFA884"/>
<path fill-rule="evenodd" clip-rule="evenodd" d="M270.566 208.767C273.808 212.32 275.756 217.142 275.829 222.335L256.867 222.632L270.566 208.767Z" fill="#FFA884"/>
<path fill-rule="evenodd" clip-rule="evenodd" d="M257.85 217.137C260.951 217.696 262.983 220.848 262.385 224.172L251.147 222.15C251.745 218.825 254.749 216.579 257.85 217.137Z" fill="#FFA884"/>
<path d="M241.249 222.054L238.694 221.594L238.101 224.889L240.656 225.348L241.249 222.054Z" fill="#FFF1E5"/>
<path d="M243.843 222.515L242.384 222.252L241.791 225.546L243.251 225.809L243.843 222.515Z" fill="#FFF1E5"/>
<path d="M246.413 222.988L244.954 222.725L244.361 226.019L245.82 226.282L246.413 222.988Z" fill="#FFF1E5"/>
<path fill-rule="evenodd" clip-rule="evenodd" d="M250.777 220.977L238.948 216.37C238.614 216.239 238.45 215.859 238.575 215.518C240.514 210.525 244.138 206.567 248.549 204.293C248.712 204.214 248.896 204.201 249.066 204.26C249.237 204.319 249.374 204.443 249.453 204.607L254.912 216.737C255.875 216.403 256.917 216.305 257.966 216.495C259.014 216.685 259.958 217.143 260.738 217.786L270.089 208.323C270.214 208.198 270.39 208.126 270.567 208.126C270.751 208.133 270.921 208.211 271.039 208.342C274.388 212.012 276.4 216.986 276.472 222.34C276.478 222.7 276.19 223.002 275.83 223.008L263.143 223.205C263.136 223.375 263.123 223.539 263.11 223.71L276.498 226.121C276.858 226.187 277.094 226.528 277.029 226.881L275.063 237.812C274.997 238.173 274.657 238.409 274.303 238.343L273.261 238.159L269.84 257.19C269.775 257.544 269.434 257.786 269.08 257.721L233.175 251.259C232.821 251.194 232.585 250.853 232.651 250.499L236.071 231.462L235.036 231.279C234.682 231.213 234.44 230.872 234.505 230.518L236.478 219.581C236.537 219.227 236.877 218.991 237.238 219.05L250.626 221.462C250.672 221.298 250.718 221.141 250.777 220.977ZM270.227 247.635L261.432 246.05C261.236 246.017 261.032 246.089 260.901 246.246C260.351 246.908 259.25 248.232 258.686 248.913C258.398 249.26 257.939 249.424 257.494 249.346L256.078 249.09L255.213 253.894L268.66 256.312L270.227 247.635ZM248.424 252.668L254.296 253.73L259.571 224.404L253.699 223.349L248.424 252.668ZM234.053 250.086L247.5 252.504L248.365 247.707L246.747 247.412C246.314 247.334 245.947 247.032 245.79 246.62L244.355 242.865C244.282 242.681 244.125 242.55 243.929 242.511L235.685 241.03L234.053 250.086ZM265.652 247.662L263.824 249.818C263.706 249.955 263.726 250.158 263.863 250.276C264.001 250.394 264.211 250.375 264.329 250.237L266.157 248.087C266.268 247.95 266.255 247.74 266.118 247.622C265.98 247.504 265.77 247.524 265.652 247.662ZM263.824 247.334L261.996 249.483C261.878 249.621 261.891 249.831 262.035 249.949C262.173 250.067 262.376 250.047 262.494 249.909L264.322 247.753C264.44 247.616 264.421 247.413 264.283 247.295C264.145 247.177 263.942 247.196 263.824 247.334ZM261.996 247L260.161 249.156C260.05 249.293 260.063 249.503 260.2 249.621C260.338 249.732 260.548 249.719 260.666 249.582L262.494 247.426C262.612 247.288 262.592 247.085 262.455 246.967C262.317 246.849 262.107 246.862 261.996 247ZM270.345 246.987L271.976 237.923L258.523 235.505L256.196 248.448L257.605 248.704C257.822 248.743 258.044 248.658 258.182 248.494C258.745 247.812 259.846 246.489 260.403 245.827C260.679 245.486 261.118 245.329 261.55 245.407L270.345 246.987ZM235.803 240.381L244.047 241.868C244.466 241.941 244.813 242.229 244.964 242.629L246.399 246.384C246.478 246.587 246.655 246.731 246.864 246.77L248.483 247.059L250.816 234.116L237.362 231.698L235.803 240.381ZM242.172 243.769L243.136 246.429C243.201 246.593 243.391 246.685 243.555 246.62C243.725 246.561 243.817 246.371 243.752 246.207L242.788 243.546C242.729 243.376 242.539 243.291 242.369 243.35C242.205 243.408 242.113 243.599 242.172 243.769ZM240.344 243.441L241.307 246.095C241.366 246.266 241.556 246.357 241.727 246.292C241.897 246.233 241.982 246.043 241.923 245.873L240.96 243.218C240.901 243.048 240.711 242.956 240.541 243.022C240.37 243.081 240.285 243.271 240.344 243.441ZM238.516 243.114L239.472 245.768C239.538 245.938 239.728 246.023 239.898 245.964C240.069 245.905 240.154 245.715 240.095 245.545L239.132 242.891C239.066 242.714 238.883 242.629 238.712 242.688C238.542 242.753 238.45 242.943 238.516 243.114ZM260.489 224.568L275.627 227.294L273.89 236.94L258.759 234.214L260.489 224.568ZM252.782 223.185L251.045 232.825L235.914 230.106L237.651 220.459L252.782 223.185ZM246.733 223.041C246.766 222.864 246.648 222.694 246.471 222.661L245.01 222.399C244.833 222.366 244.663 222.491 244.63 222.668L244.033 225.957C244.001 226.141 244.125 226.305 244.302 226.337L245.757 226.606C245.94 226.632 246.111 226.514 246.144 226.337L246.733 223.041ZM244.165 222.583C244.197 222.406 244.073 222.235 243.896 222.202L242.441 221.94C242.258 221.908 242.087 222.025 242.061 222.202L241.465 225.499C241.432 225.676 241.55 225.846 241.727 225.879L243.188 226.141C243.365 226.174 243.535 226.056 243.568 225.879L244.165 222.583ZM246.032 223.251L245.554 225.898L244.741 225.754L245.213 223.107L246.032 223.251ZM241.569 222.117C241.602 221.934 241.484 221.77 241.307 221.737L238.752 221.272C238.568 221.239 238.404 221.364 238.372 221.541L237.775 224.83C237.742 225.014 237.86 225.184 238.037 225.21L240.593 225.676C240.776 225.708 240.947 225.59 240.973 225.407L241.569 222.117ZM243.457 222.786L242.985 225.44L242.166 225.289L242.644 222.642L243.457 222.786ZM240.868 222.32L240.39 224.968L238.476 224.627L238.955 221.98L240.868 222.32ZM257.73 217.786C260.285 218.244 262.002 220.702 261.819 223.408L251.943 221.632C252.716 219.031 255.174 217.327 257.73 217.786ZM261.662 218.723C261.734 218.808 261.806 218.906 261.871 218.998L264.217 218.205C264.381 218.146 264.565 218.231 264.624 218.395L265.325 220.21C265.384 220.374 265.312 220.558 265.155 220.63L262.999 221.6C263.018 221.698 263.038 221.796 263.057 221.894L275.142 221.704C274.939 217.176 273.261 212.976 270.528 209.745L261.662 218.723ZM262.238 219.568C262.487 220.001 262.684 220.466 262.835 220.951L264.604 220.158L264.126 218.926L262.238 219.568ZM253.726 217.294L248.542 205.787C244.853 207.858 241.819 211.219 240.043 215.387L251.308 219.784C251.34 219.725 251.373 219.673 251.406 219.62L249.584 217.825C249.46 217.707 249.453 217.51 249.571 217.379L250.862 215.918C250.973 215.787 251.176 215.774 251.314 215.885L253.346 217.537C253.47 217.451 253.595 217.366 253.726 217.294ZM252.815 217.949L251.144 216.586L250.266 217.583L251.773 219.07C252.081 218.651 252.428 218.277 252.815 217.949Z" fill="#F48951"/>
</g>
<defs>
<clipPath id="clip0_1331_30432">
<rect width="324.613" height="283.86" fill="white"/>
</clipPath>
</defs>
</svg>
