<svg width="150" height="74" viewBox="0 0 150 74" fill="none" xmlns="http://www.w3.org/2000/svg">
<g clip-path="url(#clip0_4499_40128)">
<path fill-rule="evenodd" clip-rule="evenodd" d="M90.966 3.36516C87.3331 4.7051 91.7039 11.0012 96.0037 15.1078C99.9322 18.8618 105.688 21.6777 108.061 17.5148C111.221 11.9673 107.515 7.60523 104.823 5.55627C99.1592 1.24688 92.8578 2.66667 90.966 3.36516ZM41.3557 49.5707C36.6891 38.6819 35.9038 9.74896 61.9857 1.70668C88.0676 -6.33472 74.9165 16.1679 98.7871 26.8716C110.938 32.32 117.511 53.394 96.8215 63.1983C76.1292 73.0026 46.969 62.6753 41.3557 49.5707Z" fill="#F6F7F9"/>
<path fill-rule="evenodd" clip-rule="evenodd" d="M46.6912 37.3955L48.0855 41.2177C48.0986 41.2535 48.1186 41.2849 48.1457 41.312C48.1719 41.3382 48.2042 41.3591 48.2391 41.3713L52.0622 42.7656L48.2391 44.1607C48.2042 44.1738 48.1719 44.1939 48.1457 44.2201C48.1186 44.2471 48.0986 44.2794 48.0855 44.3144L46.6912 48.1365L45.297 44.3144C45.2839 44.2794 45.2638 44.2471 45.2368 44.2201C45.2106 44.1939 45.1783 44.1738 45.1433 44.1607L41.3203 42.7656L45.1433 41.3713C45.1783 41.3591 45.2106 41.3382 45.2368 41.312C45.2638 41.2849 45.2839 41.2535 45.297 41.2177L46.6912 37.3955Z" fill="#FF7900"/>
<path fill-rule="evenodd" clip-rule="evenodd" d="M101.635 40.4548L102.847 43.7763C102.859 43.8064 102.876 43.8342 102.899 43.8574C102.922 43.8806 102.95 43.898 102.98 43.9096L106.302 45.1214L102.98 46.332C102.95 46.3436 102.922 46.3621 102.899 46.3842C102.876 46.4073 102.859 46.4351 102.847 46.4664L101.635 49.7867L100.423 46.4664C100.412 46.4351 100.395 46.4073 100.371 46.3842C100.348 46.3621 100.32 46.3436 100.29 46.332L96.9688 45.1214L100.29 43.9096C100.32 43.898 100.348 43.8806 100.371 43.8574C100.395 43.8342 100.412 43.8064 100.423 43.7763L101.635 40.4548Z" fill="#FF7900"/>
<path fill-rule="evenodd" clip-rule="evenodd" d="M54.2681 49.1118L54.8766 50.7784C54.8819 50.7941 54.8906 50.8081 54.9028 50.8194C54.9142 50.8316 54.9282 50.8404 54.943 50.8456L56.6105 51.4541L54.943 52.0617C54.9282 52.0679 54.9142 52.0766 54.9028 52.0879C54.8906 52.1002 54.8819 52.1141 54.8766 52.129L54.2681 53.7965L53.6596 52.129C53.6544 52.1141 53.6457 52.1002 53.6334 52.0879C53.6221 52.0766 53.6081 52.0679 53.5933 52.0617L51.9258 51.4541L53.5933 50.8456C53.6081 50.8404 53.6221 50.8316 53.6334 50.8194C53.6457 50.8081 53.6544 50.7941 53.6596 50.7784L54.2681 49.1118Z" fill="#FF7900"/>
<path fill-rule="evenodd" clip-rule="evenodd" d="M96.4895 51.9633C97.064 51.9633 97.5293 52.4286 97.5293 53.003C97.5293 53.5775 97.064 54.0428 96.4895 54.0428C95.9151 54.0428 95.4497 53.5775 95.4497 53.003C95.4497 52.4286 95.9151 51.9633 96.4895 51.9633Z" fill="#FF7900"/>
<path fill-rule="evenodd" clip-rule="evenodd" d="M72.8357 35.3821C69.451 36.7651 65.9525 38.9616 64.1755 43.8961C60.4165 34.3504 58.5931 23.7845 73.4634 16.9301C74.0533 16.9495 73.6919 17.4793 73.3626 18.0667C73.0331 18.6542 67.9269 25.9673 72.8357 35.3821Z" fill="white"/>
<path fill-rule="evenodd" clip-rule="evenodd" d="M61.7197 33.0106C61.7197 33.0106 61.805 35.7548 61.9511 36.5087L71.4977 32.955L71.22 31.6053L61.7197 33.0106Z" fill="#ECECEC"/>
<path fill-rule="evenodd" clip-rule="evenodd" d="M69.9589 59.3251C73.0437 61.3034 80.8147 62.7824 85.9553 57.0749C86.698 60.9476 87.4918 64.6161 88.3713 67.9501C86.928 69.6503 79.0667 73.4786 71.7858 70.7289C70.6284 65.8997 70.2854 62.597 69.9589 59.3251Z" fill="white"/>
<path fill-rule="evenodd" clip-rule="evenodd" d="M69.9591 59.3251C73.0438 61.3034 80.8148 62.7824 85.9554 57.0749L86.0821 58.8359C85.0797 61.06 76.4381 65.3784 70.1504 60.8172L69.9591 59.3251Z" fill="#ECECEC"/>
<path fill-rule="evenodd" clip-rule="evenodd" d="M99.3812 9.52451L76.8789 9.01482L75.4005 8.25204L73.9485 9.00764L50.0269 11.2008L48.1709 34.8973L74.7679 31.0888L100.038 32.381L99.3812 9.52451Z" fill="white"/>
<path fill-rule="evenodd" clip-rule="evenodd" d="M99.2774 8.51269L76.8789 8.29733L75.4006 7.53455L73.9486 8.29014L50.8929 9.19651L48.2979 33.5695L74.7801 30.6297L99.644 31.3512L99.2774 8.51269Z" fill="#ECECEC" fill-opacity="0.81"/>
<path fill-rule="evenodd" clip-rule="evenodd" d="M100.686 5.30676L76.8786 8.29689L75.4003 7.53411L73.9483 8.2897L47.4867 7.77099L45.6309 31.4674L75.0234 30.1608L101.344 28.1614L100.686 5.30676Z" fill="white"/>
<path fill-rule="evenodd" clip-rule="evenodd" d="M52.6322 9.43945L73.1747 12.2806L74.4818 11.6398L75.8126 12.286L95.2727 7.88519C95.4835 9.52382 96.7925 10.7891 98.3739 10.7891C98.3913 10.7891 98.4087 10.7891 98.4261 10.7873L98.8816 22.71C97.1609 22.719 95.7668 24.2266 95.7668 26.0806C95.7668 26.4826 95.8325 26.8685 95.9527 27.2257L75.0226 28.4443L51.1007 29.0743C51.2007 28.701 51.2414 28.3026 51.2122 27.8898C51.0799 26.0357 49.5734 24.6286 47.8498 24.7525C47.8174 24.7543 47.7852 24.7561 47.7529 24.7597L48.6361 12.0293C48.9271 12.1244 49.2361 12.1765 49.5565 12.1765C51.0839 12.1765 52.3572 10.9973 52.6322 9.43945Z" fill="#A9A9A9"/>
<path fill-rule="evenodd" clip-rule="evenodd" d="M101.422 5.03137L77.2842 8.0215L75.7853 7.25872L74.3132 8.01431L49.4062 7.54945L47.6611 29.7149L75.3291 29.5211L101.942 26.9007L101.422 5.03137Z" fill="#ECECEC" fill-opacity="0.81"/>
<path fill-rule="evenodd" clip-rule="evenodd" d="M99.3917 2.67713L76.8798 7.40099L75.4015 6.74587L73.9495 7.3938L49.4007 2.36484L47.5449 26.0613L75.0246 29.2649L100.049 25.5318L99.3917 2.67713Z" fill="white"/>
<path fill-rule="evenodd" clip-rule="evenodd" d="M55.5578 5.00034L73.9334 8.54502L75.2405 7.90247L76.5714 8.54861L93.8034 5.14568C94.0142 6.7861 95.3232 8.04966 96.9044 8.04966C96.922 8.04966 96.9394 8.04966 96.9566 8.04966L97.3414 19.3496C95.6207 19.3585 94.2266 20.8661 94.2266 22.7201C94.2266 23.1222 94.2921 23.5062 94.4125 23.8652L74.9011 27.0761L53.8976 24.2044C53.9976 23.8311 54.0383 23.4309 54.0091 23.0199C53.8768 21.1641 52.3702 19.7588 50.6467 19.8808C50.6142 19.8826 50.5821 19.8862 50.5498 19.8898L51.5617 7.59018C51.8525 7.6871 52.1617 7.73737 52.4821 7.73737C54.0094 7.73737 55.2828 6.5582 55.5578 5.00034Z" fill="#DCDCDC"/>
<path d="M60.6764 19.4914C61.9586 19.7855 63.0539 18.1249 63.1228 15.7824C63.1918 13.4398 62.2083 11.3024 60.9261 11.0083C59.6439 10.7143 58.5486 12.3749 58.4797 14.7174C58.4107 17.06 59.3942 19.1973 60.6764 19.4914Z" fill="#ECECEC"/>
<path fill-rule="evenodd" clip-rule="evenodd" d="M74.2383 23.7788C74.3923 24.3549 74.4036 24.9562 74.4036 24.9562L72.9979 24.8323C69.9798 24.3513 67.666 21.661 67.666 18.4178C67.666 14.8337 70.4887 11.9261 73.9653 11.9261C74.3065 11.9261 74.8835 12.5381 74.8835 12.5381L76.3814 12.4214C76.3814 12.4214 76.0435 12.7104 75.5941 13.1591C75.7384 13.2076 75.8802 13.2614 76.0191 13.3206C77.9562 14.1516 79.3195 16.1223 79.3195 18.4178C79.3195 21.0705 76.6613 23.2511 74.2383 23.7788Z" fill="#ECECEC"/>
<path d="M88.4662 20.1971C87.1897 20.5149 86.0637 18.875 85.9512 16.5342C85.8387 14.1933 86.7824 12.038 88.0588 11.7201C89.3353 11.4022 90.4613 13.0422 90.5738 15.3831C90.6863 17.7239 89.7427 19.8792 88.4662 20.1971Z" fill="#ECECEC"/>
<path fill-rule="evenodd" clip-rule="evenodd" d="M77.906 34.7692C81.496 35.462 85.3573 36.9302 88.0671 41.4207C89.8821 31.3233 89.5991 20.6048 73.6737 16.7981C73.099 16.9327 73.5572 17.3814 73.9953 17.893C74.4336 18.4045 80.8742 24.5749 77.906 34.7692Z" fill="white"/>
<path d="M77.9363 60.9688C85.1527 60.1777 90.3614 53.6863 89.5703 46.4699C88.7791 39.2535 82.2877 34.0448 75.0713 34.8359C67.8549 35.6271 62.6462 42.1184 63.4374 49.3349C64.2285 56.5513 70.7199 61.76 77.9363 60.9688Z" fill="white"/>
<path fill-rule="evenodd" clip-rule="evenodd" d="M48.3866 6.89432L48.785 1.79811C48.8016 1.61551 48.893 1.44947 49.034 1.34157C49.1751 1.24197 49.3576 1.20047 49.5319 1.23367L73.8842 6.22198L75.1541 5.65763C75.3118 5.58293 75.4943 5.58293 75.6603 5.65763L76.9552 6.23028L99.2657 1.54076C99.4483 1.50756 99.6391 1.54908 99.7802 1.66528C99.9296 1.78148 100.013 1.95584 100.021 2.13844L100.087 4.57028L101.44 4.40432C101.614 4.37942 101.797 4.42917 101.93 4.55367C102.063 4.66157 102.146 4.83591 102.146 5.01021L102.826 27.8684C102.835 28.2004 102.577 28.4909 102.237 28.5158L100.461 28.6486L100.569 32.3587C100.577 32.533 100.511 32.699 100.386 32.8152C100.262 32.9397 100.087 33.0061 99.9131 32.9978L89.455 32.4583C89.5297 33.446 89.563 34.5001 89.5215 35.6123C89.4717 37.4466 89.2558 39.4635 88.8408 41.6879C88.8408 41.7045 88.8325 41.7294 88.8325 41.746C89.538 43.1653 90.011 44.734 90.1936 46.4023C90.6501 50.5357 89.2227 54.4367 86.5999 57.267C86.9734 60.5538 88.127 64.8615 89.2309 68.555C89.3305 68.887 89.1396 69.2356 88.8159 69.3352C88.4839 69.4265 88.1353 69.2439 88.0357 68.9119C87.5875 67.4096 87.131 65.7994 86.7243 64.2058C82.0099 67.6586 75.7932 67.8413 71.61 66.5797C71.8839 68.0903 72.2159 69.6839 72.6309 71.3438C72.7139 71.6758 72.5064 72.0161 72.1744 72.0991C71.8424 72.1821 71.5021 71.9746 71.4191 71.6426C70.2903 67.0444 69.7176 62.9691 69.3524 59.6574C65.8332 57.516 63.3099 53.8142 62.8285 49.3986C62.6127 47.473 62.812 45.5889 63.3515 43.8459C63.3433 43.821 63.3349 43.8044 63.3266 43.7795C61.8492 39.8951 61.1354 36.5586 60.9777 33.6868L48.262 35.5127C48.0794 35.5376 47.8886 35.4796 47.7475 35.3468C47.6147 35.2223 47.54 35.0396 47.5566 34.8487L47.8057 31.6947L44.884 31.8193C44.7097 31.8276 44.5354 31.7611 44.4026 31.6283C44.2781 31.4955 44.22 31.3212 44.2283 31.1386L46.1374 7.44215C46.1706 7.11015 46.4528 6.85279 46.7848 6.86109L48.3866 6.89432ZM85.4793 58.3377C83.4458 60.0973 80.8811 61.2676 78.0093 61.583C75.4114 61.8735 72.8964 61.4087 70.6886 60.3795C70.8712 61.9814 71.112 63.7493 71.444 65.6583C75.4944 67.0195 81.8356 66.9282 86.5002 63.3343C86.0686 61.5913 85.7034 59.8815 85.4793 58.3377ZM85.8031 56.2959C84.7822 54.8849 81.4207 50.2535 81.4207 50.2535C78.2584 50.9507 75.2953 51.3325 72.5314 51.3989L69.6345 58.3626C71.9834 59.9147 74.8636 60.6783 77.8765 60.3463C81.0471 59.9977 83.8111 58.4954 85.8031 56.2959ZM86.3508 55.6402C88.3096 53.1502 89.3304 49.9298 88.9569 46.5351C88.2016 39.6627 82.0182 34.6994 75.1458 35.4547C68.2734 36.21 63.3099 42.3934 64.0652 49.2658C64.4553 52.8182 66.298 55.8643 68.9374 57.8729L71.8674 50.8262C71.9338 50.6768 72.0831 50.5772 72.2491 50.5689C75.1126 50.5274 78.2001 50.129 81.5035 49.3903C81.6695 49.3488 81.8356 49.4152 81.9352 49.548L86.3508 55.6402ZM70.7717 32.2923L62.2227 33.5124C62.3389 35.9858 62.8949 38.8244 64.032 42.0863C65.5841 38.7747 68.4228 36.1352 71.9752 34.8985C71.6183 34.2843 71.1618 33.4128 70.7717 32.2923ZM74.5649 17.6677C81.2298 25.5361 79.7024 31.7279 78.806 34.3258C82.4995 34.9483 85.7616 37.0648 87.8532 40.0943C88.1022 38.4758 88.2433 36.9735 88.2848 35.5791C88.4508 30.0181 87.0564 26.2084 84.9482 23.5607C82.0598 19.9419 77.86 18.4977 74.5649 17.6677ZM72.0333 32.1097C72.4234 33.1887 72.8881 34.0021 73.2035 34.5333C73.7928 34.3922 74.3906 34.2843 75.0131 34.2179C75.8597 34.1183 76.7061 34.11 77.5361 34.1681C77.7353 33.612 77.9843 32.8401 78.1503 31.8856L74.8056 31.7113L72.0333 32.1097ZM74.0668 30.5576L49.059 31.6366L48.8598 34.1681L74.0668 30.5576ZM99.2241 28.7399L89.0151 29.4869C89.1313 30.043 89.2393 30.6074 89.314 31.205L99.307 31.7197L99.2241 28.7399ZM78.3331 30.2754L75.3865 30.4995L78.3082 30.6489C78.3165 30.5244 78.3248 30.3999 78.3331 30.2754ZM48.2869 8.15594L46.9258 25.4947C46.9009 25.8267 47.1415 26.1171 47.4735 26.1586L74.3075 29.2877L45.5481 30.5244L47.3491 8.13102L48.2869 8.15594ZM78.3248 28.881L76.59 29.1383L78.3248 29.0138C78.3248 28.9723 78.3248 28.9225 78.3248 28.881ZM100.129 5.8319L100.677 24.9883C100.685 25.3037 100.461 25.5776 100.145 25.6274L88.4258 27.3787C88.5171 27.6609 88.6168 27.9514 88.6998 28.2502L101.548 27.2957L100.909 5.74061L100.129 5.8319ZM87.961 26.1835L99.415 24.4737L98.7925 2.91859L77.0133 7.48359C76.8888 7.51679 76.7477 7.50016 76.6315 7.45036L75.4115 6.90263L74.2078 7.44215C74.0916 7.49195 73.9588 7.50849 73.826 7.48359L49.9719 2.59488L48.2207 24.9883L75.0214 28.1174L78.1835 27.6443C77.81 25.2207 76.6979 22.324 74.1249 19.0953L74.6727 24.4903C74.6976 24.7227 74.5316 24.9219 74.3075 24.9468C74.0751 24.9717 73.8759 24.8057 73.851 24.5733L73.0791 17.0369C73.0791 17.0037 73.0791 16.9622 73.0874 16.929C73.1455 16.6053 73.4443 16.0326 73.8676 15.3935C74.7723 14.0489 76.175 12.364 76.175 12.364C76.3161 12.1897 76.5817 12.1648 76.756 12.3142C76.9303 12.4636 76.9552 12.7209 76.8058 12.8952C76.8058 12.8952 75.4364 14.5386 74.5649 15.8583C74.457 16.016 74.349 16.1737 74.266 16.3148C77.8516 17.178 82.6656 18.6969 85.9192 22.7805C86.6994 23.7599 87.3966 24.8887 87.961 26.1835Z" fill="#8E949C"/>
</g>
<defs>
<clipPath id="clip0_4499_40128">
<rect width="150" height="74" fill="white"/>
</clipPath>
</defs>
</svg>
