<svg width="24" height="24" viewBox="0 0 40 40" fill="none" xmlns="http://www.w3.org/2000/svg">
<path fill-rule="evenodd" clip-rule="evenodd" d="M20.1806 4.45791C20.1806 3.98874 20.2754 3.54587 20.4166 3.12506C18.3728 4.3578 14.1278 7.49012 14.1278 12.2616C14.1278 20.0975 20.1011 20.6099 20.1011 25.1701C20.1011 27.096 18.7273 28.1489 16.9152 28.1489C13.9307 28.1489 10.3346 23.5378 12.5357 17.6235C12.5366 17.6235 7.35938 20.033 7.35938 25.2685C7.35938 31.9039 13.0196 36.6881 20.0021 36.6881C26.9854 36.6881 32.6457 31.3092 32.6457 24.6738C32.6457 14.5294 23.2413 10.3654 20.98 6.90387C20.4826 6.21412 20.1806 5.37334 20.1806 4.45791Z" fill="url(#paint0_linear_4447_506)"/>
<path fill-rule="evenodd" clip-rule="evenodd" d="M7.98859 29.0154C10.292 34.2193 17.2882 35.7783 20.7105 32.4091C23.5193 29.6433 21.7743 25.5483 19.0756 22.1875C19.6891 23.0389 20.1076 23.9626 20.1076 25.1694C20.1076 27.102 18.7313 28.1587 16.9152 28.1587C13.9252 28.1587 10.3217 23.5316 12.5266 17.5966C12.5266 17.5966 8.47915 19.4866 7.53616 23.5508C7.4906 24.1872 7.42809 24.9811 7.35498 25.8622C7.4122 26.9753 7.63258 28.03 7.98859 29.0154Z" fill="url(#paint1_linear_4447_506)"/>
<defs>
<linearGradient id="paint0_linear_4447_506" x1="1.7281" y1="17.4125" x2="23.8308" y2="50.5919" gradientUnits="userSpaceOnUse">
<stop stop-color="#FFA02F"/>
<stop offset="1" stop-color="#E00034"/>
</linearGradient>
<linearGradient id="paint1_linear_4447_506" x1="27.7779" y1="29.0141" x2="18.9181" y2="6.83603" gradientUnits="userSpaceOnUse">
<stop stop-color="#FFA02F"/>
<stop offset="1" stop-color="#E00034"/>
</linearGradient>
</defs>
</svg>
