<svg width="24" height="24" viewBox="0 0 24 24" fill="none" xmlns="http://www.w3.org/2000/svg">
<g clip-path="url(#clip0_10377_27633)">
<path fill="#222" fill-opacity=".54" d="M10.0748 19L9.79484 16.76C9.64318 16.7017 9.50038 16.6317 9.36644 16.55C9.23204 16.4683 9.10068 16.3808 8.97234 16.2875L6.88984 17.1625L4.96484 13.8375L6.76734 12.4725C6.75568 12.3908 6.74984 12.312 6.74984 12.2359V11.7634C6.74984 11.6878 6.75568 11.6092 6.76734 11.5275L4.96484 10.1625L6.88984 6.8375L8.97234 7.7125C9.10068 7.61917 9.23484 7.53167 9.37484 7.45C9.51484 7.36833 9.65484 7.29833 9.79484 7.24L10.0748 5H13.9248L14.2048 7.24C14.3565 7.29833 14.4995 7.36833 14.6339 7.45C14.7679 7.53167 14.899 7.61917 15.0273 7.7125L17.1098 6.8375L19.0348 10.1625L17.2323 11.5275C17.244 11.6092 17.2498 11.6878 17.2498 11.7634V12.2359C17.2498 12.312 17.2382 12.3908 17.2148 12.4725L19.0173 13.8375L17.0923 17.1625L15.0273 16.2875C14.899 16.3808 14.7648 16.4683 14.6248 16.55C14.4848 16.6317 14.3448 16.7017 14.2048 16.76L13.9248 19H10.0748ZM12.0348 14.45C12.7115 14.45 13.289 14.2108 13.7673 13.7325C14.2457 13.2542 14.4848 12.6767 14.4848 12C14.4848 11.3233 14.2457 10.7458 13.7673 10.2675C13.289 9.78917 12.7115 9.55 12.0348 9.55C11.3465 9.55 10.766 9.78917 10.2932 10.2675C9.82098 10.7458 9.58484 11.3233 9.58484 12C9.58484 12.6767 9.82098 13.2542 10.2932 13.7325C10.766 14.2108 11.3465 14.45 12.0348 14.45Z"/>
</g>
<defs>
<clipPath id="clip0_10377_27633">
<rect width="14.07" height="14" fill="white" transform="translate(4.96484 5)"/>
</clipPath>
</defs>
</svg>
